<svg width="342" height="33" viewBox="0 0 342 33" fill="none" xmlns="http://www.w3.org/2000/svg">
<rect y="28" width="342" height="5" fill="#9483FF"/>
<rect y="28" width="288" height="5" fill="#624DE7"/>
<path d="M309.844 8.39062C309.844 7.24479 310.169 6.33073 310.82 5.64844C311.471 4.96615 312.466 4.625 313.805 4.625C315.232 4.625 316.263 5.10417 316.898 6.0625C317.539 7.01562 317.859 8.3724 317.859 10.1328C317.859 12.4818 317.438 14.0911 316.594 14.9609C315.755 15.8307 314.695 16.2656 313.414 16.2656C312.914 16.2656 312.417 16.1927 311.922 16.0469C311.427 15.9062 311.047 15.7188 310.781 15.4844C310.531 15.2604 310.477 15.0417 310.617 14.8281L311.133 14.0547C311.299 13.7995 311.542 13.7995 311.859 14.0547C312.016 14.1797 312.242 14.2891 312.539 14.3828C312.841 14.4714 313.156 14.5156 313.484 14.5156C314.031 14.5156 314.534 14.2604 314.992 13.75C315.451 13.2344 315.68 12.362 315.68 11.1328H315.648C315.414 11.487 315.089 11.7422 314.672 11.8984C314.255 12.0495 313.747 12.125 313.148 12.125C312.06 12.125 311.237 11.7682 310.68 11.0547C310.122 10.3359 309.844 9.44792 309.844 8.39062ZM312.188 8.40625C312.188 9.09375 312.318 9.59375 312.578 9.90625C312.839 10.2188 313.203 10.375 313.672 10.375C314.188 10.375 314.586 10.1641 314.867 9.74219C315.154 9.32031 315.297 8.85677 315.297 8.35156C315.297 7.71615 315.167 7.22917 314.906 6.89062C314.646 6.54688 314.266 6.375 313.766 6.375C313.234 6.375 312.839 6.51823 312.578 6.80469C312.318 7.09115 312.188 7.625 312.188 8.40625ZM319.523 15.2109C319.352 14.9818 319.328 14.7839 319.453 14.6172L320 13.8672C320.219 13.5651 320.484 13.5573 320.797 13.8438C320.984 14.0156 321.273 14.1719 321.664 14.3125C322.055 14.4479 322.445 14.5156 322.836 14.5156C323.43 14.5156 323.93 14.349 324.336 14.0156C324.747 13.6823 324.953 13.1953 324.953 12.5547C324.953 11.9453 324.823 11.4531 324.562 11.0781C324.302 10.7031 323.987 10.5156 323.617 10.5156C323.299 10.5156 323.008 10.5417 322.742 10.5938C322.477 10.6406 322.201 10.7891 321.914 11.0391C321.716 11.2109 321.477 11.2969 321.195 11.2969H320.344C320.005 11.2969 319.836 11.1276 319.836 10.7891V5.39844C319.836 5.0599 320.005 4.89062 320.344 4.89062H325.969C326.307 4.89062 326.477 5.0599 326.477 5.39844V6.32031C326.477 6.65885 326.307 6.82812 325.969 6.82812H322.023V8.74219C322.023 8.95052 322.013 9.15885 321.992 9.36719H322.039C322.315 9.1276 322.622 8.96875 322.961 8.89062C323.299 8.80729 323.661 8.76562 324.047 8.76562C324.958 8.76562 325.727 9.07812 326.352 9.70312C326.982 10.3229 327.297 11.2839 327.297 12.5859C327.297 13.7839 326.896 14.6979 326.094 15.3281C325.297 15.9531 324.349 16.2656 323.25 16.2656C322.333 16.2656 321.539 16.1667 320.867 15.9688C320.201 15.7656 319.753 15.513 319.523 15.2109ZM328.664 7.23438C328.664 6.29688 328.867 5.55729 329.273 5.01562C329.685 4.47396 330.307 4.20312 331.141 4.20312C331.974 4.20312 332.594 4.47396 333 5.01562C333.411 5.55729 333.617 6.29688 333.617 7.23438C333.617 8.17188 333.411 8.91146 333 9.45312C332.594 9.99479 331.974 10.2656 331.141 10.2656C330.307 10.2656 329.685 9.99479 329.273 9.45312C328.867 8.91146 328.664 8.17188 328.664 7.23438ZM330.242 7.23438C330.242 8.01562 330.32 8.54167 330.477 8.8125C330.633 9.07812 330.854 9.21094 331.141 9.21094C331.427 9.21094 331.648 9.07812 331.805 8.8125C331.961 8.54167 332.039 8.01562 332.039 7.23438C332.039 6.45312 331.961 5.92969 331.805 5.66406C331.648 5.39323 331.427 5.25781 331.141 5.25781C330.854 5.25781 330.633 5.39323 330.477 5.66406C330.32 5.92969 330.242 6.45312 330.242 7.23438ZM330.43 16.2266C330.216 16.0755 330.198 15.8724 330.375 15.6172L338.352 4.22656C338.534 3.96615 338.732 3.91146 338.945 4.0625L339.492 4.44531C339.706 4.59635 339.724 4.79948 339.547 5.05469L331.57 16.4453C331.388 16.7057 331.19 16.7604 330.977 16.6094L330.43 16.2266ZM336.305 13.4375C336.305 12.5 336.508 11.7604 336.914 11.2188C337.326 10.6771 337.948 10.4062 338.781 10.4062C339.615 10.4062 340.234 10.6771 340.641 11.2188C341.052 11.7604 341.258 12.5 341.258 13.4375C341.258 14.375 341.052 15.1146 340.641 15.6562C340.234 16.1979 339.615 16.4688 338.781 16.4688C337.948 16.4688 337.326 16.1979 336.914 15.6562C336.508 15.1146 336.305 14.375 336.305 13.4375ZM337.883 13.4375C337.883 14.2188 337.961 14.7448 338.117 15.0156C338.273 15.2812 338.495 15.4141 338.781 15.4141C339.068 15.4141 339.289 15.2812 339.445 15.0156C339.602 14.7448 339.68 14.2188 339.68 13.4375C339.68 12.6562 339.602 12.1328 339.445 11.8672C339.289 11.5964 339.068 11.4609 338.781 11.4609C338.495 11.4609 338.273 11.5964 338.117 11.8672C337.961 12.1328 337.883 12.6562 337.883 13.4375Z" fill="#29282B"/>
<path d="M0.523438 5.42188C0.408854 5.00521 0.528646 4.79688 0.882812 4.79688H2.32812C2.57292 4.79688 2.73698 4.96875 2.82031 5.3125L4.30469 11.4531C4.41406 11.901 4.48438 12.2083 4.51562 12.375C4.55208 12.5365 4.58333 12.7995 4.60938 13.1641H4.64844C4.67448 12.7995 4.70052 12.5234 4.72656 12.3359C4.7526 12.1484 4.82812 11.8385 4.95312 11.4062L6.69531 5.375C6.80469 4.98958 7.02344 4.79688 7.35156 4.79688H8.78906C9.11719 4.79688 9.33594 4.98958 9.44531 5.375L11.1875 11.4062C11.3125 11.8385 11.388 12.1484 11.4141 12.3359C11.4401 12.5234 11.4661 12.7995 11.4922 13.1641H11.5312C11.5573 12.7995 11.5859 12.5365 11.6172 12.375C11.6536 12.2083 11.7266 11.901 11.8359 11.4531L13.3203 5.3125C13.4036 4.96875 13.5677 4.79688 13.8125 4.79688H15.2578C15.612 4.79688 15.7318 5.00521 15.6172 5.42188L12.9609 15.2422C12.8255 15.7474 12.5807 16 12.2266 16H10.8594C10.5573 16 10.3359 15.75 10.1953 15.25L8.32031 8.70312C8.21615 8.34896 8.15625 8.11979 8.14062 8.01562C8.125 7.90625 8.10417 7.70573 8.07812 7.41406H8.0625C8.03646 7.70573 8.01562 7.90625 8 8.01562C7.98438 8.11979 7.92448 8.34896 7.82031 8.70312L5.94531 15.25C5.80469 15.75 5.58333 16 5.28125 16H3.91406C3.5599 16 3.3151 15.7474 3.17969 15.2422L0.523438 5.42188ZM17.5938 16C17.2292 16 17.0469 15.8047 17.0469 15.4141V5.38281C17.0469 4.99219 17.2292 4.79688 17.5938 4.79688H18.7812C19.1458 4.79688 19.3281 4.99219 19.3281 5.38281V15.4141C19.3281 15.8047 19.1458 16 18.7812 16H17.5938ZM22.375 16C22.0104 16 21.8281 15.8047 21.8281 15.4141V5.38281C21.8281 4.99219 22.0104 4.79688 22.375 4.79688H23.5312C23.9792 4.79688 24.3177 4.97917 24.5469 5.34375L28.5312 11.7422H28.5859C28.5599 11.4297 28.5469 11.1172 28.5469 10.8047V5.38281C28.5469 4.99219 28.7292 4.79688 29.0938 4.79688H30.2812C30.6458 4.79688 30.8281 4.99219 30.8281 5.38281V15.4141C30.8281 15.8047 30.6458 16 30.2812 16H29.2031C28.7552 16 28.4167 15.8177 28.1875 15.4531L24.125 8.9375H24.0703C24.0964 9.25 24.1094 9.5625 24.1094 9.875V15.4141C24.1094 15.8047 23.9271 16 23.5625 16H22.375ZM33.875 16C33.5104 16 33.3281 15.8047 33.3281 15.4141V5.38281C33.3281 4.99219 33.5104 4.79688 33.875 4.79688H36.6016C38.9974 4.79688 40.6172 5.28125 41.4609 6.25C42.3099 7.21875 42.7344 8.59635 42.7344 10.3828C42.7344 12.1693 42.3099 13.5521 41.4609 14.5312C40.6172 15.5104 38.9974 16 36.6016 16H33.875ZM35.6094 14.0625H36.4531C38.0677 14.0625 39.112 13.763 39.5859 13.1641C40.0599 12.5599 40.2969 11.6328 40.2969 10.3828C40.2969 9.13281 40.0599 8.21094 39.5859 7.61719C39.112 7.01823 38.0677 6.71875 36.4531 6.71875H35.6094V14.0625ZM44.0781 10.3984C44.0781 8.60156 44.5417 7.17448 45.4688 6.11719C46.3958 5.0599 47.7188 4.53125 49.4375 4.53125C51.1562 4.53125 52.4792 5.0599 53.4062 6.11719C54.3333 7.17448 54.7969 8.60156 54.7969 10.3984C54.7969 12.1953 54.3333 13.6224 53.4062 14.6797C52.4792 15.737 51.1562 16.2656 49.4375 16.2656C47.7188 16.2656 46.3958 15.737 45.4688 14.6797C44.5417 13.6224 44.0781 12.1953 44.0781 10.3984ZM46.5156 10.3984C46.5156 11.7005 46.7474 12.6979 47.2109 13.3906C47.6797 14.0781 48.4219 14.4219 49.4375 14.4219C50.4531 14.4219 51.1927 14.0781 51.6562 13.3906C52.125 12.6979 52.3594 11.7005 52.3594 10.3984C52.3594 9.09635 52.125 8.10156 51.6562 7.41406C51.1927 6.72135 50.4531 6.375 49.4375 6.375C48.4219 6.375 47.6797 6.72135 47.2109 7.41406C46.7474 8.10156 46.5156 9.09635 46.5156 10.3984ZM55.9922 5.42188C55.8776 5.00521 55.9974 4.79688 56.3516 4.79688H57.7969C58.0417 4.79688 58.2057 4.96875 58.2891 5.3125L59.7734 11.4531C59.8828 11.901 59.9531 12.2083 59.9844 12.375C60.0208 12.5365 60.0521 12.7995 60.0781 13.1641H60.1172C60.1432 12.7995 60.1693 12.5234 60.1953 12.3359C60.2214 12.1484 60.2969 11.8385 60.4219 11.4062L62.1641 5.375C62.2734 4.98958 62.4922 4.79688 62.8203 4.79688H64.2578C64.5859 4.79688 64.8047 4.98958 64.9141 5.375L66.6562 11.4062C66.7812 11.8385 66.8568 12.1484 66.8828 12.3359C66.9089 12.5234 66.9349 12.7995 66.9609 13.1641H67C67.026 12.7995 67.0547 12.5365 67.0859 12.375C67.1224 12.2083 67.1953 11.901 67.3047 11.4531L68.7891 5.3125C68.8724 4.96875 69.0365 4.79688 69.2812 4.79688H70.7266C71.0807 4.79688 71.2005 5.00521 71.0859 5.42188L68.4297 15.2422C68.2943 15.7474 68.0495 16 67.6953 16H66.3281C66.026 16 65.8047 15.75 65.6641 15.25L63.7891 8.70312C63.6849 8.34896 63.625 8.11979 63.6094 8.01562C63.5938 7.90625 63.5729 7.70573 63.5469 7.41406H63.5312C63.5052 7.70573 63.4844 7.90625 63.4688 8.01562C63.4531 8.11979 63.3932 8.34896 63.2891 8.70312L61.4141 15.25C61.2734 15.75 61.0521 16 60.75 16H59.3828C59.0286 16 58.7839 15.7474 58.6484 15.2422L55.9922 5.42188ZM72.6484 15.1641C72.3255 14.9193 72.2474 14.6719 72.4141 14.4219L73.0156 13.5156C73.2135 13.2188 73.5026 13.2031 73.8828 13.4688C74.1745 13.6719 74.5547 13.8828 75.0234 14.1016C75.4974 14.3151 75.9948 14.4219 76.5156 14.4219C76.8802 14.4219 77.2318 14.3802 77.5703 14.2969C77.9089 14.2135 78.1667 14.0521 78.3438 13.8125C78.5208 13.5729 78.6094 13.2891 78.6094 12.9609C78.6094 12.7266 78.5703 12.5208 78.4922 12.3438C78.4141 12.1667 78.2865 12.0208 78.1094 11.9062C77.9323 11.7917 77.75 11.6953 77.5625 11.6172C77.2344 11.4818 76.8203 11.349 76.3203 11.2188C75.8255 11.0833 75.3359 10.9219 74.8516 10.7344C74.4193 10.5677 74.0234 10.3385 73.6641 10.0469C73.3047 9.75521 73.026 9.42708 72.8281 9.0625C72.6302 8.69792 72.5312 8.21094 72.5312 7.60156C72.5312 6.8776 72.7656 6.25781 73.2344 5.74219C73.7031 5.22656 74.2422 4.89583 74.8516 4.75C75.4609 4.60417 76.0755 4.53125 76.6953 4.53125C77.3099 4.53125 77.9427 4.625 78.5938 4.8125C79.25 5 79.7448 5.23438 80.0781 5.51562C80.4062 5.79167 80.487 6.04167 80.3203 6.26562L79.6875 7.11719C79.474 7.40885 79.1875 7.43229 78.8281 7.1875C78.599 7.03125 78.2839 6.85677 77.8828 6.66406C77.487 6.47135 77.0729 6.375 76.6406 6.375C76.3333 6.375 76.0495 6.40104 75.7891 6.45312C75.5339 6.50521 75.3073 6.63021 75.1094 6.82812C74.9115 7.02604 74.8125 7.27083 74.8125 7.5625C74.8125 7.84375 74.8854 8.07292 75.0312 8.25C75.1771 8.42188 75.3385 8.55208 75.5156 8.64062C75.6927 8.72396 75.8724 8.79427 76.0547 8.85156C76.6172 9.03385 77.1198 9.19531 77.5625 9.33594C78.0052 9.47135 78.4141 9.6224 78.7891 9.78906C79.3099 10.0234 79.7083 10.2578 79.9844 10.4922C80.2604 10.7266 80.487 11.0469 80.6641 11.4531C80.8464 11.8594 80.9375 12.3438 80.9375 12.9062C80.9375 13.7396 80.6719 14.4297 80.1406 14.9766C79.6094 15.5182 79.0182 15.8672 78.3672 16.0234C77.7214 16.1849 77.0911 16.2656 76.4766 16.2656C75.5703 16.2656 74.8333 16.1771 74.2656 16C73.6979 15.8281 73.1589 15.5495 72.6484 15.1641ZM81.9219 18.9531C81.6771 18.8594 81.612 18.6667 81.7266 18.375L86.9141 4.85938C87.0286 4.56771 87.2057 4.46875 87.4453 4.5625L88.0781 4.80469C88.3229 4.89844 88.388 5.09115 88.2734 5.38281L83.0859 18.8984C82.9714 19.1901 82.7943 19.2891 82.5547 19.1953L81.9219 18.9531ZM89.9688 16C89.6042 16 89.4219 15.8047 89.4219 15.4141V5.38281C89.4219 4.99219 89.6042 4.79688 89.9688 4.79688H92.2344C92.5365 4.79688 92.7526 5.00521 92.8828 5.42188L95 12.2734C95.0938 12.5703 95.1589 12.8151 95.1953 13.0078C95.2318 13.1953 95.263 13.4193 95.2891 13.6797H95.3359C95.362 13.4193 95.3932 13.1953 95.4297 13.0078C95.4661 12.8151 95.5312 12.5703 95.625 12.2734L97.7422 5.42188C97.8724 5.00521 98.0885 4.79688 98.3906 4.79688H100.656C101.021 4.79688 101.203 4.99219 101.203 5.38281V15.4141C101.203 15.8047 101.021 16 100.656 16H99.4688C99.1042 16 98.9219 15.8047 98.9219 15.4141V8.96094C98.9219 8.64844 98.9349 8.33594 98.9609 8.02344H98.9062L96.6484 15.3672C96.5182 15.7891 96.2943 16 95.9766 16H94.6484C94.3307 16 94.1068 15.7891 93.9766 15.3672L91.7188 8.02344H91.6641C91.6901 8.33594 91.7031 8.64844 91.7031 8.96094V15.4141C91.7031 15.8047 91.5208 16 91.1562 16H89.9688ZM103.352 16C102.977 16 102.854 15.8281 102.984 15.4844L106.812 5.42969C106.974 5.00781 107.219 4.79688 107.547 4.79688H108.641C108.969 4.79688 109.214 5.00781 109.375 5.42969L113.203 15.4844C113.333 15.8281 113.211 16 112.836 16H111.594C111.25 16 111.01 15.8203 110.875 15.4609L110.078 13.3594H106.109L105.312 15.4609C105.177 15.8203 104.938 16 104.594 16H103.352ZM106.836 11.4219H109.352L108.391 8.9375C108.276 8.64583 108.206 8.4349 108.18 8.30469C108.159 8.16927 108.135 7.97135 108.109 7.71094H108.078C108.052 7.97135 108.026 8.16927 108 8.30469C107.979 8.4349 107.911 8.64583 107.797 8.9375L106.836 11.4219ZM114.016 10.3984C114.016 8.60156 114.471 7.17448 115.383 6.11719C116.294 5.0599 117.609 4.53125 119.328 4.53125C120.318 4.53125 121.156 4.6849 121.844 4.99219C122.531 5.29948 123.016 5.74479 123.297 6.32812C123.484 6.71354 123.453 6.97396 123.203 7.10938L122.266 7.60938C121.938 7.78646 121.667 7.6875 121.453 7.3125C121.318 7.07292 121.065 6.85677 120.695 6.66406C120.331 6.47135 119.901 6.375 119.406 6.375C118.312 6.375 117.547 6.72135 117.109 7.41406C116.672 8.10156 116.453 9.09635 116.453 10.3984C116.453 11.7005 116.672 12.6979 117.109 13.3906C117.547 14.0781 118.312 14.4219 119.406 14.4219C119.995 14.4219 120.49 14.2891 120.891 14.0234C121.297 13.7578 121.578 13.5052 121.734 13.2656C121.99 12.875 122.26 12.776 122.547 12.9688L123.484 13.5938C123.74 13.7656 123.766 14.026 123.562 14.375C123.26 14.8958 122.742 15.3411 122.008 15.7109C121.273 16.0807 120.38 16.2656 119.328 16.2656C117.635 16.2656 116.326 15.737 115.398 14.6797C114.477 13.6224 114.016 12.1953 114.016 10.3984Z" fill="#29282B"/>
</svg>
