<svg width="342" height="33" viewBox="0 0 342 33" fill="none" xmlns="http://www.w3.org/2000/svg">
<rect y="28" width="342" height="5" fill="#9483FF"/>
<rect y="28" width="288" height="5" fill="#624DE7"/>
<path d="M303.492 7.10938C303.357 6.85417 303.448 6.65625 303.766 6.51562C304.068 6.38021 304.383 6.1901 304.711 5.94531C305.039 5.70052 305.307 5.44792 305.516 5.1875C305.75 4.89583 305.974 4.75 306.188 4.75H307.43C307.742 4.75 307.898 4.90625 307.898 5.21875V15.5312C307.898 15.8438 307.742 16 307.43 16H306.18C305.867 16 305.711 15.8438 305.711 15.5312V8.10156C305.711 7.89323 305.721 7.6849 305.742 7.47656H305.711C305.549 7.67969 305.372 7.85417 305.18 8C304.987 8.14583 304.792 8.26042 304.594 8.34375C304.349 8.44792 304.164 8.38021 304.039 8.14062L303.492 7.10938ZM309.859 10.4453C309.859 8.33594 310.188 6.83854 310.844 5.95312C311.5 5.06771 312.505 4.625 313.859 4.625C315.214 4.625 316.219 5.06771 316.875 5.95312C317.531 6.83854 317.859 8.33594 317.859 10.4453C317.859 12.5547 317.531 14.0521 316.875 14.9375C316.219 15.8229 315.214 16.2656 313.859 16.2656C312.505 16.2656 311.5 15.8229 310.844 14.9375C310.188 14.0521 309.859 12.5547 309.859 10.4453ZM312.172 10.4453C312.172 11.4089 312.25 12.3359 312.406 13.2266C312.568 14.1172 313.052 14.5625 313.859 14.5625C314.667 14.5625 315.148 14.1172 315.305 13.2266C315.466 12.3359 315.547 11.4089 315.547 10.4453C315.547 9.48177 315.466 8.55469 315.305 7.66406C315.148 6.77344 314.667 6.32812 313.859 6.32812C313.052 6.32812 312.568 6.77344 312.406 7.66406C312.25 8.55469 312.172 9.48177 312.172 10.4453ZM319.234 10.4453C319.234 8.33594 319.562 6.83854 320.219 5.95312C320.875 5.06771 321.88 4.625 323.234 4.625C324.589 4.625 325.594 5.06771 326.25 5.95312C326.906 6.83854 327.234 8.33594 327.234 10.4453C327.234 12.5547 326.906 14.0521 326.25 14.9375C325.594 15.8229 324.589 16.2656 323.234 16.2656C321.88 16.2656 320.875 15.8229 320.219 14.9375C319.562 14.0521 319.234 12.5547 319.234 10.4453ZM321.547 10.4453C321.547 11.4089 321.625 12.3359 321.781 13.2266C321.943 14.1172 322.427 14.5625 323.234 14.5625C324.042 14.5625 324.523 14.1172 324.68 13.2266C324.841 12.3359 324.922 11.4089 324.922 10.4453C324.922 9.48177 324.841 8.55469 324.68 7.66406C324.523 6.77344 324.042 6.32812 323.234 6.32812C322.427 6.32812 321.943 6.77344 321.781 7.66406C321.625 8.55469 321.547 9.48177 321.547 10.4453ZM328.664 7.23438C328.664 6.29688 328.867 5.55729 329.273 5.01562C329.685 4.47396 330.307 4.20312 331.141 4.20312C331.974 4.20312 332.594 4.47396 333 5.01562C333.411 5.55729 333.617 6.29688 333.617 7.23438C333.617 8.17188 333.411 8.91146 333 9.45312C332.594 9.99479 331.974 10.2656 331.141 10.2656C330.307 10.2656 329.685 9.99479 329.273 9.45312C328.867 8.91146 328.664 8.17188 328.664 7.23438ZM330.242 7.23438C330.242 8.01562 330.32 8.54167 330.477 8.8125C330.633 9.07812 330.854 9.21094 331.141 9.21094C331.427 9.21094 331.648 9.07812 331.805 8.8125C331.961 8.54167 332.039 8.01562 332.039 7.23438C332.039 6.45312 331.961 5.92969 331.805 5.66406C331.648 5.39323 331.427 5.25781 331.141 5.25781C330.854 5.25781 330.633 5.39323 330.477 5.66406C330.32 5.92969 330.242 6.45312 330.242 7.23438ZM330.43 16.2266C330.216 16.0755 330.198 15.8724 330.375 15.6172L338.352 4.22656C338.534 3.96615 338.732 3.91146 338.945 4.0625L339.492 4.44531C339.706 4.59635 339.724 4.79948 339.547 5.05469L331.57 16.4453C331.388 16.7057 331.19 16.7604 330.977 16.6094L330.43 16.2266ZM336.305 13.4375C336.305 12.5 336.508 11.7604 336.914 11.2188C337.326 10.6771 337.948 10.4062 338.781 10.4062C339.615 10.4062 340.234 10.6771 340.641 11.2188C341.052 11.7604 341.258 12.5 341.258 13.4375C341.258 14.375 341.052 15.1146 340.641 15.6562C340.234 16.1979 339.615 16.4688 338.781 16.4688C337.948 16.4688 337.326 16.1979 336.914 15.6562C336.508 15.1146 336.305 14.375 336.305 13.4375ZM337.883 13.4375C337.883 14.2188 337.961 14.7448 338.117 15.0156C338.273 15.2812 338.495 15.4141 338.781 15.4141C339.068 15.4141 339.289 15.2812 339.445 15.0156C339.602 14.7448 339.68 14.2188 339.68 13.4375C339.68 12.6562 339.602 12.1328 339.445 11.8672C339.289 11.5964 339.068 11.4609 338.781 11.4609C338.495 11.4609 338.273 11.5964 338.117 11.8672C337.961 12.1328 337.883 12.6562 337.883 13.4375Z" fill="#29282B"/>
<path d="M1.79688 16C1.43229 16 1.25 15.8047 1.25 15.4141V5.38281C1.25 4.99219 1.43229 4.79688 1.79688 4.79688H2.98438C3.34896 4.79688 3.53125 4.99219 3.53125 5.38281V9.20312H7.73438V5.38281C7.73438 4.99219 7.91667 4.79688 8.28125 4.79688H9.46875C9.83333 4.79688 10.0156 4.99219 10.0156 5.38281V15.4141C10.0156 15.8047 9.83333 16 9.46875 16H8.28125C7.91667 16 7.73438 15.8047 7.73438 15.4141V11.1406H3.53125V15.4141C3.53125 15.8047 3.34896 16 2.98438 16H1.79688ZM12.1172 6.79688C11.7266 6.79688 11.5312 6.6276 11.5312 6.28906V5.30469C11.5312 4.96615 11.7266 4.79688 12.1172 4.79688H20.1484C20.5391 4.79688 20.7344 4.96615 20.7344 5.30469V6.28906C20.7344 6.6276 20.5391 6.79688 20.1484 6.79688H17.2734V15.5703C17.2734 15.8568 17.1432 16 16.8828 16H15.3828C15.1224 16 14.9922 15.8568 14.9922 15.5703V6.79688H12.1172ZM22.7969 16C22.4323 16 22.25 15.8047 22.25 15.4141V5.38281C22.25 4.99219 22.4323 4.79688 22.7969 4.79688H25.0625C25.3646 4.79688 25.5807 5.00521 25.7109 5.42188L27.8281 12.2734C27.9219 12.5703 27.987 12.8151 28.0234 13.0078C28.0599 13.1953 28.0911 13.4193 28.1172 13.6797H28.1641C28.1901 13.4193 28.2214 13.1953 28.2578 13.0078C28.2943 12.8151 28.3594 12.5703 28.4531 12.2734L30.5703 5.42188C30.7005 5.00521 30.9167 4.79688 31.2188 4.79688H33.4844C33.849 4.79688 34.0312 4.99219 34.0312 5.38281V15.4141C34.0312 15.8047 33.849 16 33.4844 16H32.2969C31.9323 16 31.75 15.8047 31.75 15.4141V8.96094C31.75 8.64844 31.763 8.33594 31.7891 8.02344H31.7344L29.4766 15.3672C29.3464 15.7891 29.1224 16 28.8047 16H27.4766C27.1589 16 26.9349 15.7891 26.8047 15.3672L24.5469 8.02344H24.4922C24.5182 8.33594 24.5312 8.64844 24.5312 8.96094V15.4141C24.5312 15.8047 24.349 16 23.9844 16H22.7969ZM37.0781 16C36.7135 16 36.5312 15.8047 36.5312 15.4141V5.38281C36.5312 4.99219 36.7135 4.79688 37.0781 4.79688H38.3438C38.6562 4.79688 38.8125 4.99219 38.8125 5.38281V14.0625H43.3672C43.7578 14.0625 43.9531 14.2318 43.9531 14.5703V15.4922C43.9531 15.8307 43.7578 16 43.3672 16H37.0781ZM44.7969 18.9531C44.5521 18.8594 44.487 18.6667 44.6016 18.375L49.7891 4.85938C49.9036 4.56771 50.0807 4.46875 50.3203 4.5625L50.9531 4.80469C51.1979 4.89844 51.263 5.09115 51.1484 5.38281L45.9609 18.8984C45.8464 19.1901 45.6693 19.2891 45.4297 19.1953L44.7969 18.9531ZM51.7188 10.3984C51.7188 8.60156 52.1745 7.17448 53.0859 6.11719C53.9974 5.0599 55.3125 4.53125 57.0312 4.53125C58.0208 4.53125 58.8594 4.6849 59.5469 4.99219C60.2344 5.29948 60.7188 5.74479 61 6.32812C61.1875 6.71354 61.1562 6.97396 60.9062 7.10938L59.9688 7.60938C59.6406 7.78646 59.3698 7.6875 59.1562 7.3125C59.0208 7.07292 58.7682 6.85677 58.3984 6.66406C58.0339 6.47135 57.6042 6.375 57.1094 6.375C56.0156 6.375 55.25 6.72135 54.8125 7.41406C54.375 8.10156 54.1562 9.09635 54.1562 10.3984C54.1562 11.7005 54.375 12.6979 54.8125 13.3906C55.25 14.0781 56.0156 14.4219 57.1094 14.4219C57.6979 14.4219 58.1927 14.2891 58.5938 14.0234C59 13.7578 59.2812 13.5052 59.4375 13.2656C59.6927 12.875 59.9635 12.776 60.25 12.9688L61.1875 13.5938C61.4427 13.7656 61.4688 14.026 61.2656 14.375C60.9635 14.8958 60.4453 15.3411 59.7109 15.7109C58.9766 16.0807 58.0833 16.2656 57.0312 16.2656C55.3385 16.2656 54.0286 15.737 53.1016 14.6797C52.1797 13.6224 51.7188 12.1953 51.7188 10.3984ZM63.5078 15.1641C63.1849 14.9193 63.1068 14.6719 63.2734 14.4219L63.875 13.5156C64.0729 13.2188 64.362 13.2031 64.7422 13.4688C65.0339 13.6719 65.4141 13.8828 65.8828 14.1016C66.3568 14.3151 66.8542 14.4219 67.375 14.4219C67.7396 14.4219 68.0911 14.3802 68.4297 14.2969C68.7682 14.2135 69.026 14.0521 69.2031 13.8125C69.3802 13.5729 69.4688 13.2891 69.4688 12.9609C69.4688 12.7266 69.4297 12.5208 69.3516 12.3438C69.2734 12.1667 69.1458 12.0208 68.9688 11.9062C68.7917 11.7917 68.6094 11.6953 68.4219 11.6172C68.0938 11.4818 67.6797 11.349 67.1797 11.2188C66.6849 11.0833 66.1953 10.9219 65.7109 10.7344C65.2786 10.5677 64.8828 10.3385 64.5234 10.0469C64.1641 9.75521 63.8854 9.42708 63.6875 9.0625C63.4896 8.69792 63.3906 8.21094 63.3906 7.60156C63.3906 6.8776 63.625 6.25781 64.0938 5.74219C64.5625 5.22656 65.1016 4.89583 65.7109 4.75C66.3203 4.60417 66.9349 4.53125 67.5547 4.53125C68.1693 4.53125 68.8021 4.625 69.4531 4.8125C70.1094 5 70.6042 5.23438 70.9375 5.51562C71.2656 5.79167 71.3464 6.04167 71.1797 6.26562L70.5469 7.11719C70.3333 7.40885 70.0469 7.43229 69.6875 7.1875C69.4583 7.03125 69.1432 6.85677 68.7422 6.66406C68.3464 6.47135 67.9323 6.375 67.5 6.375C67.1927 6.375 66.9089 6.40104 66.6484 6.45312C66.3932 6.50521 66.1667 6.63021 65.9688 6.82812C65.7708 7.02604 65.6719 7.27083 65.6719 7.5625C65.6719 7.84375 65.7448 8.07292 65.8906 8.25C66.0365 8.42188 66.1979 8.55208 66.375 8.64062C66.5521 8.72396 66.7318 8.79427 66.9141 8.85156C67.4766 9.03385 67.9792 9.19531 68.4219 9.33594C68.8646 9.47135 69.2734 9.6224 69.6484 9.78906C70.1693 10.0234 70.5677 10.2578 70.8438 10.4922C71.1198 10.7266 71.3464 11.0469 71.5234 11.4531C71.7057 11.8594 71.7969 12.3438 71.7969 12.9062C71.7969 13.7396 71.5312 14.4297 71 14.9766C70.4688 15.5182 69.8776 15.8672 69.2266 16.0234C68.5807 16.1849 67.9505 16.2656 67.3359 16.2656C66.4297 16.2656 65.6927 16.1771 65.125 16C64.5573 15.8281 64.0182 15.5495 63.5078 15.1641ZM73.7266 15.1641C73.4036 14.9193 73.3255 14.6719 73.4922 14.4219L74.0938 13.5156C74.2917 13.2188 74.5807 13.2031 74.9609 13.4688C75.2526 13.6719 75.6328 13.8828 76.1016 14.1016C76.5755 14.3151 77.0729 14.4219 77.5938 14.4219C77.9583 14.4219 78.3099 14.3802 78.6484 14.2969C78.987 14.2135 79.2448 14.0521 79.4219 13.8125C79.599 13.5729 79.6875 13.2891 79.6875 12.9609C79.6875 12.7266 79.6484 12.5208 79.5703 12.3438C79.4922 12.1667 79.3646 12.0208 79.1875 11.9062C79.0104 11.7917 78.8281 11.6953 78.6406 11.6172C78.3125 11.4818 77.8984 11.349 77.3984 11.2188C76.9036 11.0833 76.4141 10.9219 75.9297 10.7344C75.4974 10.5677 75.1016 10.3385 74.7422 10.0469C74.3828 9.75521 74.1042 9.42708 73.9062 9.0625C73.7083 8.69792 73.6094 8.21094 73.6094 7.60156C73.6094 6.8776 73.8438 6.25781 74.3125 5.74219C74.7812 5.22656 75.3203 4.89583 75.9297 4.75C76.5391 4.60417 77.1536 4.53125 77.7734 4.53125C78.388 4.53125 79.0208 4.625 79.6719 4.8125C80.3281 5 80.8229 5.23438 81.1562 5.51562C81.4844 5.79167 81.5651 6.04167 81.3984 6.26562L80.7656 7.11719C80.5521 7.40885 80.2656 7.43229 79.9062 7.1875C79.6771 7.03125 79.362 6.85677 78.9609 6.66406C78.5651 6.47135 78.151 6.375 77.7188 6.375C77.4115 6.375 77.1276 6.40104 76.8672 6.45312C76.612 6.50521 76.3854 6.63021 76.1875 6.82812C75.9896 7.02604 75.8906 7.27083 75.8906 7.5625C75.8906 7.84375 75.9635 8.07292 76.1094 8.25C76.2552 8.42188 76.4167 8.55208 76.5938 8.64062C76.7708 8.72396 76.9505 8.79427 77.1328 8.85156C77.6953 9.03385 78.1979 9.19531 78.6406 9.33594C79.0833 9.47135 79.4922 9.6224 79.8672 9.78906C80.388 10.0234 80.7865 10.2578 81.0625 10.4922C81.3385 10.7266 81.5651 11.0469 81.7422 11.4531C81.9245 11.8594 82.0156 12.3438 82.0156 12.9062C82.0156 13.7396 81.75 14.4297 81.2188 14.9766C80.6875 15.5182 80.0964 15.8672 79.4453 16.0234C78.7995 16.1849 78.1693 16.2656 77.5547 16.2656C76.6484 16.2656 75.9115 16.1771 75.3438 16C74.776 15.8281 74.237 15.5495 73.7266 15.1641ZM83 18.9531C82.7552 18.8594 82.6901 18.6667 82.8047 18.375L87.9922 4.85938C88.1068 4.56771 88.2839 4.46875 88.5234 4.5625L89.1562 4.80469C89.401 4.89844 89.4661 5.09115 89.3516 5.38281L84.1641 18.8984C84.0495 19.1901 83.8724 19.2891 83.6328 19.1953L83 18.9531ZM89.9531 15.8516C89.6771 15.6901 89.5729 15.4948 89.6406 15.2656L89.9688 14.1953C90.0625 13.888 90.3073 13.8568 90.7031 14.1016C91.0417 14.3151 91.4193 14.4219 91.8359 14.4219C92.4089 14.4219 92.7812 14.224 92.9531 13.8281C93.1302 13.4323 93.2188 12.7734 93.2188 11.8516V5.38281C93.2188 4.99219 93.401 4.79688 93.7656 4.79688H94.9531C95.3177 4.79688 95.5 4.99219 95.5 5.38281V11.6953C95.5 13.612 95.1771 14.8542 94.5312 15.4219C93.8906 15.9844 93 16.2656 91.8594 16.2656C91.0625 16.2656 90.4271 16.1276 89.9531 15.8516ZM98.0391 15.1641C97.7161 14.9193 97.638 14.6719 97.8047 14.4219L98.4062 13.5156C98.6042 13.2188 98.8932 13.2031 99.2734 13.4688C99.5651 13.6719 99.9453 13.8828 100.414 14.1016C100.888 14.3151 101.385 14.4219 101.906 14.4219C102.271 14.4219 102.622 14.3802 102.961 14.2969C103.299 14.2135 103.557 14.0521 103.734 13.8125C103.911 13.5729 104 13.2891 104 12.9609C104 12.7266 103.961 12.5208 103.883 12.3438C103.805 12.1667 103.677 12.0208 103.5 11.9062C103.323 11.7917 103.141 11.6953 102.953 11.6172C102.625 11.4818 102.211 11.349 101.711 11.2188C101.216 11.0833 100.727 10.9219 100.242 10.7344C99.8099 10.5677 99.4141 10.3385 99.0547 10.0469C98.6953 9.75521 98.4167 9.42708 98.2188 9.0625C98.0208 8.69792 97.9219 8.21094 97.9219 7.60156C97.9219 6.8776 98.1562 6.25781 98.625 5.74219C99.0938 5.22656 99.6328 4.89583 100.242 4.75C100.852 4.60417 101.466 4.53125 102.086 4.53125C102.701 4.53125 103.333 4.625 103.984 4.8125C104.641 5 105.135 5.23438 105.469 5.51562C105.797 5.79167 105.878 6.04167 105.711 6.26562L105.078 7.11719C104.865 7.40885 104.578 7.43229 104.219 7.1875C103.99 7.03125 103.674 6.85677 103.273 6.66406C102.878 6.47135 102.464 6.375 102.031 6.375C101.724 6.375 101.44 6.40104 101.18 6.45312C100.924 6.50521 100.698 6.63021 100.5 6.82812C100.302 7.02604 100.203 7.27083 100.203 7.5625C100.203 7.84375 100.276 8.07292 100.422 8.25C100.568 8.42188 100.729 8.55208 100.906 8.64062C101.083 8.72396 101.263 8.79427 101.445 8.85156C102.008 9.03385 102.51 9.19531 102.953 9.33594C103.396 9.47135 103.805 9.6224 104.18 9.78906C104.701 10.0234 105.099 10.2578 105.375 10.4922C105.651 10.7266 105.878 11.0469 106.055 11.4531C106.237 11.8594 106.328 12.3438 106.328 12.9062C106.328 13.7396 106.062 14.4297 105.531 14.9766C105 15.5182 104.409 15.8672 103.758 16.0234C103.112 16.1849 102.482 16.2656 101.867 16.2656C100.961 16.2656 100.224 16.1771 99.6562 16C99.0885 15.8281 98.5495 15.5495 98.0391 15.1641Z" fill="#29282B"/>
</svg>
