<svg width="342" height="33" viewBox="0 0 342 33" fill="none" xmlns="http://www.w3.org/2000/svg">
<rect y="28" width="342" height="5" fill="#9483FF"/>
<rect y="28" width="288" height="5" fill="#624DE7"/>
<path d="M309.844 8.39062C309.844 7.24479 310.169 6.33073 310.82 5.64844C311.471 4.96615 312.466 4.625 313.805 4.625C315.232 4.625 316.263 5.10417 316.898 6.0625C317.539 7.01562 317.859 8.3724 317.859 10.1328C317.859 12.4818 317.438 14.0911 316.594 14.9609C315.755 15.8307 314.695 16.2656 313.414 16.2656C312.914 16.2656 312.417 16.1927 311.922 16.0469C311.427 15.9062 311.047 15.7188 310.781 15.4844C310.531 15.2604 310.477 15.0417 310.617 14.8281L311.133 14.0547C311.299 13.7995 311.542 13.7995 311.859 14.0547C312.016 14.1797 312.242 14.2891 312.539 14.3828C312.841 14.4714 313.156 14.5156 313.484 14.5156C314.031 14.5156 314.534 14.2604 314.992 13.75C315.451 13.2344 315.68 12.362 315.68 11.1328H315.648C315.414 11.487 315.089 11.7422 314.672 11.8984C314.255 12.0495 313.747 12.125 313.148 12.125C312.06 12.125 311.237 11.7682 310.68 11.0547C310.122 10.3359 309.844 9.44792 309.844 8.39062ZM312.188 8.40625C312.188 9.09375 312.318 9.59375 312.578 9.90625C312.839 10.2188 313.203 10.375 313.672 10.375C314.188 10.375 314.586 10.1641 314.867 9.74219C315.154 9.32031 315.297 8.85677 315.297 8.35156C315.297 7.71615 315.167 7.22917 314.906 6.89062C314.646 6.54688 314.266 6.375 313.766 6.375C313.234 6.375 312.839 6.51823 312.578 6.80469C312.318 7.09115 312.188 7.625 312.188 8.40625ZM319.234 10.4453C319.234 8.33594 319.562 6.83854 320.219 5.95312C320.875 5.06771 321.88 4.625 323.234 4.625C324.589 4.625 325.594 5.06771 326.25 5.95312C326.906 6.83854 327.234 8.33594 327.234 10.4453C327.234 12.5547 326.906 14.0521 326.25 14.9375C325.594 15.8229 324.589 16.2656 323.234 16.2656C321.88 16.2656 320.875 15.8229 320.219 14.9375C319.562 14.0521 319.234 12.5547 319.234 10.4453ZM321.547 10.4453C321.547 11.4089 321.625 12.3359 321.781 13.2266C321.943 14.1172 322.427 14.5625 323.234 14.5625C324.042 14.5625 324.523 14.1172 324.68 13.2266C324.841 12.3359 324.922 11.4089 324.922 10.4453C324.922 9.48177 324.841 8.55469 324.68 7.66406C324.523 6.77344 324.042 6.32812 323.234 6.32812C322.427 6.32812 321.943 6.77344 321.781 7.66406C321.625 8.55469 321.547 9.48177 321.547 10.4453ZM328.664 7.23438C328.664 6.29688 328.867 5.55729 329.273 5.01562C329.685 4.47396 330.307 4.20312 331.141 4.20312C331.974 4.20312 332.594 4.47396 333 5.01562C333.411 5.55729 333.617 6.29688 333.617 7.23438C333.617 8.17188 333.411 8.91146 333 9.45312C332.594 9.99479 331.974 10.2656 331.141 10.2656C330.307 10.2656 329.685 9.99479 329.273 9.45312C328.867 8.91146 328.664 8.17188 328.664 7.23438ZM330.242 7.23438C330.242 8.01562 330.32 8.54167 330.477 8.8125C330.633 9.07812 330.854 9.21094 331.141 9.21094C331.427 9.21094 331.648 9.07812 331.805 8.8125C331.961 8.54167 332.039 8.01562 332.039 7.23438C332.039 6.45312 331.961 5.92969 331.805 5.66406C331.648 5.39323 331.427 5.25781 331.141 5.25781C330.854 5.25781 330.633 5.39323 330.477 5.66406C330.32 5.92969 330.242 6.45312 330.242 7.23438ZM330.43 16.2266C330.216 16.0755 330.198 15.8724 330.375 15.6172L338.352 4.22656C338.534 3.96615 338.732 3.91146 338.945 4.0625L339.492 4.44531C339.706 4.59635 339.724 4.79948 339.547 5.05469L331.57 16.4453C331.388 16.7057 331.19 16.7604 330.977 16.6094L330.43 16.2266ZM336.305 13.4375C336.305 12.5 336.508 11.7604 336.914 11.2188C337.326 10.6771 337.948 10.4062 338.781 10.4062C339.615 10.4062 340.234 10.6771 340.641 11.2188C341.052 11.7604 341.258 12.5 341.258 13.4375C341.258 14.375 341.052 15.1146 340.641 15.6562C340.234 16.1979 339.615 16.4688 338.781 16.4688C337.948 16.4688 337.326 16.1979 336.914 15.6562C336.508 15.1146 336.305 14.375 336.305 13.4375ZM337.883 13.4375C337.883 14.2188 337.961 14.7448 338.117 15.0156C338.273 15.2812 338.495 15.4141 338.781 15.4141C339.068 15.4141 339.289 15.2812 339.445 15.0156C339.602 14.7448 339.68 14.2188 339.68 13.4375C339.68 12.6562 339.602 12.1328 339.445 11.8672C339.289 11.5964 339.068 11.4609 338.781 11.4609C338.495 11.4609 338.273 11.5964 338.117 11.8672C337.961 12.1328 337.883 12.6562 337.883 13.4375Z" fill="#29282B"/>
<path d="M1.79688 16C1.43229 16 1.25 15.8047 1.25 15.4141V5.38281C1.25 4.99219 1.43229 4.79688 1.79688 4.79688H2.98438C3.34896 4.79688 3.53125 4.99219 3.53125 5.38281V15.4141C3.53125 15.8047 3.34896 16 2.98438 16H1.79688ZM5.45312 10.3984C5.45312 8.60156 5.91667 7.17448 6.84375 6.11719C7.77083 5.0599 9.09375 4.53125 10.8125 4.53125C12.5312 4.53125 13.8542 5.0599 14.7812 6.11719C15.7083 7.17448 16.1719 8.60156 16.1719 10.3984C16.1719 12.1953 15.7083 13.6224 14.7812 14.6797C13.8542 15.737 12.5312 16.2656 10.8125 16.2656C9.09375 16.2656 7.77083 15.737 6.84375 14.6797C5.91667 13.6224 5.45312 12.1953 5.45312 10.3984ZM7.89062 10.3984C7.89062 11.7005 8.1224 12.6979 8.58594 13.3906C9.05469 14.0781 9.79688 14.4219 10.8125 14.4219C11.8281 14.4219 12.5677 14.0781 13.0312 13.3906C13.5 12.6979 13.7344 11.7005 13.7344 10.3984C13.7344 9.09635 13.5 8.10156 13.0312 7.41406C12.5677 6.72135 11.8281 6.375 10.8125 6.375C9.79688 6.375 9.05469 6.72135 8.58594 7.41406C8.1224 8.10156 7.89062 9.09635 7.89062 10.3984ZM18.2266 15.1641C17.9036 14.9193 17.8255 14.6719 17.9922 14.4219L18.5938 13.5156C18.7917 13.2188 19.0807 13.2031 19.4609 13.4688C19.7526 13.6719 20.1328 13.8828 20.6016 14.1016C21.0755 14.3151 21.5729 14.4219 22.0938 14.4219C22.4583 14.4219 22.8099 14.3802 23.1484 14.2969C23.487 14.2135 23.7448 14.0521 23.9219 13.8125C24.099 13.5729 24.1875 13.2891 24.1875 12.9609C24.1875 12.7266 24.1484 12.5208 24.0703 12.3438C23.9922 12.1667 23.8646 12.0208 23.6875 11.9062C23.5104 11.7917 23.3281 11.6953 23.1406 11.6172C22.8125 11.4818 22.3984 11.349 21.8984 11.2188C21.4036 11.0833 20.9141 10.9219 20.4297 10.7344C19.9974 10.5677 19.6016 10.3385 19.2422 10.0469C18.8828 9.75521 18.6042 9.42708 18.4062 9.0625C18.2083 8.69792 18.1094 8.21094 18.1094 7.60156C18.1094 6.8776 18.3438 6.25781 18.8125 5.74219C19.2812 5.22656 19.8203 4.89583 20.4297 4.75C21.0391 4.60417 21.6536 4.53125 22.2734 4.53125C22.888 4.53125 23.5208 4.625 24.1719 4.8125C24.8281 5 25.3229 5.23438 25.6562 5.51562C25.9844 5.79167 26.0651 6.04167 25.8984 6.26562L25.2656 7.11719C25.0521 7.40885 24.7656 7.43229 24.4062 7.1875C24.1771 7.03125 23.862 6.85677 23.4609 6.66406C23.0651 6.47135 22.651 6.375 22.2188 6.375C21.9115 6.375 21.6276 6.40104 21.3672 6.45312C21.112 6.50521 20.8854 6.63021 20.6875 6.82812C20.4896 7.02604 20.3906 7.27083 20.3906 7.5625C20.3906 7.84375 20.4635 8.07292 20.6094 8.25C20.7552 8.42188 20.9167 8.55208 21.0938 8.64062C21.2708 8.72396 21.4505 8.79427 21.6328 8.85156C22.1953 9.03385 22.6979 9.19531 23.1406 9.33594C23.5833 9.47135 23.9922 9.6224 24.3672 9.78906C24.888 10.0234 25.2865 10.2578 25.5625 10.4922C25.8385 10.7266 26.0651 11.0469 26.2422 11.4531C26.4245 11.8594 26.5156 12.3438 26.5156 12.9062C26.5156 13.7396 26.25 14.4297 25.7188 14.9766C25.1875 15.5182 24.5964 15.8672 23.9453 16.0234C23.2995 16.1849 22.6693 16.2656 22.0547 16.2656C21.1484 16.2656 20.4115 16.1771 19.8438 16C19.276 15.8281 18.737 15.5495 18.2266 15.1641ZM27.5 18.9531C27.2552 18.8594 27.1901 18.6667 27.3047 18.375L32.4922 4.85938C32.6068 4.56771 32.7839 4.46875 33.0234 4.5625L33.6562 4.80469C33.901 4.89844 33.9661 5.09115 33.8516 5.38281L28.6641 18.8984C28.5495 19.1901 28.3724 19.2891 28.1328 19.1953L27.5 18.9531ZM34.6484 16C34.2734 16 34.151 15.8281 34.2812 15.4844L38.1094 5.42969C38.2708 5.00781 38.5156 4.79688 38.8438 4.79688H39.9375C40.2656 4.79688 40.5104 5.00781 40.6719 5.42969L44.5 15.4844C44.6302 15.8281 44.5078 16 44.1328 16H42.8906C42.5469 16 42.3073 15.8203 42.1719 15.4609L41.375 13.3594H37.4062L36.6094 15.4609C36.474 15.8203 36.2344 16 35.8906 16H34.6484ZM38.1328 11.4219H40.6484L39.6875 8.9375C39.5729 8.64583 39.5026 8.4349 39.4766 8.30469C39.4557 8.16927 39.4323 7.97135 39.4062 7.71094H39.375C39.349 7.97135 39.3229 8.16927 39.2969 8.30469C39.276 8.4349 39.2083 8.64583 39.0938 8.9375L38.1328 11.4219ZM46.4375 16C46.0729 16 45.8906 15.8047 45.8906 15.4141V5.38281C45.8906 4.99219 46.0729 4.79688 46.4375 4.79688H47.5938C48.0417 4.79688 48.3802 4.97917 48.6094 5.34375L52.5938 11.7422H52.6484C52.6224 11.4297 52.6094 11.1172 52.6094 10.8047V5.38281C52.6094 4.99219 52.7917 4.79688 53.1562 4.79688H54.3438C54.7083 4.79688 54.8906 4.99219 54.8906 5.38281V15.4141C54.8906 15.8047 54.7083 16 54.3438 16H53.2656C52.8177 16 52.4792 15.8177 52.25 15.4531L48.1875 8.9375H48.1328C48.1589 9.25 48.1719 9.5625 48.1719 9.875V15.4141C48.1719 15.8047 47.9896 16 47.625 16H46.4375ZM57.9375 16C57.5729 16 57.3906 15.8047 57.3906 15.4141V5.38281C57.3906 4.99219 57.5729 4.79688 57.9375 4.79688H60.6641C63.0599 4.79688 64.6797 5.28125 65.5234 6.25C66.3724 7.21875 66.7969 8.59635 66.7969 10.3828C66.7969 12.1693 66.3724 13.5521 65.5234 14.5312C64.6797 15.5104 63.0599 16 60.6641 16H57.9375ZM59.6719 14.0625H60.5156C62.1302 14.0625 63.1745 13.763 63.6484 13.1641C64.1224 12.5599 64.3594 11.6328 64.3594 10.3828C64.3594 9.13281 64.1224 8.21094 63.6484 7.61719C63.1745 7.01823 62.1302 6.71875 60.5156 6.71875H59.6719V14.0625ZM69.2656 16C68.901 16 68.7188 15.8047 68.7188 15.4141V5.38281C68.7188 4.99219 68.901 4.79688 69.2656 4.79688H72.8828C74.4922 4.79688 75.6667 5.04688 76.4062 5.54688C77.1458 6.04167 77.5156 6.84896 77.5156 7.96875C77.5156 8.80208 77.2161 9.46615 76.6172 9.96094C76.0182 10.4557 75.2578 10.7839 74.3359 10.9453V10.9609C74.8359 11.1484 75.2135 11.4089 75.4688 11.7422C75.724 12.0755 75.9323 12.3672 76.0938 12.6172L77.8125 15.3281C78.099 15.776 78 16 77.5156 16H76.1562C75.8698 16 75.6354 15.8464 75.4531 15.5391L73.875 12.9062C73.7031 12.625 73.388 12.3177 72.9297 11.9844C72.4766 11.6458 72.026 11.4766 71.5781 11.4766H71V15.4141C71 15.8047 70.8177 16 70.4531 16H69.2656ZM71 9.53906H72.3984C73.4401 9.53906 74.1797 9.42188 74.6172 9.1875C75.0599 8.94792 75.2812 8.57031 75.2812 8.05469C75.2812 7.49219 75.0677 7.1276 74.6406 6.96094C74.2188 6.78906 73.5964 6.70312 72.7734 6.70312H71V9.53906ZM79.2969 10.3984C79.2969 8.60156 79.7604 7.17448 80.6875 6.11719C81.6146 5.0599 82.9375 4.53125 84.6562 4.53125C86.375 4.53125 87.6979 5.0599 88.625 6.11719C89.5521 7.17448 90.0156 8.60156 90.0156 10.3984C90.0156 12.1953 89.5521 13.6224 88.625 14.6797C87.6979 15.737 86.375 16.2656 84.6562 16.2656C82.9375 16.2656 81.6146 15.737 80.6875 14.6797C79.7604 13.6224 79.2969 12.1953 79.2969 10.3984ZM81.7344 10.3984C81.7344 11.7005 81.9661 12.6979 82.4297 13.3906C82.8984 14.0781 83.6406 14.4219 84.6562 14.4219C85.6719 14.4219 86.4115 14.0781 86.875 13.3906C87.3438 12.6979 87.5781 11.7005 87.5781 10.3984C87.5781 9.09635 87.3438 8.10156 86.875 7.41406C86.4115 6.72135 85.6719 6.375 84.6562 6.375C83.6406 6.375 82.8984 6.72135 82.4297 7.41406C81.9661 8.10156 81.7344 9.09635 81.7344 10.3984ZM92.4844 16C92.1198 16 91.9375 15.8047 91.9375 15.4141V5.38281C91.9375 4.99219 92.1198 4.79688 92.4844 4.79688H93.6719C94.0365 4.79688 94.2188 4.99219 94.2188 5.38281V15.4141C94.2188 15.8047 94.0365 16 93.6719 16H92.4844ZM97.2656 16C96.901 16 96.7188 15.8047 96.7188 15.4141V5.38281C96.7188 4.99219 96.901 4.79688 97.2656 4.79688H99.9922C102.388 4.79688 104.008 5.28125 104.852 6.25C105.701 7.21875 106.125 8.59635 106.125 10.3828C106.125 12.1693 105.701 13.5521 104.852 14.5312C104.008 15.5104 102.388 16 99.9922 16H97.2656ZM99 14.0625H99.8438C101.458 14.0625 102.503 13.763 102.977 13.1641C103.451 12.5599 103.688 11.6328 103.688 10.3828C103.688 9.13281 103.451 8.21094 102.977 7.61719C102.503 7.01823 101.458 6.71875 99.8438 6.71875H99V14.0625Z" fill="#29282B"/>
</svg>
