<svg width="26" height="26" viewBox="0 0 26 26" fill="none" xmlns="http://www.w3.org/2000/svg">
<circle cx="13" cy="13" r="13" fill="#624DE7"/>
<path d="M12.084 7.8291L12.691 7.22207C12.948 6.96504 13.3637 6.96504 13.618 7.22207L18.9336 12.535C19.1906 12.792 19.1906 13.2076 18.9336 13.4619L13.618 18.7775C13.3609 19.0346 12.9453 19.0346 12.691 18.7775L12.084 18.1705C11.8242 17.9107 11.8297 17.4869 12.0949 17.2326L15.3898 14.0936H7.53125C7.16758 14.0936 6.875 13.801 6.875 13.4373V12.5623C6.875 12.1986 7.16758 11.9061 7.53125 11.9061H15.3898L12.0949 8.76699C11.827 8.5127 11.8215 8.08887 12.084 7.8291Z" fill="white"/>
</svg>
