<svg width="266" height="100" viewBox="0 0 266 100" fill="none" xmlns="http://www.w3.org/2000/svg">
<path d="M95 50C97.7614 50 100.026 52.2443 99.7503 54.9919C98.803 64.4336 95.183 73.4488 89.2658 80.9547C82.3128 89.7746 72.5929 95.9967 61.6723 98.6185C50.7516 101.24 39.2663 100.109 29.067 95.4072C18.8677 90.7052 10.5484 82.7064 5.44968 72.6995C0.350932 62.6927 -1.23031 51.2606 0.960735 40.2455C3.15178 29.2303 8.98751 19.2736 17.5276 11.9797C26.0677 4.68579 36.8147 0.479475 48.037 0.0385485C57.5874 -0.33669 67.0087 2.03371 75.2039 6.81704C77.5889 8.20904 78.0735 11.3602 76.4503 13.5942C74.8272 15.8283 71.7123 16.2924 69.2933 14.9604C62.9444 11.4646 55.7342 9.74384 48.4296 10.0308C39.4518 10.3836 30.8541 13.7486 24.0221 19.5838C17.19 25.4189 12.5214 33.3843 10.7686 42.1964C9.01575 51.0085 10.2807 60.1541 14.3597 68.1596C18.4387 76.1651 25.0942 82.5642 33.2536 86.3257C41.4131 90.0873 50.6013 90.9922 59.3378 88.8948C68.0743 86.7973 75.8503 81.8196 81.4127 74.7638C85.9384 69.0229 88.7844 62.1783 89.688 54.9871C90.0322 52.2472 92.2386 50 95 50Z" fill="#FF9900"/>
<path d="M30.3223 45.4883C30.3223 44.056 30.7292 42.9134 31.543 42.0605C32.3568 41.2077 33.6003 40.7812 35.2734 40.7812C37.0573 40.7812 38.3464 41.3802 39.1406 42.5781C39.9414 43.7695 40.3418 45.4655 40.3418 47.666C40.3418 50.6022 39.8145 52.6139 38.7598 53.7012C37.7116 54.7884 36.3867 55.332 34.7852 55.332C34.1602 55.332 33.5384 55.2409 32.9199 55.0586C32.3014 54.8828 31.8262 54.6484 31.4941 54.3555C31.1816 54.0755 31.1133 53.8021 31.2891 53.5352L31.9336 52.5684C32.1419 52.2493 32.4447 52.2493 32.8418 52.5684C33.0371 52.7246 33.3203 52.8613 33.6914 52.9785C34.069 53.0892 34.4629 53.1445 34.873 53.1445C35.5566 53.1445 36.1849 52.8255 36.7578 52.1875C37.3307 51.543 37.6172 50.4525 37.6172 48.916H37.5781C37.2852 49.3587 36.8783 49.6777 36.3574 49.873C35.8366 50.0618 35.2018 50.1562 34.4531 50.1562C33.0924 50.1562 32.0638 49.7103 31.3672 48.8184C30.6706 47.9199 30.3223 46.8099 30.3223 45.4883ZM33.252 45.5078C33.252 46.3672 33.4147 46.9922 33.7402 47.3828C34.0658 47.7734 34.5215 47.9688 35.1074 47.9688C35.752 47.9688 36.25 47.7051 36.6016 47.1777C36.9596 46.6504 37.1387 46.071 37.1387 45.4395C37.1387 44.6452 36.9759 44.0365 36.6504 43.6133C36.3249 43.1836 35.8496 42.9688 35.2246 42.9688C34.5605 42.9688 34.0658 43.1478 33.7402 43.5059C33.4147 43.8639 33.252 44.5312 33.252 45.5078ZM42.0605 48.0566C42.0605 45.4199 42.4707 43.5482 43.291 42.4414C44.1113 41.3346 45.3678 40.7812 47.0605 40.7812C48.7533 40.7812 50.0098 41.3346 50.8301 42.4414C51.6504 43.5482 52.0605 45.4199 52.0605 48.0566C52.0605 50.6934 51.6504 52.5651 50.8301 53.6719C50.0098 54.7786 48.7533 55.332 47.0605 55.332C45.3678 55.332 44.1113 54.7786 43.291 53.6719C42.4707 52.5651 42.0605 50.6934 42.0605 48.0566ZM44.9512 48.0566C44.9512 49.2611 45.0488 50.4199 45.2441 51.5332C45.446 52.6465 46.0514 53.2031 47.0605 53.2031C48.0697 53.2031 48.6719 52.6465 48.8672 51.5332C49.069 50.4199 49.1699 49.2611 49.1699 48.0566C49.1699 46.8522 49.069 45.6934 48.8672 44.5801C48.6719 43.4668 48.0697 42.9102 47.0605 42.9102C46.0514 42.9102 45.446 43.4668 45.2441 44.5801C45.0488 45.6934 44.9512 46.8522 44.9512 48.0566ZM53.8477 44.043C53.8477 42.8711 54.1016 41.9466 54.6094 41.2695C55.1237 40.5924 55.9017 40.2539 56.9434 40.2539C57.985 40.2539 58.7598 40.5924 59.2676 41.2695C59.7819 41.9466 60.0391 42.8711 60.0391 44.043C60.0391 45.2148 59.7819 46.1393 59.2676 46.8164C58.7598 47.4935 57.985 47.832 56.9434 47.832C55.9017 47.832 55.1237 47.4935 54.6094 46.8164C54.1016 46.1393 53.8477 45.2148 53.8477 44.043ZM55.8203 44.043C55.8203 45.0195 55.918 45.6771 56.1133 46.0156C56.3086 46.3477 56.5853 46.5137 56.9434 46.5137C57.3014 46.5137 57.5781 46.3477 57.7734 46.0156C57.9688 45.6771 58.0664 45.0195 58.0664 44.043C58.0664 43.0664 57.9688 42.4121 57.7734 42.0801C57.5781 41.7415 57.3014 41.5723 56.9434 41.5723C56.5853 41.5723 56.3086 41.7415 56.1133 42.0801C55.918 42.4121 55.8203 43.0664 55.8203 44.043ZM56.0547 55.2832C55.7878 55.0944 55.765 54.8405 55.9863 54.5215L65.957 40.2832C66.1849 39.9577 66.4323 39.8893 66.6992 40.0781L67.3828 40.5566C67.6497 40.7454 67.6725 40.9993 67.4512 41.3184L57.4805 55.5566C57.2526 55.8822 57.0052 55.9505 56.7383 55.7617L56.0547 55.2832ZM63.3984 51.7969C63.3984 50.625 63.6523 49.7005 64.1602 49.0234C64.6745 48.3464 65.4525 48.0078 66.4941 48.0078C67.5358 48.0078 68.3105 48.3464 68.8184 49.0234C69.3327 49.7005 69.5898 50.625 69.5898 51.7969C69.5898 52.9688 69.3327 53.8932 68.8184 54.5703C68.3105 55.2474 67.5358 55.5859 66.4941 55.5859C65.4525 55.5859 64.6745 55.2474 64.1602 54.5703C63.6523 53.8932 63.3984 52.9688 63.3984 51.7969ZM65.3711 51.7969C65.3711 52.7734 65.4688 53.431 65.6641 53.7695C65.8594 54.1016 66.1361 54.2676 66.4941 54.2676C66.8522 54.2676 67.1289 54.1016 67.3242 53.7695C67.5195 53.431 67.6172 52.7734 67.6172 51.7969C67.6172 50.8203 67.5195 50.166 67.3242 49.834C67.1289 49.4954 66.8522 49.3262 66.4941 49.3262C66.1361 49.3262 65.8594 49.4954 65.6641 49.834C65.4688 50.166 65.3711 50.8203 65.3711 51.7969Z" fill="white"/>
<path d="M119.719 37.3828C119.719 35.5599 120.167 34.1354 121.062 33.1094C121.964 32.0781 123.26 31.5625 124.953 31.5625C126.646 31.5625 127.94 32.0807 128.836 33.1172C129.737 34.1484 130.188 35.5755 130.188 37.3984C130.188 39.2214 129.74 40.651 128.844 41.6875C128.094 42.5469 127.07 43.0469 125.773 43.1875C125.826 43.6927 126.013 44.0964 126.336 44.3984C126.659 44.7005 127.12 44.8516 127.719 44.8516C128.042 44.8516 128.305 44.8255 128.508 44.7734C128.711 44.7214 128.826 44.75 128.852 44.8594L129.008 45.5469C129.034 45.6719 128.969 45.7526 128.812 45.7891C128.349 45.8932 127.901 45.9453 127.469 45.9453C126.349 45.9453 125.547 45.6641 125.062 45.1016C124.583 44.5443 124.32 43.9115 124.273 43.2031C122.909 43.0781 121.839 42.5677 121.062 41.6719C120.167 40.6354 119.719 39.2057 119.719 37.3828ZM121.32 37.3984C121.32 38.8568 121.62 39.9922 122.219 40.8047C122.818 41.612 123.729 42.0156 124.953 42.0156C126.177 42.0156 127.089 41.612 127.688 40.8047C128.286 39.9922 128.586 38.8568 128.586 37.3984C128.586 35.9401 128.286 34.8073 127.688 34C127.089 33.1875 126.177 32.7812 124.953 32.7812C123.729 32.7812 122.818 33.1875 122.219 34C121.62 34.8073 121.32 35.9401 121.32 37.3984ZM132 40.1406V35.1484C132 34.9141 132.117 34.7969 132.352 34.7969H133.023C133.258 34.7969 133.375 34.9141 133.375 35.1484V39.7656C133.375 40.7865 133.544 41.4349 133.883 41.7109C134.221 41.9818 134.641 42.1172 135.141 42.1172C135.797 42.1172 136.299 41.9167 136.648 41.5156C136.997 41.1094 137.172 40.4167 137.172 39.4375V35.1484C137.172 34.9141 137.289 34.7969 137.523 34.7969H138.195C138.43 34.7969 138.547 34.9141 138.547 35.1484V42.6484C138.547 42.8828 138.43 43 138.195 43H137.539C137.305 43 137.188 42.8828 137.188 42.6484V42.0234H137.156C136.818 42.3984 136.453 42.6771 136.062 42.8594C135.672 43.0417 135.195 43.1328 134.633 43.1328C133.721 43.1328 133.055 42.8672 132.633 42.3359C132.211 41.7995 132 41.0677 132 40.1406ZM141.117 43C140.883 43 140.766 42.8828 140.766 42.6484V35.1484C140.766 34.9141 140.883 34.7969 141.117 34.7969H141.789C142.023 34.7969 142.141 34.9141 142.141 35.1484V42.6484C142.141 42.8828 142.023 43 141.789 43H141.117ZM141.117 33.3125C140.883 33.3125 140.766 33.1953 140.766 32.9609V32.2891C140.766 32.0547 140.883 31.9375 141.117 31.9375H141.789C142.023 31.9375 142.141 32.0547 142.141 32.2891V32.9609C142.141 33.1953 142.023 33.3125 141.789 33.3125H141.117ZM144.039 42.2344C143.878 42.0833 143.844 41.9427 143.938 41.8125L144.289 41.3203C144.404 41.1641 144.573 41.1719 144.797 41.3438C145.104 41.5781 145.445 41.7656 145.82 41.9062C146.201 42.0469 146.633 42.1172 147.117 42.1172C147.404 42.1172 147.659 42.0833 147.883 42.0156C148.107 41.9427 148.302 41.8099 148.469 41.6172C148.641 41.4245 148.727 41.1667 148.727 40.8438C148.727 40.6562 148.685 40.4792 148.602 40.3125C148.523 40.1458 148.398 40.013 148.227 39.9141C148.06 39.8099 147.896 39.7292 147.734 39.6719C147.469 39.5729 147.203 39.4922 146.938 39.4297C146.677 39.362 146.333 39.2604 145.906 39.125C145.62 39.0365 145.349 38.9115 145.094 38.75C144.839 38.5833 144.615 38.3594 144.422 38.0781C144.234 37.7969 144.141 37.4089 144.141 36.9141C144.141 36.4089 144.294 35.974 144.602 35.6094C144.909 35.2448 145.294 34.9974 145.758 34.8672C146.221 34.7318 146.672 34.6641 147.109 34.6641C147.755 34.6641 148.273 34.7396 148.664 34.8906C149.06 35.0365 149.401 35.2109 149.688 35.4141C149.854 35.5339 149.878 35.6719 149.758 35.8281L149.406 36.2969C149.297 36.4479 149.128 36.4427 148.898 36.2812C148.706 36.1458 148.432 36.0182 148.078 35.8984C147.724 35.7786 147.414 35.7188 147.148 35.7188C146.82 35.7188 146.539 35.7552 146.305 35.8281C146.07 35.901 145.88 36.026 145.734 36.2031C145.589 36.3802 145.516 36.5885 145.516 36.8281C145.516 37.0104 145.544 37.1745 145.602 37.3203C145.659 37.4609 145.766 37.5911 145.922 37.7109C146.078 37.8307 146.297 37.9271 146.578 38C147.016 38.1146 147.414 38.2188 147.773 38.3125C148.138 38.4062 148.466 38.5208 148.758 38.6562C149.138 38.8333 149.43 39.0286 149.633 39.2422C149.841 39.4557 149.984 39.6875 150.062 39.9375C150.141 40.1823 150.18 40.4557 150.18 40.7578C150.18 41.3151 150.013 41.7865 149.68 42.1719C149.352 42.5573 148.984 42.8151 148.578 42.9453C148.172 43.0703 147.682 43.1328 147.109 43.1328C146.333 43.1328 145.667 43.0234 145.109 42.8047C144.557 42.5807 144.201 42.3906 144.039 42.2344ZM156.617 38.8984C156.617 37.6068 156.94 36.5781 157.586 35.8125C158.232 35.0469 159.156 34.6641 160.359 34.6641C161.359 34.6641 162.188 35.0156 162.844 35.7188C163.505 36.4167 163.836 37.5339 163.836 39.0703C163.836 39.3047 163.729 39.4219 163.516 39.4219H158.07C158.159 40.4271 158.43 41.1276 158.883 41.5234C159.336 41.9141 159.849 42.1094 160.422 42.1094C161.026 42.1094 161.49 42.0078 161.812 41.8047C162.135 41.6016 162.372 41.401 162.523 41.2031C162.69 40.9844 162.852 40.9427 163.008 41.0781L163.469 41.4766C163.589 41.5807 163.589 41.724 163.469 41.9062C163.37 42.0573 163.086 42.2995 162.617 42.6328C162.154 42.9661 161.422 43.1328 160.422 43.1328C159.12 43.1328 158.159 42.75 157.539 41.9844C156.924 41.2188 156.617 40.1901 156.617 38.8984ZM158.039 38.4062H162.453C162.432 37.6771 162.245 37.0391 161.891 36.4922C161.536 35.9401 161.016 35.6641 160.328 35.6641C159.724 35.6641 159.211 35.8672 158.789 36.2734C158.367 36.6745 158.117 37.3854 158.039 38.4062ZM165.992 43C165.758 43 165.641 42.8828 165.641 42.6484V32.8984C165.641 32.7943 165.667 32.6953 165.719 32.6016L166.266 31.6094C166.365 31.4271 166.445 31.3359 166.508 31.3359H166.781C166.938 31.3359 167.016 31.4271 167.016 31.6094V42.6484C167.016 42.8828 166.898 43 166.664 43H165.992ZM168.789 38.8984C168.789 37.6068 169.112 36.5781 169.758 35.8125C170.404 35.0469 171.328 34.6641 172.531 34.6641C173.531 34.6641 174.359 35.0156 175.016 35.7188C175.677 36.4167 176.008 37.5339 176.008 39.0703C176.008 39.3047 175.901 39.4219 175.688 39.4219H170.242C170.331 40.4271 170.602 41.1276 171.055 41.5234C171.508 41.9141 172.021 42.1094 172.594 42.1094C173.198 42.1094 173.661 42.0078 173.984 41.8047C174.307 41.6016 174.544 41.401 174.695 41.2031C174.862 40.9844 175.023 40.9427 175.18 41.0781L175.641 41.4766C175.76 41.5807 175.76 41.724 175.641 41.9062C175.542 42.0573 175.258 42.2995 174.789 42.6328C174.326 42.9661 173.594 43.1328 172.594 43.1328C171.292 43.1328 170.331 42.75 169.711 41.9844C169.096 41.2188 168.789 40.1901 168.789 38.8984ZM170.211 38.4062H174.625C174.604 37.6771 174.417 37.0391 174.062 36.4922C173.708 35.9401 173.188 35.6641 172.5 35.6641C171.896 35.6641 171.383 35.8672 170.961 36.2734C170.539 36.6745 170.289 37.3854 170.211 38.4062ZM178.164 43C177.93 43 177.812 42.8828 177.812 42.6484V35.1484C177.812 34.9141 177.93 34.7969 178.164 34.7969H178.836C179.07 34.7969 179.188 34.9141 179.188 35.1484V42.6484C179.188 42.8828 179.07 43 178.836 43H178.164ZM178.164 33.3125C177.93 33.3125 177.812 33.1953 177.812 32.9609V32.2891C177.812 32.0547 177.93 31.9375 178.164 31.9375H178.836C179.07 31.9375 179.188 32.0547 179.188 32.2891V32.9609C179.188 33.1953 179.07 33.3125 178.836 33.3125H178.164ZM181 35.8281C180.766 35.8281 180.648 35.737 180.648 35.5547V35.0703C180.648 34.888 180.766 34.7969 181 34.7969H181.836V33.6328C181.836 32.763 182.07 32.1641 182.539 31.8359C183.008 31.5026 183.544 31.3359 184.148 31.3359C184.508 31.3359 184.797 31.3542 185.016 31.3906C185.24 31.4271 185.503 31.5078 185.805 31.6328C185.919 31.6797 185.953 31.763 185.906 31.8828L185.664 32.5C185.622 32.6042 185.531 32.625 185.391 32.5625C185.276 32.5104 185.135 32.4635 184.969 32.4219C184.802 32.375 184.622 32.3516 184.43 32.3516C183.997 32.3516 183.685 32.4557 183.492 32.6641C183.305 32.8724 183.211 33.2708 183.211 33.8594V34.7969H184.641C184.875 34.7969 184.992 34.888 184.992 35.0703V35.5547C184.992 35.737 184.875 35.8281 184.641 35.8281H183.211V42.6484C183.211 42.8828 183.094 43 182.859 43H182.188C181.953 43 181.836 42.8828 181.836 42.6484V35.8281H181ZM186.055 38.8984C186.055 37.6068 186.378 36.5781 187.023 35.8125C187.669 35.0469 188.594 34.6641 189.797 34.6641C190.797 34.6641 191.625 35.0156 192.281 35.7188C192.943 36.4167 193.273 37.5339 193.273 39.0703C193.273 39.3047 193.167 39.4219 192.953 39.4219H187.508C187.596 40.4271 187.867 41.1276 188.32 41.5234C188.773 41.9141 189.286 42.1094 189.859 42.1094C190.464 42.1094 190.927 42.0078 191.25 41.8047C191.573 41.6016 191.81 41.401 191.961 41.2031C192.128 40.9844 192.289 40.9427 192.445 41.0781L192.906 41.4766C193.026 41.5807 193.026 41.724 192.906 41.9062C192.807 42.0573 192.523 42.2995 192.055 42.6328C191.591 42.9661 190.859 43.1328 189.859 43.1328C188.557 43.1328 187.596 42.75 186.977 41.9844C186.362 41.2188 186.055 40.1901 186.055 38.8984ZM187.477 38.4062H191.891C191.87 37.6771 191.682 37.0391 191.328 36.4922C190.974 35.9401 190.453 35.6641 189.766 35.6641C189.161 35.6641 188.648 35.8672 188.227 36.2734C187.805 36.6745 187.555 37.3854 187.477 38.4062ZM195.43 43C195.195 43 195.078 42.8828 195.078 42.6484V35.1484C195.078 34.9141 195.195 34.7969 195.43 34.7969H196.086C196.32 34.7969 196.438 34.9141 196.438 35.1484V35.7734H196.469C196.807 35.3984 197.172 35.1198 197.562 34.9375C197.953 34.7552 198.44 34.6641 199.023 34.6641C199.971 34.6641 200.651 34.9323 201.062 35.4688C201.479 36 201.688 36.7292 201.688 37.6562V42.6484C201.688 42.8828 201.57 43 201.336 43H200.664C200.43 43 200.312 42.8828 200.312 42.6484V38.0312C200.312 37.0104 200.143 36.3646 199.805 36.0938C199.466 35.8177 199.036 35.6797 198.516 35.6797C197.839 35.6797 197.326 35.8828 196.977 36.2891C196.628 36.6901 196.453 37.3802 196.453 38.3594V42.6484C196.453 42.8828 196.336 43 196.102 43H195.43ZM203.445 38.8984C203.445 37.7786 203.716 36.7943 204.258 35.9453C204.799 35.0911 205.591 34.6641 206.633 34.6641C207.232 34.6641 207.711 34.763 208.07 34.9609C208.43 35.1589 208.753 35.4297 209.039 35.7734H209.055C209.044 35.6172 209.039 35.4583 209.039 35.2969V31.8203C209.039 31.5859 209.156 31.4688 209.391 31.4688H210.062C210.297 31.4688 210.414 31.5859 210.414 31.8203V42.6484C210.414 42.8828 210.297 43 210.062 43H209.406C209.219 43 209.117 42.8828 209.102 42.6484L209.055 42.0234H209.039C208.753 42.3672 208.43 42.638 208.07 42.8359C207.711 43.0339 207.232 43.1328 206.633 43.1328C205.591 43.1328 204.799 42.7083 204.258 41.8594C203.716 41.0052 203.445 40.0182 203.445 38.8984ZM204.898 38.8984C204.898 39.8568 205.062 40.6328 205.391 41.2266C205.724 41.8203 206.286 42.1172 207.078 42.1172C207.641 42.1172 208.107 41.9271 208.477 41.5469C208.852 41.1615 209.039 40.5781 209.039 39.7969V38C209.039 37.2188 208.852 36.638 208.477 36.2578C208.107 35.8724 207.641 35.6797 207.078 35.6797C206.286 35.6797 205.724 35.9766 205.391 36.5703C205.062 37.1641 204.898 37.9401 204.898 38.8984ZM217.523 38.8984C217.523 37.7786 217.794 36.7943 218.336 35.9453C218.878 35.0911 219.669 34.6641 220.711 34.6641C221.31 34.6641 221.789 34.763 222.148 34.9609C222.508 35.1589 222.831 35.4297 223.117 35.7734H223.133L223.18 35.1484C223.195 34.9141 223.297 34.7969 223.484 34.7969H224.141C224.375 34.7969 224.492 34.9141 224.492 35.1484V45.7734C224.492 46.0078 224.375 46.125 224.141 46.125H223.469C223.234 46.125 223.117 46.0078 223.117 45.7734V42.5C223.117 42.3385 223.122 42.1797 223.133 42.0234H223.117C222.831 42.3672 222.508 42.638 222.148 42.8359C221.789 43.0339 221.31 43.1328 220.711 43.1328C219.669 43.1328 218.878 42.7083 218.336 41.8594C217.794 41.0052 217.523 40.0182 217.523 38.8984ZM218.977 38.8984C218.977 39.8568 219.141 40.6328 219.469 41.2266C219.802 41.8203 220.365 42.1172 221.156 42.1172C221.719 42.1172 222.185 41.9271 222.555 41.5469C222.93 41.1615 223.117 40.5781 223.117 39.7969V38C223.117 37.2188 222.93 36.638 222.555 36.2578C222.185 35.8724 221.719 35.6797 221.156 35.6797C220.365 35.6797 219.802 35.9766 219.469 36.5703C219.141 37.1641 218.977 37.9401 218.977 38.8984ZM226.703 40.1406V35.1484C226.703 34.9141 226.82 34.7969 227.055 34.7969H227.727C227.961 34.7969 228.078 34.9141 228.078 35.1484V39.7656C228.078 40.7865 228.247 41.4349 228.586 41.7109C228.924 41.9818 229.344 42.1172 229.844 42.1172C230.5 42.1172 231.003 41.9167 231.352 41.5156C231.701 41.1094 231.875 40.4167 231.875 39.4375V35.1484C231.875 34.9141 231.992 34.7969 232.227 34.7969H232.898C233.133 34.7969 233.25 34.9141 233.25 35.1484V42.6484C233.25 42.8828 233.133 43 232.898 43H232.242C232.008 43 231.891 42.8828 231.891 42.6484V42.0234H231.859C231.521 42.3984 231.156 42.6771 230.766 42.8594C230.375 43.0417 229.898 43.1328 229.336 43.1328C228.424 43.1328 227.758 42.8672 227.336 42.3359C226.914 41.7995 226.703 41.0677 226.703 40.1406ZM235.023 40.8125C235.023 39.8854 235.456 39.2057 236.32 38.7734C237.19 38.3411 238.487 38.0885 240.211 38.0156V37.4844C240.211 36.9948 240.099 36.5729 239.875 36.2188C239.656 35.8594 239.219 35.6797 238.562 35.6797C238.146 35.6797 237.812 35.7214 237.562 35.8047C237.312 35.8828 237.083 35.9896 236.875 36.125C236.672 36.2552 236.477 36.4245 236.289 36.6328C236.148 36.7891 236.016 36.7969 235.891 36.6562L235.484 36.1875C235.37 36.0573 235.409 35.901 235.602 35.7188C235.878 35.4583 236.146 35.263 236.406 35.1328C236.667 35.0026 236.99 34.8932 237.375 34.8047C237.766 34.7109 238.161 34.6641 238.562 34.6641C239.651 34.6641 240.427 34.9453 240.891 35.5078C241.354 36.0651 241.586 36.8307 241.586 37.8047V42.6484C241.586 42.8828 241.469 43 241.234 43H240.531C240.328 43 240.227 42.8828 240.227 42.6484V42.2656H240.211C239.799 42.5885 239.396 42.8151 239 42.9453C238.609 43.0703 238.172 43.1328 237.688 43.1328C236.833 43.1328 236.174 42.9297 235.711 42.5234C235.253 42.112 235.023 41.5417 235.023 40.8125ZM236.445 40.8438C236.445 41.1667 236.513 41.4271 236.648 41.625C236.784 41.8177 236.971 41.9427 237.211 42C237.451 42.0521 237.701 42.0781 237.961 42.0781C238.362 42.0781 238.742 42.0391 239.102 41.9609C239.461 41.8828 239.831 41.6771 240.211 41.3438V39.0391C239.159 39.1172 238.409 39.2135 237.961 39.3281C237.513 39.4375 237.148 39.6302 236.867 39.9062C236.586 40.1771 236.445 40.4896 236.445 40.8438ZM244.164 43C243.93 43 243.812 42.8828 243.812 42.6484V35.1484C243.812 34.9141 243.93 34.7969 244.164 34.7969H244.82C245.055 34.7969 245.172 34.9141 245.172 35.1484V35.7734H245.203C245.542 35.3984 245.909 35.1198 246.305 34.9375C246.701 34.7552 247.081 34.6641 247.445 34.6641C248.117 34.6641 248.633 34.8333 248.992 35.1719C249.357 35.5052 249.591 35.8411 249.695 36.1797H249.727C250.013 35.7526 250.375 35.3932 250.812 35.1016C251.25 34.8099 251.716 34.6641 252.211 34.6641C253.039 34.6641 253.664 34.9323 254.086 35.4688C254.508 36 254.719 36.7292 254.719 37.6562V42.6484C254.719 42.8828 254.602 43 254.367 43H253.695C253.461 43 253.344 42.8828 253.344 42.6484V38.1094C253.344 37.0885 253.216 36.4297 252.961 36.1328C252.706 35.8307 252.312 35.6797 251.781 35.6797C251.26 35.6797 250.826 35.9036 250.477 36.3516C250.128 36.7943 249.953 37.4635 249.953 38.3594V42.6484C249.953 42.8828 249.836 43 249.602 43H248.93C248.695 43 248.578 42.8828 248.578 42.6484V38.1094C248.578 37.0885 248.451 36.4297 248.195 36.1328C247.94 35.8307 247.547 35.6797 247.016 35.6797C246.495 35.6797 246.06 35.8828 245.711 36.2891C245.362 36.6901 245.188 37.3802 245.188 38.3594V42.6484C245.188 42.8828 245.07 43 244.836 43H244.164ZM119.664 63.8125C119.664 62.8854 120.096 62.2057 120.961 61.7734C121.831 61.3411 123.128 61.0885 124.852 61.0156V60.4844C124.852 59.9948 124.74 59.5729 124.516 59.2188C124.297 58.8594 123.859 58.6797 123.203 58.6797C122.786 58.6797 122.453 58.7214 122.203 58.8047C121.953 58.8828 121.724 58.9896 121.516 59.125C121.312 59.2552 121.117 59.4245 120.93 59.6328C120.789 59.7891 120.656 59.7969 120.531 59.6562L120.125 59.1875C120.01 59.0573 120.049 58.901 120.242 58.7188C120.518 58.4583 120.786 58.263 121.047 58.1328C121.307 58.0026 121.63 57.8932 122.016 57.8047C122.406 57.7109 122.802 57.6641 123.203 57.6641C124.292 57.6641 125.068 57.9453 125.531 58.5078C125.995 59.0651 126.227 59.8307 126.227 60.8047V65.6484C126.227 65.8828 126.109 66 125.875 66H125.172C124.969 66 124.867 65.8828 124.867 65.6484V65.2656H124.852C124.44 65.5885 124.036 65.8151 123.641 65.9453C123.25 66.0703 122.812 66.1328 122.328 66.1328C121.474 66.1328 120.815 65.9297 120.352 65.5234C119.893 65.112 119.664 64.5417 119.664 63.8125ZM121.086 63.8438C121.086 64.1667 121.154 64.4271 121.289 64.625C121.424 64.8177 121.612 64.9427 121.852 65C122.091 65.0521 122.341 65.0781 122.602 65.0781C123.003 65.0781 123.383 65.0391 123.742 64.9609C124.102 64.8828 124.471 64.6771 124.852 64.3438V62.0391C123.799 62.1172 123.049 62.2135 122.602 62.3281C122.154 62.4375 121.789 62.6302 121.508 62.9062C121.227 63.1771 121.086 63.4896 121.086 63.8438ZM128.008 61.8984C128.008 60.7786 128.279 59.7943 128.82 58.9453C129.362 58.0911 130.154 57.6641 131.195 57.6641C131.794 57.6641 132.273 57.763 132.633 57.9609C132.992 58.1589 133.315 58.4297 133.602 58.7734H133.617C133.607 58.6172 133.602 58.4583 133.602 58.2969V54.8203C133.602 54.5859 133.719 54.4688 133.953 54.4688H134.625C134.859 54.4688 134.977 54.5859 134.977 54.8203V65.6484C134.977 65.8828 134.859 66 134.625 66H133.969C133.781 66 133.68 65.8828 133.664 65.6484L133.617 65.0234H133.602C133.315 65.3672 132.992 65.638 132.633 65.8359C132.273 66.0339 131.794 66.1328 131.195 66.1328C130.154 66.1328 129.362 65.7083 128.82 64.8594C128.279 64.0052 128.008 63.0182 128.008 61.8984ZM129.461 61.8984C129.461 62.8568 129.625 63.6328 129.953 64.2266C130.286 64.8203 130.849 65.1172 131.641 65.1172C132.203 65.1172 132.669 64.9271 133.039 64.5469C133.414 64.1615 133.602 63.5781 133.602 62.7969V61C133.602 60.2188 133.414 59.638 133.039 59.2578C132.669 58.8724 132.203 58.6797 131.641 58.6797C130.849 58.6797 130.286 58.9766 129.953 59.5703C129.625 60.1641 129.461 60.9401 129.461 61.8984ZM137.555 66C137.32 66 137.203 65.8828 137.203 65.6484V58.1484C137.203 57.9141 137.32 57.7969 137.555 57.7969H138.227C138.461 57.7969 138.578 57.9141 138.578 58.1484V65.6484C138.578 65.8828 138.461 66 138.227 66H137.555ZM137.555 56.3125C137.32 56.3125 137.203 56.1953 137.203 55.9609V55.2891C137.203 55.0547 137.32 54.9375 137.555 54.9375H138.227C138.461 54.9375 138.578 55.0547 138.578 55.2891V55.9609C138.578 56.1953 138.461 56.3125 138.227 56.3125H137.555ZM141.148 69.125C140.914 69.125 140.797 69.0078 140.797 68.7734V58.1484C140.797 57.9141 140.914 57.7969 141.148 57.7969H141.805C141.992 57.7969 142.094 57.9141 142.109 58.1484L142.156 58.7734H142.172C142.458 58.4297 142.781 58.1589 143.141 57.9609C143.5 57.763 143.979 57.6641 144.578 57.6641C145.62 57.6641 146.411 58.0911 146.953 58.9453C147.495 59.7943 147.766 60.7786 147.766 61.8984C147.766 63.0182 147.495 64.0052 146.953 64.8594C146.411 65.7083 145.62 66.1328 144.578 66.1328C143.979 66.1328 143.5 66.0339 143.141 65.8359C142.781 65.638 142.458 65.3672 142.172 65.0234H142.156C142.167 65.1797 142.172 65.3385 142.172 65.5V68.7734C142.172 69.0078 142.055 69.125 141.82 69.125H141.148ZM142.172 62.7969C142.172 63.5781 142.357 64.1615 142.727 64.5469C143.102 64.9271 143.57 65.1172 144.133 65.1172C144.924 65.1172 145.484 64.8203 145.812 64.2266C146.146 63.6328 146.312 62.8568 146.312 61.8984C146.312 60.9401 146.146 60.1641 145.812 59.5703C145.484 58.9766 144.924 58.6797 144.133 58.6797C143.57 58.6797 143.102 58.8724 142.727 59.2578C142.357 59.638 142.172 60.2188 142.172 61V62.7969ZM149.898 66C149.664 66 149.547 65.8828 149.547 65.6484V58.1484C149.547 57.9141 149.664 57.7969 149.898 57.7969H150.57C150.805 57.7969 150.922 57.9141 150.922 58.1484V65.6484C150.922 65.8828 150.805 66 150.57 66H149.898ZM149.898 56.3125C149.664 56.3125 149.547 56.1953 149.547 55.9609V55.2891C149.547 55.0547 149.664 54.9375 149.898 54.9375H150.57C150.805 54.9375 150.922 55.0547 150.922 55.2891V55.9609C150.922 56.1953 150.805 56.3125 150.57 56.3125H149.898ZM152.82 65.2344C152.659 65.0833 152.625 64.9427 152.719 64.8125L153.07 64.3203C153.185 64.1641 153.354 64.1719 153.578 64.3438C153.885 64.5781 154.227 64.7656 154.602 64.9062C154.982 65.0469 155.414 65.1172 155.898 65.1172C156.185 65.1172 156.44 65.0833 156.664 65.0156C156.888 64.9427 157.083 64.8099 157.25 64.6172C157.422 64.4245 157.508 64.1667 157.508 63.8438C157.508 63.6562 157.466 63.4792 157.383 63.3125C157.305 63.1458 157.18 63.013 157.008 62.9141C156.841 62.8099 156.677 62.7292 156.516 62.6719C156.25 62.5729 155.984 62.4922 155.719 62.4297C155.458 62.362 155.115 62.2604 154.688 62.125C154.401 62.0365 154.13 61.9115 153.875 61.75C153.62 61.5833 153.396 61.3594 153.203 61.0781C153.016 60.7969 152.922 60.4089 152.922 59.9141C152.922 59.4089 153.076 58.974 153.383 58.6094C153.69 58.2448 154.076 57.9974 154.539 57.8672C155.003 57.7318 155.453 57.6641 155.891 57.6641C156.536 57.6641 157.055 57.7396 157.445 57.8906C157.841 58.0365 158.182 58.2109 158.469 58.4141C158.635 58.5339 158.659 58.6719 158.539 58.8281L158.188 59.2969C158.078 59.4479 157.909 59.4427 157.68 59.2812C157.487 59.1458 157.214 59.0182 156.859 58.8984C156.505 58.7786 156.195 58.7188 155.93 58.7188C155.602 58.7188 155.32 58.7552 155.086 58.8281C154.852 58.901 154.661 59.026 154.516 59.2031C154.37 59.3802 154.297 59.5885 154.297 59.8281C154.297 60.0104 154.326 60.1745 154.383 60.3203C154.44 60.4609 154.547 60.5911 154.703 60.7109C154.859 60.8307 155.078 60.9271 155.359 61C155.797 61.1146 156.195 61.2188 156.555 61.3125C156.919 61.4062 157.247 61.5208 157.539 61.6562C157.919 61.8333 158.211 62.0286 158.414 62.2422C158.622 62.4557 158.766 62.6875 158.844 62.9375C158.922 63.1823 158.961 63.4557 158.961 63.7578C158.961 64.3151 158.794 64.7865 158.461 65.1719C158.133 65.5573 157.766 65.8151 157.359 65.9453C156.953 66.0703 156.464 66.1328 155.891 66.1328C155.115 66.1328 154.448 66.0234 153.891 65.8047C153.339 65.5807 152.982 65.3906 152.82 65.2344ZM160.07 61.8984C160.07 60.6745 160.372 59.6641 160.977 58.8672C161.586 58.0651 162.516 57.6641 163.766 57.6641C164.609 57.6641 165.253 57.8151 165.695 58.1172C166.143 58.4141 166.466 58.7188 166.664 59.0312C166.773 59.2031 166.75 59.3411 166.594 59.4453L166.102 59.7656C165.945 59.875 165.789 59.8047 165.633 59.5547C165.482 59.3151 165.268 59.1094 164.992 58.9375C164.721 58.7656 164.312 58.6797 163.766 58.6797C163.052 58.6797 162.5 58.9427 162.109 59.4688C161.719 59.9948 161.523 60.8047 161.523 61.8984C161.523 62.9922 161.719 63.8021 162.109 64.3281C162.5 64.8542 163.052 65.1172 163.766 65.1172C164.344 65.1172 164.786 65.0078 165.094 64.7891C165.401 64.5651 165.625 64.3229 165.766 64.0625C165.901 63.8177 166.055 63.7474 166.227 63.8516L166.75 64.1641C166.906 64.2578 166.93 64.3984 166.82 64.5859C166.69 64.8099 166.393 65.125 165.93 65.5312C165.471 65.9323 164.75 66.1328 163.766 66.1328C162.516 66.1328 161.586 65.7344 160.977 64.9375C160.372 64.1354 160.07 63.1224 160.07 61.8984ZM168.883 66C168.648 66 168.531 65.8828 168.531 65.6484V58.1484C168.531 57.9141 168.648 57.7969 168.883 57.7969H169.555C169.789 57.7969 169.906 57.9141 169.906 58.1484V65.6484C169.906 65.8828 169.789 66 169.555 66H168.883ZM168.883 56.3125C168.648 56.3125 168.531 56.1953 168.531 55.9609V55.2891C168.531 55.0547 168.648 54.9375 168.883 54.9375H169.555C169.789 54.9375 169.906 55.0547 169.906 55.2891V55.9609C169.906 56.1953 169.789 56.3125 169.555 56.3125H168.883ZM172.477 66C172.242 66 172.125 65.8828 172.125 65.6484V58.1484C172.125 57.9141 172.242 57.7969 172.477 57.7969H173.133C173.367 57.7969 173.484 57.9141 173.484 58.1484V58.7734H173.516C173.854 58.3984 174.219 58.1198 174.609 57.9375C175 57.7552 175.487 57.6641 176.07 57.6641C177.018 57.6641 177.698 57.9323 178.109 58.4688C178.526 59 178.734 59.7292 178.734 60.6562V65.6484C178.734 65.8828 178.617 66 178.383 66H177.711C177.477 66 177.359 65.8828 177.359 65.6484V61.0312C177.359 60.0104 177.19 59.3646 176.852 59.0938C176.513 58.8177 176.083 58.6797 175.562 58.6797C174.885 58.6797 174.372 58.8828 174.023 59.2891C173.674 59.6901 173.5 60.3802 173.5 61.3594V65.6484C173.5 65.8828 173.383 66 173.148 66H172.477ZM180.492 61.8984C180.492 60.7786 180.763 59.7943 181.305 58.9453C181.846 58.0911 182.638 57.6641 183.68 57.6641C184.279 57.6641 184.758 57.763 185.117 57.9609C185.477 58.1589 185.799 58.4297 186.086 58.7734H186.102L186.148 58.1484C186.164 57.9141 186.266 57.7969 186.453 57.7969H187.109C187.344 57.7969 187.461 57.9141 187.461 58.1484V66.0625C187.461 67.0625 187.229 67.8438 186.766 68.4062C186.307 68.974 185.398 69.2578 184.039 69.2578C183.128 69.2578 182.445 69.1536 181.992 68.9453C181.539 68.7422 181.216 68.526 181.023 68.2969C180.883 68.125 180.875 67.9792 181 67.8594L181.43 67.4375C181.549 67.3229 181.716 67.3594 181.93 67.5469C182.206 67.7969 182.471 67.974 182.727 68.0781C182.982 68.1875 183.422 68.2422 184.047 68.2422C184.755 68.2422 185.271 68.0911 185.594 67.7891C185.922 67.487 186.086 66.862 186.086 65.9141V65.4453C186.086 65.2839 186.091 65.125 186.102 64.9688H186.086C185.815 65.3281 185.495 65.612 185.125 65.8203C184.76 66.0286 184.279 66.1328 183.68 66.1328C182.638 66.1328 181.846 65.7083 181.305 64.8594C180.763 64.0052 180.492 63.0182 180.492 61.8984ZM181.945 61.8984C181.945 62.8568 182.109 63.6328 182.438 64.2266C182.771 64.8203 183.333 65.1172 184.125 65.1172C184.688 65.1172 185.154 64.9271 185.523 64.5469C185.898 64.1615 186.086 63.5781 186.086 62.7969V61C186.086 60.2188 185.898 59.638 185.523 59.2578C185.154 58.8724 184.688 58.6797 184.125 58.6797C183.333 58.6797 182.771 58.9766 182.438 59.5703C182.109 60.1641 181.945 60.9401 181.945 61.8984ZM190.484 66C190.25 66 190.133 65.8828 190.133 65.6484V64.6953C190.133 64.4609 190.25 64.3438 190.484 64.3438H191.359C191.594 64.3438 191.711 64.4609 191.711 64.6953V65.6484C191.711 65.8828 191.594 66 191.359 66H190.484Z" fill="white"/>
</svg>
