<svg width="25" height="25" viewBox="0 0 25 25" fill="none" xmlns="http://www.w3.org/2000/svg">
<g clip-path="url(#clip0_302_19)">
<path d="M25 22.6563C25 23.9507 23.9507 25 22.6562 25H2.34375C1.04932 25 0 23.9507 0 22.6563V9.80098C4.31745e-06 9.44558 0.0808345 9.09483 0.236376 8.77527C0.391917 8.45572 0.618096 8.17571 0.897803 7.95645C2.11426 7.00289 3.11953 6.22965 8.91538 2.0233C9.73691 1.42432 11.367 -0.0169358 12.5 0.00015407C13.6327 -0.0171311 15.2635 1.42457 16.0846 2.02325C21.8799 6.22916 22.8865 7.00347 24.1022 7.95645C24.3819 8.17571 24.6081 8.45572 24.7636 8.77527C24.9192 9.09483 25 9.44558 25 9.80098V22.6563ZM21.7937 13.0564C21.6685 12.8744 21.4177 12.832 21.24 12.9633C20.1245 13.7872 18.5319 14.9508 16.0846 16.7269C15.2631 17.3258 13.633 18.767 12.5 18.7499C11.3667 18.7667 9.73833 17.3269 8.91538 16.7269C6.46841 14.951 4.87563 13.7873 3.76001 12.9633C3.58232 12.832 3.33149 12.8744 3.20635 13.0564L2.76338 13.7007C2.70596 13.7842 2.68323 13.8867 2.69999 13.9866C2.71674 14.0866 2.77167 14.1761 2.85317 14.2362C3.9707 15.0614 5.56089 16.2231 7.99492 17.9896C8.98486 18.7113 10.7549 20.3242 12.5 20.3125C14.2443 20.3243 16.0137 18.7123 17.005 17.9896C19.4391 16.223 21.0293 15.0613 22.1468 14.2362C22.2283 14.1761 22.2832 14.0866 22.3 13.9866C22.3167 13.8867 22.294 13.7842 22.2366 13.7007L21.7937 13.0564Z" fill="white"/>
</g>
<defs>
<clipPath id="clip0_302_19">
<rect width="25" height="25" fill="white"/>
</clipPath>
</defs>
</svg>
