<svg width="159" height="67" viewBox="0 0 159 67" fill="none" xmlns="http://www.w3.org/2000/svg">
<path d="M29.7344 21.9937L31.0459 20.6641C33.6212 18.0531 37.8138 17.9884 40.404 20.5844C41.3854 21.5702 42.0377 22.843 42.269 24.2239C42.5004 25.6049 42.2992 27.0246 41.6938 28.2837C41.4035 28.8852 41.3057 29.5635 41.4139 30.2241C41.5223 30.8847 41.8314 31.4944 42.2982 31.9682C43.1565 31.096 43.8368 30.0609 44.3004 28.922C44.7639 27.7831 45.0017 26.5628 45 25.3308C44.9981 24.0988 44.7572 22.8792 44.2904 21.7416C43.8236 20.6041 43.1403 19.5709 42.2797 18.7012C38.6578 15.0499 32.7789 15.1225 29.1672 18.7841L16.667 31.4572L15.6394 30.4153C13.0204 27.76 13.0037 23.4197 15.6689 20.8116C16.6554 19.8492 17.9123 19.2209 19.266 19.0135C20.6197 18.8062 22.0036 19.0299 23.2265 19.6538C23.7847 19.9438 24.419 20.0476 25.0389 19.9502C25.6587 19.8529 26.2323 19.5595 26.6779 19.1119L26.7097 19.0797C26.7197 19.0697 26.7275 19.0578 26.7329 19.0448C26.7383 19.0317 26.741 19.0176 26.741 19.0035C26.741 18.9893 26.7383 18.9753 26.7329 18.9622C26.7275 18.9491 26.7197 18.9372 26.7097 18.9272C24.9893 17.2267 22.6837 16.2716 20.281 16.2638C17.8782 16.2561 15.5668 17.1964 13.8357 18.8858C10.1068 22.5355 10.1201 28.6044 13.7851 32.3202L26.2816 44.9899L24.9541 46.3357C22.3788 48.9467 18.186 49.0113 15.596 46.4154C14.6146 45.4296 13.9624 44.1568 13.731 42.7759C13.4996 41.395 13.7007 39.9753 14.306 38.7161C14.5964 38.1146 14.6943 37.4362 14.586 36.7758C14.4776 36.1152 14.1685 35.5053 13.7018 35.0316C12.8435 35.9039 12.1632 36.9389 11.6996 38.0777C11.236 39.2167 10.9983 40.4369 11 41.669C11.0017 42.901 11.2429 44.1207 11.7096 45.2581C12.1764 46.3957 12.8597 47.4289 13.7204 48.2986C17.342 51.9501 23.2211 51.8776 26.8328 48.2158L39.3492 35.5258L40.3807 36.5716C42.956 39.1827 43.0198 43.4334 40.4593 46.0593C39.487 47.0545 38.2315 47.7156 36.8695 47.9503C35.5075 48.1849 34.1072 47.9809 32.8652 47.3672C32.2718 47.0726 31.6024 46.9733 30.9506 47.0834C30.2989 47.1933 29.6972 47.507 29.2299 47.9806C30.0903 48.8508 31.1111 49.5407 32.2344 50.0107C33.3578 50.4806 34.5613 50.7217 35.7766 50.72C36.9918 50.7181 38.1948 50.4736 39.3167 50.0004C40.4387 49.5272 41.4578 48.8344 42.3156 47.9618C45.9172 44.2899 45.8455 38.3294 42.234 34.6678L29.7344 21.9937ZM28.1476 43.0971L18.5336 33.3498L27.8677 23.8864L37.4818 33.6338L28.1476 43.0971Z" fill="white"/>
<path d="M53.62 27.16C53.78 27.16 53.86 27.2467 53.86 27.42V41.66C53.86 41.7933 53.8333 41.8867 53.78 41.94C53.7267 41.98 53.6333 42 53.5 42H52.24C52.12 42 52.04 41.98 52 41.94C51.96 41.9 51.94 41.8267 51.94 41.72V27.44C51.94 27.2533 52.02 27.16 52.18 27.16H53.62ZM60.4208 42C60.2341 42 60.1408 41.9133 60.1408 41.74V31.66C60.1408 31.4867 60.2141 31.4 60.3608 31.4H61.5608C61.7074 31.4 61.7808 31.4733 61.7808 31.62V32.78C61.7808 32.8467 61.7941 32.8867 61.8208 32.9C61.8474 32.9133 61.8941 32.8933 61.9608 32.84C62.4008 32.4933 62.8074 32.2 63.1808 31.96C63.5674 31.7067 63.9608 31.52 64.3608 31.4C64.7608 31.2667 65.1874 31.2 65.6408 31.2C66.6808 31.2 67.4741 31.48 68.0208 32.04C68.5808 32.6 68.8608 33.3267 68.8608 34.22V41.68C68.8608 41.8933 68.7608 42 68.5608 42H67.4408C67.3474 42 67.2808 41.98 67.2408 41.94C67.2008 41.8867 67.1808 41.82 67.1808 41.74V34.6C67.1808 33.9467 67.0141 33.44 66.6808 33.08C66.3474 32.7067 65.8208 32.52 65.1008 32.52C64.7141 32.52 64.3474 32.5867 64.0008 32.72C63.6674 32.84 63.3274 33.02 62.9808 33.26C62.6341 33.4867 62.2474 33.78 61.8208 34.14V41.7C61.8208 41.9 61.7208 42 61.5208 42H60.4208ZM77.1666 32.66C77.0599 32.66 77.0066 32.7133 77.0066 32.82V39.16C77.0066 39.7867 77.1132 40.2067 77.3266 40.42C77.5399 40.6333 77.8599 40.74 78.2866 40.74H79.6666C79.7332 40.74 79.7866 40.76 79.8266 40.8C79.8666 40.8267 79.8866 40.88 79.8866 40.96L79.8666 41.64C79.8666 41.7733 79.7866 41.86 79.6266 41.9C79.4932 41.9267 79.2999 41.9467 79.0466 41.96C78.8066 41.9733 78.5666 41.9867 78.3266 42C78.0999 42 77.9066 42 77.7466 42C76.9066 42 76.2932 41.8067 75.9066 41.42C75.5199 41.02 75.3266 40.3933 75.3266 39.54V32.86C75.3266 32.7267 75.2599 32.66 75.1266 32.66H73.5266C73.3799 32.66 73.3066 32.5867 73.3066 32.44V31.6C73.3066 31.4667 73.3732 31.4 73.5066 31.4H75.2066C75.2999 31.4 75.3466 31.3467 75.3466 31.24L75.5666 28.06C75.5799 27.8867 75.6532 27.8 75.7866 27.8H76.7866C76.9466 27.8 77.0266 27.8933 77.0266 28.08V31.24C77.0266 31.3467 77.0799 31.4 77.1866 31.4H79.7066C79.8532 31.4 79.9266 31.46 79.9266 31.58V32.44C79.9266 32.5867 79.8532 32.66 79.7066 32.66H77.1666ZM85.767 37.36C85.767 38.0133 85.9204 38.6133 86.227 39.16C86.547 39.6933 86.967 40.12 87.487 40.44C88.0204 40.76 88.6137 40.92 89.267 40.92C89.9337 40.92 90.527 40.7867 91.047 40.52C91.567 40.24 92.0137 39.82 92.387 39.26C92.4404 39.2067 92.4804 39.18 92.507 39.18C92.547 39.1667 92.6004 39.1733 92.667 39.2L93.507 39.62C93.627 39.6867 93.6404 39.78 93.547 39.9C93.187 40.4333 92.787 40.8733 92.347 41.22C91.9204 41.5533 91.4404 41.8 90.907 41.96C90.3737 42.12 89.7737 42.2 89.107 42.2C88.1204 42.2 87.247 41.9733 86.487 41.52C85.727 41.0667 85.127 40.4333 84.687 39.62C84.247 38.8067 84.027 37.8667 84.027 36.8C84.027 35.64 84.247 34.6467 84.687 33.82C85.1404 32.98 85.747 32.3333 86.507 31.88C87.2804 31.4267 88.1404 31.2 89.087 31.2C90.0604 31.2 90.907 31.4133 91.627 31.84C92.347 32.2667 92.907 32.8867 93.307 33.7C93.707 34.5133 93.907 35.4933 93.907 36.64C93.907 36.7333 93.8937 36.8267 93.867 36.92C93.8537 37.0133 93.767 37.06 93.607 37.06H85.947C85.8937 37.06 85.847 37.0933 85.807 37.16C85.7804 37.2133 85.767 37.28 85.767 37.36ZM91.887 35.96C92.0337 35.96 92.127 35.9467 92.167 35.92C92.207 35.88 92.227 35.8 92.227 35.68C92.227 35.1067 92.1004 34.5733 91.847 34.08C91.607 33.5733 91.2537 33.1667 90.787 32.86C90.3337 32.5533 89.7804 32.4 89.127 32.4C88.407 32.4 87.8004 32.5733 87.307 32.92C86.8137 33.2533 86.4404 33.6933 86.187 34.24C85.9337 34.7867 85.807 35.36 85.807 35.96H91.887ZM99.3481 42C99.2548 42 99.1815 41.98 99.1281 41.94C99.0881 41.8867 99.0681 41.82 99.0681 41.74V31.66C99.0681 31.4867 99.1415 31.4 99.2881 31.4H100.448C100.595 31.4 100.668 31.4733 100.668 31.62V32.92C100.668 33 100.688 33.0467 100.728 33.06C100.768 33.0733 100.821 33.0467 100.888 32.98C101.235 32.5667 101.575 32.2333 101.908 31.98C102.255 31.7133 102.601 31.52 102.948 31.4C103.295 31.2667 103.641 31.2 103.988 31.2C104.455 31.2 104.688 31.2867 104.688 31.46V32.66C104.688 32.7933 104.628 32.8467 104.508 32.82C104.388 32.8067 104.248 32.7933 104.088 32.78C103.941 32.7667 103.781 32.76 103.608 32.76C103.315 32.76 103.001 32.8267 102.668 32.96C102.335 33.08 102.021 33.2533 101.728 33.48C101.448 33.7067 101.215 33.96 101.028 34.24C100.841 34.52 100.748 34.8 100.748 35.08V41.7C100.748 41.9 100.648 42 100.448 42H99.3481ZM109.804 42C109.618 42 109.524 41.9133 109.524 41.74V31.66C109.524 31.4867 109.598 31.4 109.744 31.4H110.944C111.091 31.4 111.164 31.4733 111.164 31.62V32.78C111.164 32.8467 111.178 32.8867 111.204 32.9C111.231 32.9133 111.278 32.8933 111.344 32.84C111.784 32.4933 112.191 32.2 112.564 31.96C112.951 31.7067 113.344 31.52 113.744 31.4C114.144 31.2667 114.571 31.2 115.024 31.2C116.064 31.2 116.858 31.48 117.404 32.04C117.964 32.6 118.244 33.3267 118.244 34.22V41.68C118.244 41.8933 118.144 42 117.944 42H116.824C116.731 42 116.664 41.98 116.624 41.94C116.584 41.8867 116.564 41.82 116.564 41.74V34.6C116.564 33.9467 116.398 33.44 116.064 33.08C115.731 32.7067 115.204 32.52 114.484 32.52C114.098 32.52 113.731 32.5867 113.384 32.72C113.051 32.84 112.711 33.02 112.364 33.26C112.018 33.4867 111.631 33.78 111.204 34.14V41.7C111.204 41.9 111.104 42 110.904 42H109.804ZM127.604 40.88C128.177 40.88 128.724 40.7267 129.244 40.42C129.777 40.1 130.304 39.6733 130.824 39.14V31.7C130.824 31.5 130.931 31.4 131.144 31.4H132.244C132.431 31.4 132.524 31.4933 132.524 31.68L132.484 41.74C132.484 41.9133 132.411 42 132.264 42H131.104C130.957 42 130.884 41.9267 130.884 41.78V40.6C130.884 40.5333 130.871 40.4933 130.844 40.48C130.817 40.4667 130.771 40.4867 130.704 40.54C129.971 41.1667 129.317 41.6 128.744 41.84C128.184 42.08 127.624 42.2 127.064 42.2C126.451 42.2 125.904 42.0733 125.424 41.82C124.944 41.5667 124.564 41.2133 124.284 40.76C124.004 40.2933 123.864 39.7533 123.864 39.14V31.72C123.864 31.5067 123.964 31.4 124.164 31.4H125.284C125.457 31.4 125.544 31.4933 125.544 31.68V38.7C125.544 39.3533 125.724 39.88 126.084 40.28C126.457 40.68 126.964 40.88 127.604 40.88ZM144.746 33.74C144.479 33.34 144.106 33.0133 143.626 32.76C143.146 32.5067 142.573 32.38 141.906 32.38C141.186 32.38 140.586 32.5333 140.106 32.84C139.639 33.1467 139.406 33.56 139.406 34.08C139.406 34.36 139.513 34.6267 139.726 34.88C139.939 35.12 140.373 35.3467 141.026 35.56L143.566 36.32C144.486 36.5733 145.146 36.94 145.546 37.42C145.959 37.9 146.166 38.4533 146.166 39.08C146.166 39.7067 145.979 40.2533 145.606 40.72C145.233 41.1867 144.719 41.5533 144.066 41.82C143.413 42.0733 142.673 42.2 141.846 42.2C140.793 42.2 139.873 41.9933 139.086 41.58C138.299 41.1533 137.739 40.6267 137.406 40C137.366 39.9333 137.346 39.8733 137.346 39.82C137.346 39.7667 137.379 39.72 137.446 39.68L138.226 39.24C138.293 39.2 138.353 39.1867 138.406 39.2C138.459 39.2 138.499 39.22 138.526 39.26C138.753 39.6067 139.013 39.9067 139.306 40.16C139.613 40.4133 139.973 40.6133 140.386 40.76C140.813 40.9067 141.306 40.98 141.866 40.98C142.373 40.9667 142.833 40.8933 143.246 40.76C143.659 40.6267 143.986 40.4333 144.226 40.18C144.466 39.9133 144.586 39.6067 144.586 39.26C144.586 38.9 144.439 38.5933 144.146 38.34C143.853 38.0733 143.346 37.84 142.626 37.64L140.566 37.06C139.566 36.7933 138.859 36.4333 138.446 35.98C138.046 35.5267 137.839 34.9933 137.826 34.38C137.826 33.74 137.999 33.1867 138.346 32.72C138.693 32.24 139.173 31.8667 139.786 31.6C140.413 31.3333 141.126 31.2 141.926 31.2C142.819 31.2 143.613 31.3733 144.306 31.72C145.013 32.0533 145.546 32.5 145.906 33.06C145.946 33.1133 145.966 33.1667 145.966 33.22C145.966 33.26 145.939 33.3 145.886 33.34L145.046 33.8C144.993 33.8267 144.939 33.84 144.886 33.84C144.846 33.8267 144.799 33.7933 144.746 33.74Z" fill="white"/>
</svg>
