<svg width="85" height="41" viewBox="0 0 85 41" fill="none" xmlns="http://www.w3.org/2000/svg">
<path d="M14.1711 33.205C17.83 33.1981 21.3364 31.7389 23.92 29.1482C24.0777 28.9866 24.1655 28.7693 24.1641 28.5435C24.1628 28.3176 24.0724 28.1015 23.9127 27.9418C23.753 27.782 23.5369 27.6917 23.3109 27.6903C23.0851 27.6889 22.8678 27.7767 22.7062 27.9344C20.4415 30.2043 17.3683 31.4825 14.1619 31.4881C12.5873 31.5088 11.0246 31.214 9.56576 30.621C8.10709 30.0279 6.78188 29.1487 5.66843 28.0353C4.55497 26.9218 3.67579 25.5966 3.08273 24.1379C2.48976 22.6792 2.19492 21.1164 2.21562 19.5419C2.22503 16.336 3.50276 13.2641 5.76968 10.9972C8.03666 8.73022 11.1085 7.45249 14.3145 7.44305C15.8783 7.42395 17.4304 7.71549 18.8808 8.30076C20.3311 8.88604 21.6509 9.75339 22.7635 10.8526C22.9922 11.0961 23.1168 11.4193 23.1106 11.7534C23.1044 12.0874 22.9679 12.4058 22.7303 12.6406C22.4927 12.8756 22.1727 13.0083 21.8386 13.0106C21.5045 13.0129 21.1827 12.8846 20.9419 12.6531C20.92 12.6313 20.8969 12.6106 20.8728 12.5913C19.1361 10.9629 16.8372 10.069 14.4567 10.0965C11.9634 10.1047 9.57457 11.0989 7.81153 12.8619C6.04846 14.625 5.05438 17.0138 5.04609 19.5071C5.03128 20.7359 5.26241 21.9552 5.72586 23.0934C6.18931 24.2315 6.87576 25.2655 7.74467 26.1344C8.61359 27.0033 9.64759 27.6898 10.7857 28.1533C11.9238 28.6166 13.1432 28.8478 14.372 28.833C16.8659 28.828 19.2559 27.8333 21.0169 26.0673C21.2972 25.7921 21.5203 25.464 21.6732 25.1021C21.8259 24.7402 21.9056 24.3516 21.9073 23.9587C21.9091 23.5659 21.8331 23.1766 21.6836 22.8133C21.5341 22.45 21.3141 22.1199 21.0363 21.8421C20.7585 21.5643 20.4284 21.3443 20.0651 21.1948C19.7019 21.0453 19.3126 20.9693 18.9197 20.9711C18.5268 20.9728 18.1382 21.0525 17.7763 21.2052C17.4144 21.3581 17.0863 21.5812 16.8111 21.8615C16.7934 21.8792 16.7779 21.897 16.7623 21.9154C16.7439 21.931 16.7257 21.9469 16.7084 21.9642C16.2281 22.4525 15.6135 22.787 14.9427 22.9254C14.2719 23.0639 13.5752 22.9998 12.9408 22.7417C12.3065 22.4834 11.7631 22.0425 11.3797 21.4751C10.9963 20.9075 10.79 20.2389 10.7872 19.554C10.7844 18.8691 10.9851 18.1988 11.3639 17.6282C11.7427 17.0575 12.2824 16.6122 12.9146 16.3488C13.5469 16.0854 14.2431 16.0157 14.915 16.1486C15.5869 16.2816 16.2042 16.6111 16.6885 17.0954C16.7678 17.1767 16.8625 17.2414 16.967 17.2858C17.0716 17.3302 17.1839 17.3534 17.2975 17.3541C17.411 17.3548 17.5237 17.333 17.6287 17.2898C17.7339 17.2466 17.8293 17.1831 17.9096 17.1027C17.99 17.0224 18.0535 16.927 18.0967 16.8219C18.1399 16.7168 18.1617 16.6042 18.161 16.4906C18.1603 16.377 18.1371 16.2647 18.0927 16.1602C18.0483 16.0556 17.9835 15.9609 17.9022 15.8816C17.1795 15.1668 16.2613 14.6822 15.2634 14.4887C14.2656 14.2952 13.2327 14.4017 12.2953 14.7946C11.3578 15.1874 10.5577 15.8492 9.99595 16.6963C9.43417 17.5434 9.13593 18.5379 9.13871 19.5544C9.14157 20.5708 9.44539 21.5636 10.0119 22.4077C10.5783 23.2515 11.3821 23.9089 12.3217 24.2965C13.2613 24.6842 14.2947 24.785 15.2915 24.5859C16.2883 24.3869 17.2038 23.8971 17.9225 23.1784C17.9402 23.1607 17.9557 23.1429 17.9713 23.1244C17.9897 23.1089 18.0079 23.093 18.0253 23.0756C18.1411 22.955 18.2799 22.8587 18.4335 22.7924C18.587 22.7261 18.7524 22.6911 18.9195 22.6894C19.0868 22.6877 19.2528 22.7194 19.4076 22.7827C19.5624 22.8459 19.7032 22.9395 19.8214 23.0577C19.9396 23.176 20.0332 23.3167 20.0964 23.4715C20.1597 23.6263 20.1914 23.7923 20.1897 23.9596C20.188 24.1267 20.153 24.2921 20.0867 24.4456C20.0204 24.5992 19.9241 24.738 19.8035 24.8539C18.3613 26.2992 16.4044 27.1131 14.3626 27.1166C13.3609 27.1302 12.3666 26.9428 11.4385 26.5657C10.5103 26.1885 9.66716 25.6292 8.95873 24.9207C8.25038 24.2124 7.69103 23.3693 7.31391 22.4411C6.9368 21.5129 6.74939 20.5187 6.76293 19.5169C6.76873 17.4756 7.58226 15.5195 9.0257 14.0761C10.4691 12.6326 12.4252 11.8191 14.4665 11.8133C15.468 11.8008 16.4619 11.9886 17.3899 12.3656C18.3178 12.7426 19.161 13.3013 19.87 14.0088C19.9246 14.0631 19.9863 14.1098 20.0535 14.1476C20.6494 14.5851 21.3858 14.787 22.1214 14.7149C22.8571 14.6427 23.5402 14.3014 24.0398 13.7566C24.5393 13.2117 24.82 12.5015 24.8281 11.7624C24.8362 11.0232 24.5712 10.3071 24.0838 9.75142C24.0643 9.72726 24.0436 9.70408 24.0217 9.68207C24.0094 9.66985 23.9973 9.65772 23.9851 9.64549C23.9791 9.63947 23.9732 9.63363 23.9674 9.62778C23.9615 9.62193 23.9548 9.61662 23.9488 9.61095C22.6772 8.35917 21.1703 7.37149 19.5152 6.70484C17.86 6.03818 16.0892 5.70577 14.305 5.72674C10.6472 5.73868 7.14257 7.19703 4.55604 9.78356C1.96958 12.37 0.511271 15.8746 0.499315 19.5324C0.477324 21.334 0.815881 23.1218 1.49527 24.7905C2.17457 26.4592 3.18082 27.9753 4.45482 29.2493C5.72884 30.5233 7.24481 31.5295 8.91365 32.2089C10.5823 32.8882 12.3701 33.2267 14.1717 33.2048L14.1711 33.205Z" fill="#9483FF"/>
<path d="M29.7099 23.7188C29.7099 22.1562 30.456 21.0234 31.9482 20.3203C33.4404 19.6172 35.1435 19.2422 37.0576 19.1953V18.7266C37.0576 18.0078 36.8779 17.5 36.5185 17.2031C36.1591 16.9062 35.6591 16.7578 35.0185 16.7578C34.5654 16.7578 34.1631 16.8242 33.8115 16.957C33.4677 17.082 33.167 17.2305 32.9091 17.4023C32.6591 17.5664 32.4326 17.7344 32.2295 17.9062C31.8701 18.2188 31.5732 18.2344 31.3388 17.9531L30.3662 16.7578C30.124 16.4609 30.1826 16.1562 30.542 15.8438C30.8154 15.6016 31.1318 15.3906 31.4912 15.2109C31.8584 15.0312 32.3427 14.8633 32.9443 14.707C33.5459 14.543 34.3271 14.4609 35.2881 14.4609C36.9131 14.4609 38.1591 14.8359 39.0263 15.5859C39.9013 16.3359 40.3388 17.4414 40.3388 18.9023V26.2969C40.3388 26.7656 40.1045 27 39.6357 27H37.7138C37.292 27 37.081 26.7656 37.081 26.2969V25.9453H37.0576C36.5966 26.3906 36.042 26.7188 35.3935 26.9297C34.7529 27.1328 34.1631 27.2344 33.624 27.2344C32.3427 27.2344 31.3701 26.9219 30.706 26.2969C30.042 25.6641 29.7099 24.8047 29.7099 23.7188ZM33.1787 23.6484C33.1787 23.9219 33.2334 24.1602 33.3427 24.3633C33.4521 24.5586 33.624 24.7031 33.8584 24.7969C34.0927 24.8906 34.3545 24.9375 34.6435 24.9375C35.042 24.9375 35.4287 24.8828 35.8037 24.7734C36.1787 24.6641 36.5966 24.4062 37.0576 24V21.457C35.7451 21.6055 34.8662 21.7969 34.4209 22.0312C33.9756 22.2656 33.6552 22.5078 33.4599 22.7578C33.2724 23.0078 33.1787 23.3047 33.1787 23.6484ZM44.2412 31.6875C43.7724 31.6875 43.5381 31.4531 43.5381 30.9844V15.3984C43.5381 14.9297 43.7724 14.6953 44.2412 14.6953H46.0927C46.4834 14.6953 46.6943 14.9297 46.7256 15.3984L46.7724 16.0781H46.8193C47.2256 15.4062 47.6787 14.9688 48.1787 14.7656C48.6787 14.5625 49.2802 14.4609 49.9834 14.4609C51.8193 14.4609 53.1084 15.0977 53.8506 16.3711C54.6006 17.6367 54.9756 19.1289 54.9756 20.8477C54.9756 22.5664 54.6006 24.0625 53.8506 25.3359C53.1084 26.6016 51.8193 27.2344 49.9834 27.2344C49.2802 27.2344 48.6787 27.1328 48.1787 26.9297C47.6787 26.7266 47.2256 26.2891 46.8193 25.6172H46.7724C46.8037 25.9297 46.8193 26.2422 46.8193 26.5547V30.9844C46.8193 31.4531 46.5849 31.6875 46.1162 31.6875H44.2412ZM46.8193 21.375C46.8193 22.4297 47.0263 23.2891 47.4404 23.9531C47.8623 24.6094 48.3662 24.9375 48.9521 24.9375C50.0068 24.9375 50.6943 24.5703 51.0146 23.8359C51.3427 23.0938 51.5068 22.0977 51.5068 20.8477C51.5068 19.5977 51.3427 18.6055 51.0146 17.8711C50.6943 17.1289 50.0068 16.7578 48.9521 16.7578C48.3662 16.7578 47.8623 17.0898 47.4404 17.7539C47.0263 18.4102 46.8193 19.2656 46.8193 20.3203V21.375ZM58.2099 31.6875C57.7412 31.6875 57.5068 31.4531 57.5068 30.9844V15.3984C57.5068 14.9297 57.7412 14.6953 58.2099 14.6953H60.0615C60.4521 14.6953 60.6631 14.9297 60.6943 15.3984L60.7412 16.0781H60.7881C61.1943 15.4062 61.6474 14.9688 62.1474 14.7656C62.6474 14.5625 63.249 14.4609 63.9521 14.4609C65.7881 14.4609 67.0771 15.0977 67.8193 16.3711C68.5693 17.6367 68.9443 19.1289 68.9443 20.8477C68.9443 22.5664 68.5693 24.0625 67.8193 25.3359C67.0771 26.6016 65.7881 27.2344 63.9521 27.2344C63.249 27.2344 62.6474 27.1328 62.1474 26.9297C61.6474 26.7266 61.1943 26.2891 60.7881 25.6172H60.7412C60.7724 25.9297 60.7881 26.2422 60.7881 26.5547V30.9844C60.7881 31.4531 60.5537 31.6875 60.0849 31.6875H58.2099ZM60.7881 21.375C60.7881 22.4297 60.9951 23.2891 61.4091 23.9531C61.831 24.6094 62.3349 24.9375 62.9209 24.9375C63.9756 24.9375 64.6631 24.5703 64.9834 23.8359C65.3115 23.0938 65.4756 22.0977 65.4756 20.8477C65.4756 19.5977 65.3115 18.6055 64.9834 17.8711C64.6631 17.1289 63.9756 16.7578 62.9209 16.7578C62.3349 16.7578 61.831 17.0898 61.4091 17.7539C60.9951 18.4102 60.7881 19.2656 60.7881 20.3203V21.375ZM71.2295 26.1797C70.8466 25.9062 70.7412 25.6133 70.9131 25.3008L71.5107 24.2109C71.7216 23.8203 72.0498 23.7734 72.4951 24.0703C72.9404 24.3672 73.4638 24.5859 74.0654 24.7266C74.6748 24.8672 75.2295 24.9375 75.7295 24.9375C76.081 24.9375 76.4091 24.9023 76.7138 24.832C77.0185 24.7617 77.2763 24.625 77.4873 24.4219C77.6982 24.2188 77.8037 23.9219 77.8037 23.5312C77.8037 23.2969 77.7412 23.0977 77.6162 22.9336C77.4912 22.7695 77.331 22.6445 77.1357 22.5586C76.9404 22.4727 76.7334 22.4023 76.5146 22.3477C76.2256 22.2773 75.8076 22.1602 75.2607 21.9961C74.7216 21.832 74.2021 21.6406 73.7021 21.4219C73.2881 21.2422 72.8818 20.9922 72.4834 20.6719C72.0927 20.3438 71.8037 19.9805 71.6162 19.582C71.4365 19.1836 71.3466 18.6914 71.3466 18.1055C71.3466 17.3164 71.5732 16.625 72.0263 16.0312C72.4873 15.4375 73.081 15.0273 73.8076 14.8008C74.5341 14.5742 75.4404 14.4609 76.5263 14.4609C77.2607 14.4609 77.9756 14.5664 78.6709 14.7773C79.3662 14.9883 79.8623 15.1875 80.1591 15.375C80.6279 15.6719 80.7451 15.9883 80.5107 16.3242L79.7959 17.3672C79.5771 17.6797 79.2256 17.7031 78.7412 17.4375C78.374 17.2344 78.0107 17.0703 77.6513 16.9453C77.2998 16.8203 76.9052 16.7578 76.4677 16.7578C76.1709 16.7578 75.8857 16.7891 75.6123 16.8516C75.3388 16.9141 75.1045 17.0312 74.9091 17.2031C74.7216 17.375 74.6279 17.6016 74.6279 17.8828C74.6279 18.1797 74.7138 18.4141 74.8857 18.5859C75.0654 18.75 75.2685 18.8711 75.4951 18.9492C75.7295 19.0273 75.9521 19.1016 76.1631 19.1719C76.6006 19.3125 77.042 19.4492 77.4873 19.582C77.9326 19.707 78.3857 19.8594 78.8466 20.0391C79.2451 20.1953 79.6318 20.418 80.0068 20.707C80.3818 20.9961 80.6552 21.3633 80.8271 21.8086C80.999 22.2539 81.0849 22.7617 81.0849 23.332C81.0849 24.0898 80.8584 24.793 80.4052 25.4414C79.9521 26.0898 79.3545 26.5508 78.6123 26.8242C77.8701 27.0977 77.0068 27.2344 76.0224 27.2344C74.9209 27.2344 73.9834 27.1562 73.2099 27C72.4365 26.8438 71.7763 26.5703 71.2295 26.1797Z" fill="white"/>
</svg>
