<svg width="159" height="67" viewBox="0 0 159 67" fill="none" xmlns="http://www.w3.org/2000/svg">
<path fill-rule="evenodd" clip-rule="evenodd" d="M32.3365 20.1876C31.7353 20.2202 31.1632 20.4572 30.715 20.8593L30.1836 21.3908C30.0054 21.5689 29.7638 21.6689 29.5119 21.6689C29.2599 21.6689 29.0183 21.5689 28.8401 21.3908L23.2153 15.7648C23.0378 15.5861 22.9382 15.3444 22.9382 15.0925C22.9382 14.8406 23.0378 14.5989 23.2153 14.4203L25.3566 12.2782C25.5354 12.1011 25.7768 12.0018 26.0284 12.0018C26.2799 12.0018 26.5213 12.1011 26.7001 12.2782L30.715 16.2946C31.1632 16.6967 31.7353 16.9337 32.3365 16.9663H39.8296C40.4306 16.9331 41.0024 16.6962 41.4509 16.2946L45.4658 12.2782C45.644 12.1001 45.8856 12 46.1375 12C46.3895 12 46.6311 12.1001 46.8093 12.2782L48.9506 14.4178C49.128 14.5965 49.2277 14.8382 49.2277 15.0901C49.2277 15.342 49.128 15.5838 48.9506 15.7624L43.3245 21.3909C43.2363 21.4791 43.1317 21.5491 43.0165 21.5969C42.9015 21.6446 42.778 21.6692 42.6533 21.6692C42.5287 21.6692 42.4053 21.6446 42.2901 21.5969C42.175 21.5491 42.0703 21.4791 41.9823 21.3909L41.4507 20.8593C41.0022 20.4577 40.4305 20.2208 39.8294 20.1876H32.3365ZM25.1853 34.6468C25.2179 35.248 25.4544 35.8201 25.8559 36.2688L26.3862 36.7991C26.5641 36.9774 26.6639 37.2188 26.6639 37.4707C26.6639 37.7225 26.5641 37.9639 26.3862 38.1423L20.7609 43.7708C20.5825 43.9485 20.341 44.0483 20.0893 44.0483C19.8375 44.0483 19.596 43.9485 19.4176 43.7708L17.2763 41.6288C17.0993 41.4501 17 41.2087 17 40.9571C17 40.7057 17.0993 40.4642 17.2763 40.2855L21.2912 36.2676C21.6935 35.8198 21.9305 35.2478 21.9625 34.6466V27.1494C21.9304 26.5479 21.6935 25.9755 21.2912 25.5273L17.2763 21.5109C17.0993 21.3322 17 21.0909 17 20.8393C17 20.5877 17.0993 20.3463 17.2763 20.1677L19.4176 18.0256C19.596 17.8479 19.8375 17.7481 20.0893 17.7481C20.341 17.7481 20.5825 17.8479 20.7609 18.0256L26.3862 23.6537C26.5641 23.8319 26.664 24.0735 26.664 24.3253C26.664 24.5772 26.5641 24.8187 26.3862 24.997L25.8559 25.5275C25.4544 25.9761 25.2178 26.5483 25.1853 27.1496V34.6468ZM39.6943 41.6666C40.2954 41.6334 40.8671 41.3965 41.3155 40.9949L41.8465 40.4626C42.0251 40.2855 42.2665 40.1862 42.5179 40.1862C42.7693 40.1862 43.0105 40.2855 43.1891 40.4626L48.8178 46.0911C48.9955 46.2699 49.0951 46.5116 49.0951 46.7636C49.0951 47.0155 48.9955 47.2573 48.8178 47.4359L46.6765 49.578C46.498 49.7551 46.2566 49.8544 46.0051 49.8544C45.7536 49.8544 45.5123 49.7551 45.3336 49.578L41.3178 45.5596C40.8694 45.158 40.2977 44.9212 39.6967 44.8882H32.2022C31.601 44.9214 31.029 45.1582 30.5802 45.5596L26.5662 49.578C26.3874 49.7551 26.146 49.8544 25.8943 49.8544C25.6427 49.8544 25.4013 49.7551 25.2225 49.578L23.0812 47.4359C22.9037 47.2573 22.804 47.0155 22.804 46.7636C22.804 46.5116 22.9037 46.2699 23.0812 46.0911L28.7059 40.463C28.8849 40.2858 29.1264 40.1865 29.3781 40.1865C29.6298 40.1865 29.8714 40.2858 30.0504 40.463L30.5795 40.9949C31.0284 41.3966 31.6006 41.6334 32.202 41.6666H39.6943ZM46.1748 25.5852C46.5773 26.0343 46.8146 26.6074 46.8472 27.2096V34.704C46.8144 35.3059 46.5771 35.8786 46.1748 36.3271L45.6443 36.8589C45.467 37.0374 45.3675 37.2788 45.3675 37.5306C45.3675 37.7822 45.467 38.0236 45.6443 38.2022L51.2712 43.8296C51.4496 44.0073 51.6912 44.1069 51.9428 44.1069C52.1945 44.1069 52.4359 44.0073 52.6143 43.8296L54.7556 41.6864C54.9333 41.508 55.0331 41.2664 55.0331 41.0146C55.0331 40.7629 54.9333 40.5213 54.7556 40.3429L50.7416 36.3264C50.3391 35.8779 50.1016 35.3052 50.0688 34.7033L50.0699 27.2089C50.1022 26.6067 50.3391 26.0336 50.7416 25.5845L54.7556 21.5681C54.9333 21.3901 55.0331 21.1488 55.0331 20.8972C55.0331 20.6456 54.9333 20.4043 54.7556 20.2263L52.6143 18.083C52.5261 17.9947 52.4215 17.9247 52.3063 17.877C52.191 17.8292 52.0676 17.8047 51.9428 17.8047C51.8181 17.8047 51.6946 17.8292 51.5794 17.877C51.464 17.9247 51.3594 17.9947 51.2712 18.083L45.6443 23.7102C45.467 23.8887 45.3675 24.1302 45.3675 24.3819C45.3675 24.6336 45.467 24.8751 45.6443 25.0536L46.1748 25.5852Z" fill="white"/>
<path d="M68.144 44.512C66.4373 44.512 65.0613 43.968 64.016 42.88C62.9813 41.792 62.464 40.3627 62.464 38.592V25.408C62.464 23.6267 62.9813 22.1973 64.016 21.12C65.0613 20.032 66.4373 19.488 68.144 19.488C69.8613 19.488 71.2373 20.032 72.272 21.12C73.3067 22.1973 73.824 23.6267 73.824 25.408V38.592C73.824 40.3627 73.3067 41.792 72.272 42.88C71.2373 43.968 69.8613 44.512 68.144 44.512ZM68.144 42.112C69.136 42.112 69.9307 41.792 70.528 41.152C71.1253 40.5013 71.424 39.648 71.424 38.592V25.408C71.424 24.352 71.1253 23.504 70.528 22.864C69.9307 22.2133 69.136 21.888 68.144 21.888C67.152 21.888 66.3573 22.2133 65.76 22.864C65.1627 23.504 64.864 24.352 64.864 25.408V38.592C64.864 39.648 65.1627 40.5013 65.76 41.152C66.3573 41.792 67.152 42.112 68.144 42.112ZM78.5533 36.496V34.096H87.6733V36.496H78.5533ZM103.762 37.792V38.592C103.762 40.3627 103.244 41.792 102.21 42.88C101.175 43.968 99.7988 44.512 98.0815 44.512C96.3748 44.512 94.9988 43.968 93.9535 42.88C92.9188 41.792 92.4015 40.3627 92.4015 38.592V25.408C92.4015 23.6267 92.9188 22.1973 93.9535 21.12C94.9988 20.032 96.3748 19.488 98.0815 19.488C99.7988 19.488 101.175 20.032 102.21 21.12C103.244 22.1973 103.762 23.6267 103.762 25.408V26.208H101.362V25.408C101.362 24.352 101.063 23.504 100.466 22.864C99.8682 22.2133 99.0735 21.888 98.0815 21.888C97.0895 21.888 96.2948 22.2133 95.6975 22.864C95.1002 23.504 94.8015 24.352 94.8015 25.408V38.592C94.8015 39.648 95.1002 40.5013 95.6975 41.152C96.2948 41.792 97.0895 42.112 98.0815 42.112C99.0735 42.112 99.8682 41.792 100.466 41.152C101.063 40.5013 101.362 39.648 101.362 38.592V37.792H103.762ZM107.491 44V20H109.811V28.912L109.427 28.416C109.821 27.7227 110.349 27.184 111.011 26.8C111.683 26.416 112.472 26.224 113.379 26.224C114.296 26.224 115.117 26.432 115.843 26.848C116.579 27.2533 117.155 27.8507 117.571 28.64C117.997 29.4293 118.211 30.3947 118.211 31.536V44H115.891V31.776C115.891 30.7947 115.613 30.0107 115.059 29.424C114.515 28.8373 113.789 28.544 112.883 28.544C111.955 28.544 111.208 28.8373 110.643 29.424C110.088 30.0107 109.811 30.7947 109.811 31.776V44H107.491ZM122.553 44V26.64H124.873V44H122.553ZM122.553 24.704V20.96H124.873V24.704H122.553ZM129.428 49.76V26.64H131.748V28.896L131.364 28.368C131.748 27.7067 132.266 27.1893 132.916 26.816C133.578 26.432 134.367 26.24 135.284 26.24C136.234 26.24 137.087 26.4533 137.844 26.88C138.612 27.3067 139.22 27.936 139.668 28.768C140.116 29.5893 140.34 30.5973 140.34 31.792V38.816C140.34 40.0213 140.116 41.04 139.668 41.872C139.22 42.704 138.612 43.3333 137.844 43.76C137.087 44.176 136.234 44.384 135.284 44.384C134.367 44.384 133.578 44.1973 132.916 43.824C132.266 43.4507 131.748 42.928 131.364 42.256L131.748 41.744V49.76H129.428ZM134.852 42.064C135.844 42.064 136.618 41.7653 137.172 41.168C137.738 40.5707 138.02 39.7867 138.02 38.816V31.792C138.02 30.8213 137.738 30.0427 137.172 29.456C136.618 28.8587 135.85 28.56 134.868 28.56C133.876 28.56 133.108 28.8587 132.564 29.456C132.02 30.0427 131.748 30.8213 131.748 31.792V38.832C131.748 39.8027 132.02 40.5867 132.564 41.184C133.108 41.7707 133.871 42.064 134.852 42.064Z" fill="white"/>
</svg>
