<svg width="39" height="39" viewBox="0 0 39 39" fill="none" xmlns="http://www.w3.org/2000/svg">
<circle cx="19.5" cy="19.5" r="19" fill="white" stroke="#624DE7"/>
<path d="M16.1337 26.0002H13.2313V16.6533H16.1337V26.0002ZM14.6809 15.3783C13.7528 15.3783 13 14.6096 13 13.6814C13 13.2356 13.1771 12.8081 13.4923 12.4928C13.8076 12.1776 14.2351 12.0005 14.6809 12.0005C15.1267 12.0005 15.5543 12.1776 15.8695 12.4928C16.1848 12.8081 16.3619 13.2356 16.3619 13.6814C16.3619 14.6096 15.6088 15.3783 14.6809 15.3783ZM26.9969 26.0002H24.1006V21.4502C24.1006 20.3658 24.0787 18.9752 22.5916 18.9752C21.0825 18.9752 20.8513 20.1533 20.8513 21.3721V26.0002H17.9519V16.6533H20.7356V17.9283H20.7762C21.1637 17.1939 22.1103 16.4189 23.5225 16.4189C26.46 16.4189 27 18.3533 27 20.8658V26.0002H26.9969Z" fill="#624DE7"/>
</svg>
