<svg width="85" height="41" viewBox="0 0 85 41" fill="none" xmlns="http://www.w3.org/2000/svg">
<path d="M14.3985 33.205C18.0574 33.1981 21.5638 31.7389 24.1474 29.1482C24.3051 28.9866 24.3929 28.7693 24.3915 28.5435C24.3902 28.3176 24.2998 28.1015 24.1402 27.9418C23.9804 27.782 23.7643 27.6917 23.5383 27.6903C23.3125 27.6889 23.0953 27.7767 22.9336 27.9344C20.6689 30.2043 17.5957 31.4825 14.3893 31.4881C12.8148 31.5088 11.252 31.214 9.79317 30.621C8.3345 30.0279 7.0093 29.1487 5.89585 28.0353C4.78239 26.9218 3.90321 25.5966 3.31015 24.1379C2.71718 22.6792 2.42233 21.1164 2.44304 19.5419C2.45245 16.336 3.73018 13.2641 5.9971 10.9972C8.26407 8.73022 11.336 7.45249 14.5419 7.44305C16.1057 7.42395 17.6579 7.71549 19.1082 8.30076C20.5586 8.88604 21.8783 9.75339 22.9909 10.8526C23.2196 11.0961 23.3442 11.4193 23.338 11.7534C23.3318 12.0874 23.1953 12.4058 22.9577 12.6406C22.7201 12.8756 22.4001 13.0083 22.066 13.0106C21.732 13.0129 21.4102 12.8846 21.1693 12.6531C21.1474 12.6313 21.1243 12.6106 21.1002 12.5913C19.3635 10.9629 17.0646 10.069 14.6841 10.0965C12.1908 10.1047 9.80199 11.0989 8.03895 12.8619C6.27588 14.625 5.2818 17.0138 5.2735 19.5071C5.2587 20.7359 5.48982 21.9552 5.95328 23.0934C6.41672 24.2315 7.10318 25.2655 7.97209 26.1344C8.84101 27.0033 9.87501 27.6898 11.0132 28.1533C12.1512 28.6166 13.3706 28.8478 14.5994 28.833C17.0934 28.828 19.4833 27.8333 21.2443 26.0673C21.5246 25.7921 21.7477 25.464 21.9006 25.1021C22.0533 24.7402 22.133 24.3516 22.1348 23.9587C22.1365 23.5659 22.0605 23.1766 21.911 22.8133C21.7615 22.45 21.5415 22.1199 21.2637 21.8421C20.9859 21.5643 20.6559 21.3443 20.2926 21.1948C19.9293 21.0453 19.54 20.9693 19.1471 20.9711C18.7542 20.9728 18.3656 21.0525 18.0037 21.2052C17.6418 21.3581 17.3137 21.5812 17.0385 21.8615C17.0208 21.8792 17.0053 21.897 16.9897 21.9154C16.9713 21.931 16.9532 21.9469 16.9358 21.9642C16.4555 22.4525 15.841 22.787 15.1701 22.9254C14.4994 23.0639 13.8026 22.9998 13.1682 22.7417C12.5339 22.4834 11.9905 22.0425 11.6071 21.4751C11.2237 20.9075 11.0174 20.2389 11.0147 19.554C11.0119 18.8691 11.2125 18.1988 11.5913 17.6282C11.9701 17.0575 12.5098 16.6122 13.142 16.3488C13.7743 16.0854 14.4705 16.0157 15.1424 16.1486C15.8143 16.2816 16.4316 16.6111 16.9159 17.0954C16.9952 17.1767 17.0899 17.2414 17.1945 17.2858C17.299 17.3302 17.4113 17.3534 17.5249 17.3541C17.6385 17.3548 17.7511 17.333 17.8562 17.2898C17.9613 17.2466 18.0567 17.1831 18.1371 17.1027C18.2174 17.0224 18.281 16.927 18.3241 16.8219C18.3673 16.7168 18.3891 16.6042 18.3884 16.4906C18.3877 16.377 18.3645 16.2647 18.3201 16.1602C18.2757 16.0556 18.211 15.9609 18.1297 15.8816C17.407 15.1668 16.4887 14.6822 15.4909 14.4887C14.493 14.2952 13.4602 14.4017 12.5227 14.7946C11.5853 15.1874 10.7852 15.8492 10.2234 16.6963C9.66159 17.5434 9.36335 18.5379 9.36613 19.5544C9.36899 20.5708 9.6728 21.5636 10.2393 22.4077C10.8057 23.2515 11.6096 23.9089 12.5492 24.2965C13.4887 24.6842 14.5221 24.785 15.5189 24.5859C16.5157 24.3869 17.4312 23.8971 18.1499 23.1784C18.1677 23.1607 18.1832 23.1429 18.1987 23.1244C18.2172 23.1089 18.2353 23.093 18.2527 23.0756C18.3685 22.955 18.5073 22.8587 18.661 22.7924C18.8144 22.7261 18.9798 22.6911 19.1469 22.6894C19.3142 22.6877 19.4802 22.7194 19.635 22.7827C19.7898 22.8459 19.9306 22.9395 20.0488 23.0577C20.1671 23.176 20.2606 23.3167 20.3239 23.4715C20.3871 23.6263 20.4188 23.7923 20.4171 23.9596C20.4154 24.1267 20.3805 24.2921 20.3141 24.4456C20.2478 24.5992 20.1515 24.738 20.0309 24.8539C18.5887 26.2992 16.6318 27.1131 14.5901 27.1166C13.5883 27.1302 12.5941 26.9428 11.6659 26.5657C10.7377 26.1885 9.89458 25.6292 9.18615 24.9207C8.4778 24.2124 7.91845 23.3693 7.54133 22.4411C7.16421 21.5129 6.97681 20.5187 6.99034 19.5169C6.99614 17.4756 7.80968 15.5195 9.25312 14.0761C10.6966 12.6326 12.6526 11.8191 14.6939 11.8133C15.6955 11.8008 16.6894 11.9886 17.6173 12.3656C18.5452 12.7426 19.3884 13.3013 20.0974 14.0088C20.152 14.0631 20.2137 14.1098 20.2809 14.1476C20.8768 14.5851 21.6132 14.787 22.3489 14.7149C23.0845 14.6427 23.7677 14.3014 24.2672 13.7566C24.7667 13.2117 25.0474 12.5015 25.0555 11.7624C25.0636 11.0232 24.7986 10.3071 24.3112 9.75142C24.2918 9.72726 24.271 9.70408 24.2491 9.68207C24.2369 9.66985 24.2247 9.65772 24.2125 9.64549C24.2065 9.63947 24.2006 9.63363 24.1948 9.62778C24.189 9.62193 24.1822 9.61662 24.1762 9.61095C22.9046 8.35917 21.3977 7.37149 19.7426 6.70484C18.0874 6.03818 16.3167 5.70577 14.5324 5.72674C10.8746 5.73868 7.36999 7.19703 4.78346 9.78356C2.19699 12.37 0.738688 15.8746 0.726732 19.5324C0.704741 21.334 1.0433 23.1218 1.72268 24.7905C2.40199 26.4592 3.40824 27.9753 4.68224 29.2493C5.95625 30.5233 7.47223 31.5295 9.14107 32.2089C10.8097 32.8882 12.5975 33.2267 14.3991 33.2048L14.3985 33.205Z" fill="#9483FF"/>
<path d="M29.9373 23.7188C29.9373 22.1562 30.6834 21.0234 32.1756 20.3203C33.6678 19.6172 35.3709 19.2422 37.285 19.1953V18.7266C37.285 18.0078 37.1053 17.5 36.7459 17.2031C36.3866 16.9062 35.8866 16.7578 35.2459 16.7578C34.7928 16.7578 34.3905 16.8242 34.0389 16.957C33.6952 17.082 33.3944 17.2305 33.1366 17.4023C32.8866 17.5664 32.66 17.7344 32.4569 17.9062C32.0975 18.2188 31.8006 18.2344 31.5663 17.9531L30.5936 16.7578C30.3514 16.4609 30.41 16.1562 30.7694 15.8438C31.0428 15.6016 31.3592 15.3906 31.7186 15.2109C32.0858 15.0312 32.5702 14.8633 33.1717 14.707C33.7733 14.543 34.5545 14.4609 35.5155 14.4609C37.1405 14.4609 38.3866 14.8359 39.2538 15.5859C40.1288 16.3359 40.5663 17.4414 40.5663 18.9023V26.2969C40.5663 26.7656 40.3319 27 39.8631 27H37.9413C37.5194 27 37.3084 26.7656 37.3084 26.2969V25.9453H37.285C36.8241 26.3906 36.2694 26.7188 35.6209 26.9297C34.9803 27.1328 34.3905 27.2344 33.8514 27.2344C32.5702 27.2344 31.5975 26.9219 30.9334 26.2969C30.2694 25.6641 29.9373 24.8047 29.9373 23.7188ZM33.4061 23.6484C33.4061 23.9219 33.4608 24.1602 33.5702 24.3633C33.6795 24.5586 33.8514 24.7031 34.0858 24.7969C34.3202 24.8906 34.5819 24.9375 34.8709 24.9375C35.2694 24.9375 35.6561 24.8828 36.0311 24.7734C36.4061 24.6641 36.8241 24.4062 37.285 24V21.457C35.9725 21.6055 35.0936 21.7969 34.6483 22.0312C34.203 22.2656 33.8827 22.5078 33.6873 22.7578C33.4998 23.0078 33.4061 23.3047 33.4061 23.6484ZM44.4686 31.6875C43.9998 31.6875 43.7655 31.4531 43.7655 30.9844V15.3984C43.7655 14.9297 43.9998 14.6953 44.4686 14.6953H46.3202C46.7108 14.6953 46.9217 14.9297 46.953 15.3984L46.9998 16.0781H47.0467C47.453 15.4062 47.9061 14.9688 48.4061 14.7656C48.9061 14.5625 49.5077 14.4609 50.2108 14.4609C52.0467 14.4609 53.3358 15.0977 54.078 16.3711C54.828 17.6367 55.203 19.1289 55.203 20.8477C55.203 22.5664 54.828 24.0625 54.078 25.3359C53.3358 26.6016 52.0467 27.2344 50.2108 27.2344C49.5077 27.2344 48.9061 27.1328 48.4061 26.9297C47.9061 26.7266 47.453 26.2891 47.0467 25.6172H46.9998C47.0311 25.9297 47.0467 26.2422 47.0467 26.5547V30.9844C47.0467 31.4531 46.8123 31.6875 46.3436 31.6875H44.4686ZM47.0467 21.375C47.0467 22.4297 47.2538 23.2891 47.6678 23.9531C48.0897 24.6094 48.5936 24.9375 49.1795 24.9375C50.2342 24.9375 50.9217 24.5703 51.242 23.8359C51.5702 23.0938 51.7342 22.0977 51.7342 20.8477C51.7342 19.5977 51.5702 18.6055 51.242 17.8711C50.9217 17.1289 50.2342 16.7578 49.1795 16.7578C48.5936 16.7578 48.0897 17.0898 47.6678 17.7539C47.2538 18.4102 47.0467 19.2656 47.0467 20.3203V21.375ZM58.4373 31.6875C57.9686 31.6875 57.7342 31.4531 57.7342 30.9844V15.3984C57.7342 14.9297 57.9686 14.6953 58.4373 14.6953H60.2889C60.6795 14.6953 60.8905 14.9297 60.9217 15.3984L60.9686 16.0781H61.0155C61.4217 15.4062 61.8748 14.9688 62.3748 14.7656C62.8748 14.5625 63.4764 14.4609 64.1795 14.4609C66.0155 14.4609 67.3045 15.0977 68.0467 16.3711C68.7967 17.6367 69.1717 19.1289 69.1717 20.8477C69.1717 22.5664 68.7967 24.0625 68.0467 25.3359C67.3045 26.6016 66.0155 27.2344 64.1795 27.2344C63.4764 27.2344 62.8748 27.1328 62.3748 26.9297C61.8748 26.7266 61.4217 26.2891 61.0155 25.6172H60.9686C60.9998 25.9297 61.0155 26.2422 61.0155 26.5547V30.9844C61.0155 31.4531 60.7811 31.6875 60.3123 31.6875H58.4373ZM61.0155 21.375C61.0155 22.4297 61.2225 23.2891 61.6366 23.9531C62.0584 24.6094 62.5623 24.9375 63.1483 24.9375C64.203 24.9375 64.8905 24.5703 65.2108 23.8359C65.5389 23.0938 65.703 22.0977 65.703 20.8477C65.703 19.5977 65.5389 18.6055 65.2108 17.8711C64.8905 17.1289 64.203 16.7578 63.1483 16.7578C62.5623 16.7578 62.0584 17.0898 61.6366 17.7539C61.2225 18.4102 61.0155 19.2656 61.0155 20.3203V21.375ZM71.4569 26.1797C71.0741 25.9062 70.9686 25.6133 71.1405 25.3008L71.7381 24.2109C71.9491 23.8203 72.2772 23.7734 72.7225 24.0703C73.1678 24.3672 73.6913 24.5859 74.2928 24.7266C74.9022 24.8672 75.4569 24.9375 75.9569 24.9375C76.3084 24.9375 76.6366 24.9023 76.9413 24.832C77.2459 24.7617 77.5038 24.625 77.7147 24.4219C77.9256 24.2188 78.0311 23.9219 78.0311 23.5312C78.0311 23.2969 77.9686 23.0977 77.8436 22.9336C77.7186 22.7695 77.5584 22.6445 77.3631 22.5586C77.1678 22.4727 76.9608 22.4023 76.742 22.3477C76.453 22.2773 76.035 22.1602 75.4881 21.9961C74.9491 21.832 74.4295 21.6406 73.9295 21.4219C73.5155 21.2422 73.1092 20.9922 72.7108 20.6719C72.3202 20.3438 72.0311 19.9805 71.8436 19.582C71.6639 19.1836 71.5741 18.6914 71.5741 18.1055C71.5741 17.3164 71.8006 16.625 72.2538 16.0312C72.7147 15.4375 73.3084 15.0273 74.035 14.8008C74.7616 14.5742 75.6678 14.4609 76.7538 14.4609C77.4881 14.4609 78.203 14.5664 78.8983 14.7773C79.5936 14.9883 80.0897 15.1875 80.3866 15.375C80.8553 15.6719 80.9725 15.9883 80.7381 16.3242L80.0233 17.3672C79.8045 17.6797 79.453 17.7031 78.9686 17.4375C78.6014 17.2344 78.2381 17.0703 77.8788 16.9453C77.5272 16.8203 77.1327 16.7578 76.6952 16.7578C76.3983 16.7578 76.1131 16.7891 75.8397 16.8516C75.5663 16.9141 75.3319 17.0312 75.1366 17.2031C74.9491 17.375 74.8553 17.6016 74.8553 17.8828C74.8553 18.1797 74.9413 18.4141 75.1131 18.5859C75.2928 18.75 75.4959 18.8711 75.7225 18.9492C75.9569 19.0273 76.1795 19.1016 76.3905 19.1719C76.828 19.3125 77.2694 19.4492 77.7147 19.582C78.16 19.707 78.6131 19.8594 79.0741 20.0391C79.4725 20.1953 79.8592 20.418 80.2342 20.707C80.6092 20.9961 80.8827 21.3633 81.0545 21.8086C81.2264 22.2539 81.3123 22.7617 81.3123 23.332C81.3123 24.0898 81.0858 24.793 80.6327 25.4414C80.1795 26.0898 79.5819 26.5508 78.8397 26.8242C78.0975 27.0977 77.2342 27.2344 76.2498 27.2344C75.1483 27.2344 74.2108 27.1562 73.4373 27C72.6639 26.8438 72.0038 26.5703 71.4569 26.1797Z" fill="white"/>
</svg>
