<svg width="107" height="13" viewBox="0 0 107 13" fill="none" xmlns="http://www.w3.org/2000/svg">
<path d="M0.796875 12C0.432292 12 0.25 11.8047 0.25 11.4141V1.38281C0.25 0.992188 0.432292 0.796875 0.796875 0.796875H6.97656C7.36719 0.796875 7.5625 0.966146 7.5625 1.30469V2.22656C7.5625 2.5651 7.36719 2.73438 6.97656 2.73438H2.53125V5.45312H6.33594C6.72656 5.45312 6.92188 5.6224 6.92188 5.96094V6.88281C6.92188 7.22135 6.72656 7.39062 6.33594 7.39062H2.53125V11.4141C2.53125 11.8047 2.34896 12 1.98438 12H0.796875ZM9.98438 12C9.61979 12 9.4375 11.8047 9.4375 11.4141V1.38281C9.4375 0.992188 9.61979 0.796875 9.98438 0.796875H16.6875C17.0781 0.796875 17.2734 0.966146 17.2734 1.30469V2.22656C17.2734 2.5651 17.0781 2.73438 16.6875 2.73438H11.7188V5.21875H16.2734C16.6641 5.21875 16.8594 5.38802 16.8594 5.72656V6.64844C16.8594 6.98698 16.6641 7.15625 16.2734 7.15625H11.7188V10.0625H16.9375C17.3281 10.0625 17.5234 10.2318 17.5234 10.5703V11.4922C17.5234 11.8307 17.3281 12 16.9375 12H9.98438ZM19.0859 12C18.7109 12 18.5885 11.8281 18.7188 11.4844L22.5469 1.42969C22.7083 1.00781 22.9531 0.796875 23.2812 0.796875H24.375C24.7031 0.796875 24.9479 1.00781 25.1094 1.42969L28.9375 11.4844C29.0677 11.8281 28.9453 12 28.5703 12H27.3281C26.9844 12 26.7448 11.8203 26.6094 11.4609L25.8125 9.35938H21.8438L21.0469 11.4609C20.9115 11.8203 20.6719 12 20.3281 12H19.0859ZM22.5703 7.42188H25.0859L24.125 4.9375C24.0104 4.64583 23.9401 4.4349 23.9141 4.30469C23.8932 4.16927 23.8698 3.97135 23.8438 3.71094H23.8125C23.7865 3.97135 23.7604 4.16927 23.7344 4.30469C23.7135 4.4349 23.6458 4.64583 23.5312 4.9375L22.5703 7.42188ZM28.5703 2.79688C28.1797 2.79688 27.9844 2.6276 27.9844 2.28906V1.30469C27.9844 0.966146 28.1797 0.796875 28.5703 0.796875H36.6016C36.9922 0.796875 37.1875 0.966146 37.1875 1.30469V2.28906C37.1875 2.6276 36.9922 2.79688 36.6016 2.79688H33.7266V11.5703C33.7266 11.8568 33.5964 12 33.3359 12H31.8359C31.5755 12 31.4453 11.8568 31.4453 11.5703V2.79688H28.5703ZM38.7031 7.33594V1.22656C38.7031 0.940104 38.8854 0.796875 39.25 0.796875H40.4375C40.8021 0.796875 40.9844 0.940104 40.9844 1.22656V7.25781C40.9844 8.66406 41.1901 9.54427 41.6016 9.89844C42.0182 10.2474 42.487 10.4219 43.0078 10.4219C43.5286 10.4219 43.9948 10.2474 44.4062 9.89844C44.8229 9.54427 45.0312 8.66406 45.0312 7.25781V1.22656C45.0312 0.940104 45.2135 0.796875 45.5781 0.796875H46.7656C47.1302 0.796875 47.3125 0.940104 47.3125 1.22656V7.33594C47.3125 9.15885 46.9271 10.4375 46.1562 11.1719C45.3854 11.901 44.3359 12.2656 43.0078 12.2656C41.6797 12.2656 40.6302 11.901 39.8594 11.1719C39.0885 10.4375 38.7031 9.15885 38.7031 7.33594ZM50.3594 12C49.9948 12 49.8125 11.8047 49.8125 11.4141V1.38281C49.8125 0.992188 49.9948 0.796875 50.3594 0.796875H53.9766C55.5859 0.796875 56.7604 1.04688 57.5 1.54688C58.2396 2.04167 58.6094 2.84896 58.6094 3.96875C58.6094 4.80208 58.3099 5.46615 57.7109 5.96094C57.112 6.45573 56.3516 6.78385 55.4297 6.94531V6.96094C55.9297 7.14844 56.3073 7.40885 56.5625 7.74219C56.8177 8.07552 57.026 8.36719 57.1875 8.61719L58.9062 11.3281C59.1927 11.776 59.0938 12 58.6094 12H57.25C56.9635 12 56.7292 11.8464 56.5469 11.5391L54.9688 8.90625C54.7969 8.625 54.4818 8.31771 54.0234 7.98438C53.5703 7.64583 53.1198 7.47656 52.6719 7.47656H52.0938V11.4141C52.0938 11.8047 51.9115 12 51.5469 12H50.3594ZM52.0938 5.53906H53.4922C54.5339 5.53906 55.2734 5.42188 55.7109 5.1875C56.1536 4.94792 56.375 4.57031 56.375 4.05469C56.375 3.49219 56.1615 3.1276 55.7344 2.96094C55.3125 2.78906 54.6901 2.70312 53.8672 2.70312H52.0938V5.53906ZM61.5156 12C61.151 12 60.9688 11.8047 60.9688 11.4141V1.38281C60.9688 0.992188 61.151 0.796875 61.5156 0.796875H68.2188C68.6094 0.796875 68.8047 0.966146 68.8047 1.30469V2.22656C68.8047 2.5651 68.6094 2.73438 68.2188 2.73438H63.25V5.21875H67.8047C68.1953 5.21875 68.3906 5.38802 68.3906 5.72656V6.64844C68.3906 6.98698 68.1953 7.15625 67.8047 7.15625H63.25V10.0625H68.4688C68.8594 10.0625 69.0547 10.2318 69.0547 10.5703V11.4922C69.0547 11.8307 68.8594 12 68.4688 12H61.5156ZM71.5156 12C71.151 12 70.9688 11.8047 70.9688 11.4141V1.38281C70.9688 0.992188 71.151 0.796875 71.5156 0.796875H74.2422C76.638 0.796875 78.2578 1.28125 79.1016 2.25C79.9505 3.21875 80.375 4.59635 80.375 6.38281C80.375 8.16927 79.9505 9.55208 79.1016 10.5312C78.2578 11.5104 76.638 12 74.2422 12H71.5156ZM73.25 10.0625H74.0938C75.7083 10.0625 76.7526 9.76302 77.2266 9.16406C77.7005 8.5599 77.9375 7.63281 77.9375 6.38281C77.9375 5.13281 77.7005 4.21094 77.2266 3.61719C76.7526 3.01823 75.7083 2.71875 74.0938 2.71875H73.25V10.0625ZM88.3125 12C87.9479 12 87.7656 11.8047 87.7656 11.4141V1.38281C87.7656 0.992188 87.9479 0.796875 88.3125 0.796875H89.5C89.8646 0.796875 90.0469 0.992188 90.0469 1.38281V11.4141C90.0469 11.8047 89.8646 12 89.5 12H88.3125ZM93.0938 12C92.7292 12 92.5469 11.8047 92.5469 11.4141V1.38281C92.5469 0.992188 92.7292 0.796875 93.0938 0.796875H94.25C94.6979 0.796875 95.0365 0.979167 95.2656 1.34375L99.25 7.74219H99.3047C99.2786 7.42969 99.2656 7.11719 99.2656 6.80469V1.38281C99.2656 0.992188 99.4479 0.796875 99.8125 0.796875H101C101.365 0.796875 101.547 0.992188 101.547 1.38281V11.4141C101.547 11.8047 101.365 12 101 12H99.9219C99.474 12 99.1354 11.8177 98.9062 11.4531L94.8438 4.9375H94.7891C94.8151 5.25 94.8281 5.5625 94.8281 5.875V11.4141C94.8281 11.8047 94.6458 12 94.2812 12H93.0938ZM104.812 12C104.448 12 104.266 11.8047 104.266 11.4141V10.3672C104.266 9.97656 104.448 9.78125 104.812 9.78125H106C106.365 9.78125 106.547 9.97656 106.547 10.3672V11.4141C106.547 11.8047 106.365 12 106 12H104.812ZM104.812 6.01562C104.448 6.01562 104.266 5.82031 104.266 5.42969V4.38281C104.266 3.99219 104.448 3.79688 104.812 3.79688H106C106.365 3.79688 106.547 3.99219 106.547 4.38281V5.42969C106.547 5.82031 106.365 6.01562 106 6.01562H104.812Z" fill="white"/>
</svg>
