<svg width="25" height="25" viewBox="0 0 25 25" fill="none" xmlns="http://www.w3.org/2000/svg">
<g clip-path="url(#clip0_302_477)">
<path d="M24.2863 17.666L18.8175 15.3223C18.5839 15.2227 18.3242 15.2017 18.0777 15.2625C17.8311 15.3232 17.6109 15.4625 17.4503 15.6592L15.0284 18.6182C11.2275 16.8261 8.16868 13.7672 6.37659 9.96631L9.33557 7.54443C9.53268 7.38412 9.67219 7.16395 9.73298 6.91726C9.79377 6.67057 9.77254 6.41079 9.67249 6.17725L7.32874 0.708496C7.21893 0.456742 7.02472 0.251194 6.77959 0.127294C6.53447 0.00339424 6.25379 -0.0310909 5.98596 0.0297849L0.907837 1.20166C0.649619 1.26129 0.419236 1.40668 0.25429 1.6141C0.0893434 1.82153 -0.000425694 2.07874 -0.000366181 2.34375C-0.000366181 14.8682 10.151 25 22.6559 25C22.921 25.0002 23.1783 24.9104 23.3858 24.7455C23.5934 24.5805 23.7388 24.3501 23.7985 24.0918L24.9703 19.0137C25.0308 18.7445 24.9956 18.4627 24.8707 18.2168C24.7459 17.9708 24.5392 17.776 24.2863 17.666Z" fill="white"/>
</g>
<defs>
<clipPath id="clip0_302_477">
<rect width="25" height="25" fill="white" transform="translate(-0.000366211)"/>
</clipPath>
</defs>
</svg>
