<svg width="159" height="67" viewBox="0 0 159 67" fill="none" xmlns="http://www.w3.org/2000/svg">
<path fill-rule="evenodd" clip-rule="evenodd" d="M52.4169 26.2012L56.1719 22.4462C57.7382 20.8799 59.8625 20 62.0776 20C64.2927 20 66.417 20.8799 67.9834 22.4462C69.5497 24.0125 70.4296 26.1369 70.4296 28.352C70.4296 30.5671 69.5497 32.6914 67.9834 34.2577L60.8235 41.4176C61.0626 40.5125 61.1697 39.5775 61.1413 38.6417L66.7543 33.0287C67.9798 31.7853 68.664 30.1077 68.6577 28.3619C68.6514 26.6161 67.955 24.9436 66.7206 23.7091C65.486 22.4746 63.8135 21.7783 62.0677 21.7719C60.3218 21.7656 58.6444 22.4498 57.4009 23.6753L53.646 27.4302L52.4169 26.2012ZM51.4952 47.2826C50.3984 47.2844 49.3121 47.0696 48.2986 46.6504C47.2852 46.2313 46.3645 45.6159 45.5895 44.8399L35.0071 34.2574C33.4444 32.6903 32.5675 30.5671 32.5691 28.354C32.5706 26.141 33.4505 24.019 35.0154 22.4541C36.5803 20.8893 38.7023 20.0095 40.9155 20.008C43.1285 20.0065 45.2517 20.8835 46.8187 22.4462L57.4011 33.0287C58.5697 34.1962 59.3657 35.6841 59.6883 37.3043C60.011 38.9244 59.8456 40.6038 59.2133 42.13C58.5809 43.6561 57.5101 44.9602 56.1362 45.8775C54.7623 46.7948 53.1471 47.2837 51.4952 47.2826ZM46.8187 43.6111C48.0622 44.8366 49.7396 45.5208 51.4855 45.5145C53.2312 45.5082 54.9038 44.8118 56.1383 43.5772C57.3727 42.3428 58.0691 40.6703 58.0754 38.9245C58.0817 37.1786 57.3976 35.501 56.1721 34.2577L45.5896 23.6753C44.977 23.0538 44.2477 22.5596 43.4432 22.2213C42.639 21.883 41.7756 21.7072 40.903 21.704C40.0303 21.7009 39.1658 21.8704 38.359 22.2029C37.5523 22.5353 36.8192 23.0242 36.2022 23.6412C35.5852 24.2582 35.0963 24.9912 34.7639 25.798C34.4314 26.6048 34.2619 27.4694 34.265 28.342C34.2682 29.2146 34.444 30.078 34.7823 30.8823C35.1206 31.6867 35.6148 32.4161 36.2362 33.0287L46.8187 43.6111ZM38.7622 39.8562L35.0071 43.6111C33.7642 44.8391 32.0858 45.5255 30.3386 45.5203C28.5914 45.5151 26.9172 44.8187 25.6817 43.5832C24.4462 42.3477 23.7497 40.6735 23.7445 38.9262C23.7392 37.179 24.4255 35.5006 25.6535 34.2577L31.2623 28.649C31.2593 28.5502 31.2573 28.4512 31.2573 28.3519C31.2568 27.5166 31.364 26.6848 31.5764 25.8769L24.4253 33.0281C22.8682 34.5963 21.9961 36.7178 22 38.9278C22.004 41.1377 22.8836 43.256 24.4463 44.8187C26.009 46.3813 28.1273 47.261 30.3373 47.2648C32.5472 47.2688 34.6687 46.3967 36.2369 44.8396L39.9918 41.0846L38.7622 39.8562Z" fill="white"/>
<path d="M79.912 41H78.112V23H79.912V41ZM89.3914 41L93.3034 31.976L89.3914 23H91.2634L94.5514 30.5H93.9394L97.2154 23H99.0874L95.1754 31.976L99.0874 41H97.2274L93.9394 33.476H94.5514L91.2514 41H89.3914ZM112.493 41.384C111.213 41.384 110.181 40.976 109.397 40.16C108.621 39.344 108.233 38.272 108.233 36.944V27.056C108.233 25.72 108.621 24.648 109.397 23.84C110.181 23.024 111.213 22.616 112.493 22.616C113.781 22.616 114.813 23.024 115.589 23.84C116.365 24.648 116.753 25.72 116.753 27.056V36.944C116.753 38.272 116.365 39.344 115.589 40.16C114.813 40.976 113.781 41.384 112.493 41.384ZM112.493 39.584C113.237 39.584 113.833 39.344 114.281 38.864C114.729 38.376 114.953 37.736 114.953 36.944V27.056C114.953 26.264 114.729 25.628 114.281 25.148C113.833 24.66 113.237 24.416 112.493 24.416C111.749 24.416 111.153 24.66 110.705 25.148C110.257 25.628 110.033 26.264 110.033 27.056V36.944C110.033 37.736 110.257 38.376 110.705 38.864C111.153 39.344 111.749 39.584 112.493 39.584ZM127.428 41V23H129.024L134.652 37.664L134.148 37.724V23H135.888V41H134.304L128.664 26.324L129.168 26.264V41H127.428Z" fill="white"/>
</svg>
