<svg width="108" height="16" viewBox="0 0 108 16" fill="none" xmlns="http://www.w3.org/2000/svg">
<g clip-path="url(#clip0_302_270)">
<path d="M7.2028 1.38322L5.38892 5.061L1.33058 5.65267C0.602805 5.75822 0.311138 6.65545 0.838916 7.16933L3.77503 10.0304L3.08058 14.0721C2.95558 14.8027 3.72503 15.3499 4.36947 15.0082L8.00003 13.0999L11.6306 15.0082C12.275 15.3471 13.0445 14.8027 12.9195 14.0721L12.225 10.0304L15.1611 7.16933C15.6889 6.65545 15.3972 5.75822 14.6695 5.65267L10.6111 5.061L8.79725 1.38322C8.47225 0.727669 7.53058 0.719335 7.2028 1.38322Z" fill="#FF9900"/>
</g>
<g clip-path="url(#clip1_302_270)">
<path d="M30.2028 1.38322L28.3889 5.061L24.3306 5.65267C23.6028 5.75822 23.3111 6.65545 23.8389 7.16933L26.775 10.0304L26.0806 14.0721C25.9556 14.8027 26.725 15.3499 27.3695 15.0082L31 13.0999L34.6306 15.0082C35.275 15.3471 36.0445 14.8027 35.9195 14.0721L35.225 10.0304L38.1611 7.16933C38.6889 6.65545 38.3972 5.75822 37.6695 5.65267L33.6111 5.061L31.7972 1.38322C31.4722 0.727669 30.5306 0.719335 30.2028 1.38322Z" fill="#FF9900"/>
</g>
<g clip-path="url(#clip2_302_270)">
<path d="M53.2028 1.38322L51.3889 5.061L47.3306 5.65267C46.6028 5.75822 46.3111 6.65545 46.8389 7.16933L49.775 10.0304L49.0806 14.0721C48.9556 14.8027 49.725 15.3499 50.3695 15.0082L54 13.0999L57.6306 15.0082C58.275 15.3471 59.0445 14.8027 58.9195 14.0721L58.225 10.0304L61.1611 7.16933C61.6889 6.65545 61.3972 5.75822 60.6695 5.65267L56.6111 5.061L54.7972 1.38322C54.4722 0.727669 53.5306 0.719335 53.2028 1.38322Z" fill="#FF9900"/>
</g>
<g clip-path="url(#clip3_302_270)">
<path d="M76.2028 1.38322L74.3889 5.061L70.3306 5.65267C69.6028 5.75822 69.3111 6.65545 69.8389 7.16933L72.775 10.0304L72.0806 14.0721C71.9556 14.8027 72.725 15.3499 73.3695 15.0082L77 13.0999L80.6306 15.0082C81.275 15.3471 82.0445 14.8027 81.9195 14.0721L81.225 10.0304L84.1611 7.16933C84.6889 6.65545 84.3972 5.75822 83.6695 5.65267L79.6111 5.061L77.7972 1.38322C77.4722 0.727669 76.5306 0.719335 76.2028 1.38322Z" fill="#FF9900"/>
</g>
<g clip-path="url(#clip4_302_270)">
<path d="M107.181 5.47786L102.811 4.84174L100.859 0.889796C100.683 0.536662 100.341 0.358154 99.9985 0.358154C99.6582 0.358154 99.3182 0.534274 99.142 0.889796L97.1889 4.84144L92.8194 5.47696C92.0358 5.59039 91.7217 6.55427 92.2898 7.10651L95.4507 10.1811L94.7026 14.5238C94.5964 15.1441 95.0916 15.6417 95.6462 15.6417C95.7934 15.6417 95.9447 15.6068 96.0901 15.5298L99.9991 13.4796L103.908 15.5304C104.053 15.6065 104.204 15.6411 104.35 15.6411C104.906 15.6411 105.402 15.1453 105.295 14.5247L104.548 10.1817L107.71 7.10771C108.278 6.55547 107.964 5.59129 107.181 5.47786ZM103.547 9.15547L103.006 9.68144L103.133 10.4241L103.716 13.8107L100.667 12.211L99.9994 11.8605L100 2.39218L101.524 5.47547L101.857 6.15099L102.604 6.25965L106.014 6.75606L103.547 9.15547Z" fill="#FF9900"/>
</g>
<defs>
<clipPath id="clip0_302_270">
<rect width="16" height="16" fill="white"/>
</clipPath>
<clipPath id="clip1_302_270">
<rect width="16" height="16" fill="white" transform="translate(23)"/>
</clipPath>
<clipPath id="clip2_302_270">
<rect width="16" height="16" fill="white" transform="translate(46)"/>
</clipPath>
<clipPath id="clip3_302_270">
<rect width="16" height="16" fill="white" transform="translate(69)"/>
</clipPath>
<clipPath id="clip4_302_270">
<rect width="16" height="16" fill="white" transform="translate(92)"/>
</clipPath>
</defs>
</svg>
