<svg width="14" height="17" viewBox="0 0 14 17" fill="none" xmlns="http://www.w3.org/2000/svg">
<path d="M0.107898 6.76044L6.73951 0.10827C6.77372 0.0739454 6.81432 0.0467161 6.85902 0.0281385C6.90371 0.00956092 6.95162 -6.16189e-07 7 -6.11959e-07C7.04838 -6.0773e-07 7.09629 0.00956094 7.14098 0.0281385C7.18568 0.0467161 7.22629 0.0739454 7.26049 0.10827L13.8921 6.76044C13.9612 6.82974 14 6.92373 14 7.02174C14 7.11974 13.9612 7.21373 13.8921 7.28303C13.823 7.35233 13.7293 7.39126 13.6316 7.39126C13.5339 7.39126 13.4402 7.35233 13.3711 7.28303L7.36842 1.26181L7.36842 16.6304C7.36842 16.7284 7.32961 16.8224 7.26051 16.8918C7.19142 16.9611 7.09771 17 7 17C6.90229 17 6.80858 16.9611 6.73949 16.8918C6.67039 16.8224 6.63158 16.7284 6.63158 16.6304L6.63158 1.26181L0.628871 7.28303C0.559786 7.35233 0.466085 7.39126 0.368384 7.39126C0.270683 7.39126 0.176983 7.35233 0.107898 7.28303C0.0388125 7.21373 8.63759e-07 7.11974 8.72327e-07 7.02174C8.80895e-07 6.92373 0.0388126 6.82974 0.107898 6.76044Z" fill="#624DE7"/>
</svg>
