<svg width="14" height="17" viewBox="0 0 14 17" fill="none" xmlns="http://www.w3.org/2000/svg">
<g id="Frame 10">
<path id="Vector" d="M13.8921 10.2396L7.26049 16.8917C7.22629 16.9261 7.18568 16.9533 7.14098 16.9719C7.09629 16.9904 7.04838 17 7 17C6.95162 17 6.90371 16.9904 6.85902 16.9719C6.81432 16.9533 6.77371 16.9261 6.73951 16.8917L0.107897 10.2396C0.0388118 10.1703 -2.52163e-09 10.0763 0 9.97826C2.52163e-09 9.88026 0.0388118 9.78627 0.107897 9.71697C0.176982 9.64767 0.270682 9.60874 0.368384 9.60874C0.466085 9.60874 0.559785 9.64767 0.62887 9.71697L6.63158 15.7382V0.369565C6.63158 0.27155 6.67039 0.17755 6.73949 0.108243C6.80858 0.0389363 6.90229 0 7 0C7.09771 0 7.19142 0.0389363 7.26051 0.108243C7.32961 0.17755 7.36842 0.27155 7.36842 0.369565V15.7382L13.3711 9.71697C13.4402 9.64767 13.5339 9.60874 13.6316 9.60874C13.7293 9.60874 13.823 9.64767 13.8921 9.71697C13.9612 9.78627 14 9.88026 14 9.97826C14 10.0763 13.9612 10.1703 13.8921 10.2396Z" fill="#624DE7"/>
</g>
</svg>
