<svg width="159" height="67" viewBox="0 0 159 67" fill="none" xmlns="http://www.w3.org/2000/svg">
<path d="M30.3852 24.769C27.1992 24.769 20.8171 22.1862 20.8171 19H20.77C20.77 21.5501 21.783 23.9957 23.5861 25.799C25.3893 27.6022 27.8348 28.6153 30.385 28.6154C31.915 28.6154 33.3824 29.2232 34.4644 30.3051C35.5464 31.387 36.1542 32.8544 36.1542 34.3845C36.1546 35.9145 35.547 37.3822 34.4653 38.4643C33.3835 39.5465 31.9162 40.1546 30.3862 40.1549C28.856 40.1552 27.3885 39.5476 26.3063 38.4659C25.2242 37.3841 24.616 35.9168 24.6157 34.3868C24.6157 33.124 24.367 31.8737 23.8837 30.7071C23.4004 29.5405 22.6921 28.4805 21.7992 27.5877C20.9063 26.6949 19.8463 25.9866 18.6797 25.5034C17.5131 25.0203 16.2627 24.7716 15 24.7716V24.8184C18.1856 24.8184 20.7684 31.1977 20.7696 34.3844H20.769C20.769 36.2862 21.3329 38.1452 22.3894 39.7264C23.4459 41.3077 24.9476 42.5401 26.7046 43.2679C28.4615 43.9958 30.3948 44.1863 32.2601 43.8153C34.1252 43.4443 35.8386 42.5286 37.1834 41.184C38.5281 39.8393 39.444 38.1261 39.8151 36.2608C40.1863 34.3957 39.9959 32.4624 39.2683 30.7053C38.5406 28.9483 37.3083 27.4465 35.7271 26.3899C34.1459 25.3332 32.2869 24.7691 30.3852 24.769Z" fill="white"/>
<path d="M44.8984 32.998C44.8984 30.7194 45.4876 28.9355 46.666 27.6465C47.8444 26.3509 49.4818 25.7031 51.5781 25.7031C52.8346 25.7031 53.86 25.9212 54.6543 26.3574C55.4486 26.7871 56.0312 27.2949 56.4023 27.8809C56.6302 28.2454 56.627 28.5091 56.3926 28.6719L55.6602 29.1797C55.4193 29.349 55.1784 29.248 54.9375 28.877C54.7422 28.584 54.3743 28.2357 53.834 27.832C53.2936 27.4284 52.5742 27.2266 51.6758 27.2266C50.0807 27.2266 48.8861 27.7344 48.0918 28.75C47.2975 29.7591 46.9004 31.1751 46.9004 32.998C46.9004 34.821 47.2878 36.2402 48.0625 37.2559C48.8372 38.265 50.0742 38.7695 51.7734 38.7695C52.6198 38.7695 53.3555 38.6686 53.9805 38.4668C54.612 38.2585 55.0547 37.972 55.3086 37.6074V35.0195H52.4082C52.0501 35.0195 51.8711 34.873 51.8711 34.5801V33.8574C51.8711 33.5645 52.0501 33.418 52.4082 33.418H56.6465C57.0046 33.418 57.1836 33.5645 57.1836 33.8574V38.4668C56.3893 39.0462 55.5951 39.4954 54.8008 39.8145C54.0065 40.1335 52.9648 40.293 51.6758 40.293C49.5273 40.293 47.8607 39.6484 46.6758 38.3594C45.4909 37.0638 44.8984 35.2767 44.8984 32.998ZM59.1855 37.2656C59.1855 36.1068 59.7259 35.2572 60.8066 34.7168C61.8939 34.1764 63.515 33.8607 65.6699 33.7695V33.1055C65.6699 32.4935 65.5299 31.9661 65.25 31.5234C64.9766 31.0742 64.4297 30.8496 63.6094 30.8496C63.0885 30.8496 62.6719 30.9017 62.3594 31.0059C62.0469 31.1035 61.7604 31.237 61.5 31.4062C61.2461 31.569 61.002 31.7806 60.7676 32.041C60.5918 32.2363 60.4258 32.2461 60.2695 32.0703L59.7617 31.4844C59.6185 31.3216 59.6673 31.1263 59.9082 30.8984C60.2533 30.5729 60.5885 30.3288 60.9141 30.166C61.2396 30.0033 61.6432 29.8665 62.125 29.7559C62.6133 29.6387 63.1081 29.5801 63.6094 29.5801C64.9701 29.5801 65.9401 29.9316 66.5195 30.6348C67.099 31.3314 67.3887 32.2884 67.3887 33.5059V39.5605C67.3887 39.8535 67.2422 40 66.9492 40H66.0703C65.8164 40 65.6895 39.8535 65.6895 39.5605V39.082H65.6699C65.1556 39.4857 64.651 39.7689 64.1562 39.9316C63.668 40.0879 63.1211 40.166 62.5156 40.166C61.4479 40.166 60.6243 39.9121 60.0449 39.4043C59.472 38.89 59.1855 38.1771 59.1855 37.2656ZM60.9629 37.3047C60.9629 37.7083 61.0475 38.0339 61.2168 38.2812C61.3861 38.5221 61.6204 38.6784 61.9199 38.75C62.2194 38.8151 62.5319 38.8477 62.8574 38.8477C63.3587 38.8477 63.834 38.7988 64.2832 38.7012C64.7324 38.6035 65.1947 38.3464 65.6699 37.9297V35.0488C64.3548 35.1465 63.4173 35.2669 62.8574 35.4102C62.2975 35.5469 61.8418 35.7878 61.4902 36.1328C61.1387 36.4714 60.9629 36.862 60.9629 37.3047ZM70.6113 40C70.3184 40 70.1719 39.8535 70.1719 39.5605V30.1855C70.1719 29.8926 70.3184 29.7461 70.6113 29.7461H71.4316C71.7246 29.7461 71.8711 29.8926 71.8711 30.1855V30.9668H71.9102C72.3333 30.498 72.7923 30.1497 73.2871 29.9219C73.7819 29.694 74.2572 29.5801 74.7129 29.5801C75.5527 29.5801 76.1973 29.7917 76.6465 30.2148C77.1022 30.6315 77.3952 31.0514 77.5254 31.4746H77.5645C77.9225 30.9408 78.375 30.4915 78.9219 30.127C79.4688 29.7624 80.0514 29.5801 80.6699 29.5801C81.7051 29.5801 82.4863 29.9154 83.0137 30.5859C83.541 31.25 83.8047 32.1615 83.8047 33.3203V39.5605C83.8047 39.8535 83.6582 40 83.3652 40H82.5254C82.2324 40 82.0859 39.8535 82.0859 39.5605V33.8867C82.0859 32.6107 81.9264 31.7871 81.6074 31.416C81.2884 31.0384 80.7969 30.8496 80.1328 30.8496C79.4818 30.8496 78.9382 31.1296 78.502 31.6895C78.0658 32.2428 77.8477 33.0794 77.8477 34.1992V39.5605C77.8477 39.8535 77.7012 40 77.4082 40H76.5684C76.2754 40 76.1289 39.8535 76.1289 39.5605V33.8867C76.1289 32.6107 75.9694 31.7871 75.6504 31.416C75.3314 31.0384 74.8398 30.8496 74.1758 30.8496C73.5247 30.8496 72.9811 31.1035 72.5449 31.6113C72.1087 32.1126 71.8906 32.9753 71.8906 34.1992V39.5605C71.8906 39.8535 71.7441 40 71.4512 40H70.6113ZM86.998 40C86.7051 40 86.5586 39.8535 86.5586 39.5605V30.1855C86.5586 29.8926 86.7051 29.7461 86.998 29.7461H87.8184C88.1113 29.7461 88.2578 29.8926 88.2578 30.1855V30.9668H88.2969C88.7201 30.498 89.179 30.1497 89.6738 29.9219C90.1686 29.694 90.6439 29.5801 91.0996 29.5801C91.9395 29.5801 92.584 29.7917 93.0332 30.2148C93.4889 30.6315 93.7819 31.0514 93.9121 31.4746H93.9512C94.3092 30.9408 94.7617 30.4915 95.3086 30.127C95.8555 29.7624 96.4382 29.5801 97.0566 29.5801C98.0918 29.5801 98.873 29.9154 99.4004 30.5859C99.9277 31.25 100.191 32.1615 100.191 33.3203V39.5605C100.191 39.8535 100.045 40 99.752 40H98.9121C98.6191 40 98.4727 39.8535 98.4727 39.5605V33.8867C98.4727 32.6107 98.3132 31.7871 97.9941 31.416C97.6751 31.0384 97.1836 30.8496 96.5195 30.8496C95.8685 30.8496 95.3249 31.1296 94.8887 31.6895C94.4525 32.2428 94.2344 33.0794 94.2344 34.1992V39.5605C94.2344 39.8535 94.0879 40 93.7949 40H92.9551C92.6621 40 92.5156 39.8535 92.5156 39.5605V33.8867C92.5156 32.6107 92.3561 31.7871 92.0371 31.416C91.7181 31.0384 91.2266 30.8496 90.5625 30.8496C89.9115 30.8496 89.3678 31.1035 88.9316 31.6113C88.4954 32.1126 88.2773 32.9753 88.2773 34.1992V39.5605C88.2773 39.8535 88.1309 40 87.8379 40H86.998ZM102.389 37.2656C102.389 36.1068 102.929 35.2572 104.01 34.7168C105.097 34.1764 106.718 33.8607 108.873 33.7695V33.1055C108.873 32.4935 108.733 31.9661 108.453 31.5234C108.18 31.0742 107.633 30.8496 106.812 30.8496C106.292 30.8496 105.875 30.9017 105.562 31.0059C105.25 31.1035 104.964 31.237 104.703 31.4062C104.449 31.569 104.205 31.7806 103.971 32.041C103.795 32.2363 103.629 32.2461 103.473 32.0703L102.965 31.4844C102.822 31.3216 102.87 31.1263 103.111 30.8984C103.456 30.5729 103.792 30.3288 104.117 30.166C104.443 30.0033 104.846 29.8665 105.328 29.7559C105.816 29.6387 106.311 29.5801 106.812 29.5801C108.173 29.5801 109.143 29.9316 109.723 30.6348C110.302 31.3314 110.592 32.2884 110.592 33.5059V39.5605C110.592 39.8535 110.445 40 110.152 40H109.273C109.02 40 108.893 39.8535 108.893 39.5605V39.082H108.873C108.359 39.4857 107.854 39.7689 107.359 39.9316C106.871 40.0879 106.324 40.166 105.719 40.166C104.651 40.166 103.827 39.9121 103.248 39.4043C102.675 38.89 102.389 38.1771 102.389 37.2656ZM104.166 37.3047C104.166 37.7083 104.251 38.0339 104.42 38.2812C104.589 38.5221 104.824 38.6784 105.123 38.75C105.423 38.8151 105.735 38.8477 106.061 38.8477C106.562 38.8477 107.037 38.7988 107.486 38.7012C107.936 38.6035 108.398 38.3464 108.873 37.9297V35.0488C107.558 35.1465 106.62 35.2669 106.061 35.4102C105.501 35.5469 105.045 35.7878 104.693 36.1328C104.342 36.4714 104.166 36.862 104.166 37.3047ZM114.137 40C113.811 40 113.648 39.821 113.648 39.4629V26.5332C113.648 26.1751 113.811 25.9961 114.137 25.9961H115.035C115.361 25.9961 115.523 26.1751 115.523 26.5332V38.3984H121.998C122.356 38.3984 122.535 38.5449 122.535 38.8379V39.5605C122.535 39.8535 122.356 40 121.998 40H114.137ZM123.912 37.2656C123.912 36.1068 124.452 35.2572 125.533 34.7168C126.62 34.1764 128.242 33.8607 130.396 33.7695V33.1055C130.396 32.4935 130.257 31.9661 129.977 31.5234C129.703 31.0742 129.156 30.8496 128.336 30.8496C127.815 30.8496 127.398 30.9017 127.086 31.0059C126.773 31.1035 126.487 31.237 126.227 31.4062C125.973 31.569 125.729 31.7806 125.494 32.041C125.318 32.2363 125.152 32.2461 124.996 32.0703L124.488 31.4844C124.345 31.3216 124.394 31.1263 124.635 30.8984C124.98 30.5729 125.315 30.3288 125.641 30.166C125.966 30.0033 126.37 29.8665 126.852 29.7559C127.34 29.6387 127.835 29.5801 128.336 29.5801C129.697 29.5801 130.667 29.9316 131.246 30.6348C131.826 31.3314 132.115 32.2884 132.115 33.5059V39.5605C132.115 39.8535 131.969 40 131.676 40H130.797C130.543 40 130.416 39.8535 130.416 39.5605V39.082H130.396C129.882 39.4857 129.378 39.7689 128.883 39.9316C128.395 40.0879 127.848 40.166 127.242 40.166C126.174 40.166 125.351 39.9121 124.771 39.4043C124.199 38.89 123.912 38.1771 123.912 37.2656ZM125.689 37.3047C125.689 37.7083 125.774 38.0339 125.943 38.2812C126.113 38.5221 126.347 38.6784 126.646 38.75C126.946 38.8151 127.258 38.8477 127.584 38.8477C128.085 38.8477 128.561 38.7988 129.01 38.7012C129.459 38.6035 129.921 38.3464 130.396 37.9297V35.0488C129.081 35.1465 128.144 35.2669 127.584 35.4102C127.024 35.5469 126.568 35.7878 126.217 36.1328C125.865 36.4714 125.689 36.862 125.689 37.3047ZM135.338 40C135.045 40 134.898 39.8535 134.898 39.5605V26.0254C134.898 25.7324 135.045 25.5859 135.338 25.5859H136.178C136.471 25.5859 136.617 25.7324 136.617 26.0254V30.3711C136.617 30.5729 136.611 30.7715 136.598 30.9668H136.617C136.975 30.5371 137.379 30.1986 137.828 29.9512C138.277 29.7038 138.876 29.5801 139.625 29.5801C140.927 29.5801 141.917 30.1139 142.594 31.1816C143.271 32.2428 143.609 33.4733 143.609 34.873C143.609 36.2728 143.271 37.5065 142.594 38.5742C141.917 39.6354 140.927 40.166 139.625 40.166C138.876 40.166 138.277 40.0423 137.828 39.7949C137.379 39.5475 136.975 39.209 136.617 38.7793H136.598L136.539 39.5605C136.52 39.8535 136.393 40 136.158 40H135.338ZM136.617 35.9961C136.617 36.9727 136.848 37.7018 137.311 38.1836C137.779 38.6589 138.365 38.8965 139.068 38.8965C140.058 38.8965 140.758 38.5254 141.168 37.7832C141.585 37.041 141.793 36.071 141.793 34.873C141.793 33.6751 141.585 32.7051 141.168 31.9629C140.758 31.2207 140.058 30.8496 139.068 30.8496C138.365 30.8496 137.779 31.0905 137.311 31.5723C136.848 32.0475 136.617 32.7734 136.617 33.75V35.9961Z" fill="white"/>
</svg>
