<svg width="39" height="39" viewBox="0 0 39 39" fill="none" xmlns="http://www.w3.org/2000/svg">
<circle cx="19.5" cy="19.5" r="19" stroke="white"/>
<path d="M26.3553 16.741C26.3655 16.8831 26.3655 17.0253 26.3655 17.1674C26.3655 21.5024 23.066 26.4973 17.0355 26.4973C15.1777 26.4973 13.4518 25.9593 12 25.0253C12.264 25.0557 12.5177 25.0659 12.7919 25.0659C14.3248 25.0659 15.736 24.5481 16.8629 23.6649C15.4213 23.6344 14.2132 22.6903 13.7969 21.3908C14 21.4212 14.203 21.4415 14.4162 21.4415C14.7107 21.4415 15.0051 21.4009 15.2792 21.3298C13.7767 21.0253 12.6497 19.7055 12.6497 18.1116V18.071C13.0862 18.3146 13.5939 18.4669 14.1319 18.4872C13.2487 17.8983 12.67 16.8933 12.67 15.7562C12.67 15.1471 12.8324 14.5887 13.1167 14.1014C14.7309 16.0913 17.1573 17.3907 19.8781 17.5329C19.8274 17.2892 19.7969 17.0354 19.7969 16.7816C19.7969 14.9745 21.2588 13.5024 23.0761 13.5024C24.0202 13.5024 24.873 13.8984 25.472 14.538C26.2131 14.3958 26.9238 14.1217 27.5532 13.7461C27.3096 14.5075 26.7918 15.1471 26.1116 15.5532C26.7715 15.4822 27.4111 15.2994 27.9999 15.0456C27.5533 15.6953 26.9949 16.274 26.3553 16.741Z" fill="white"/>
</svg>
