<svg width="159" height="67" viewBox="0 0 159 67" fill="none" xmlns="http://www.w3.org/2000/svg">
<path d="M51.3123 25.7054C49.7264 24.1234 47.6158 23.1743 45.3775 23.0367C43.1394 22.8991 40.9279 23.5826 39.1595 24.9584C37.5447 23.7065 35.558 23.0267 33.513 23.0263C31.468 23.0259 29.4811 23.7049 27.8657 24.9562C26.0234 23.5137 23.6989 22.8273 21.3666 23.037C19.0343 23.2468 16.8702 24.3369 15.316 26.0848C13.7619 27.8327 12.9349 30.1066 13.004 32.4423C13.0731 34.778 14.0329 36.9993 15.6877 38.6527L21.3387 44.2924C21.3431 44.2966 21.3475 44.3007 21.3524 44.3051C21.3573 44.3094 21.3587 44.3115 21.3618 44.3146C21.3677 44.3205 21.374 44.3258 21.3799 44.3317C21.4697 44.4204 21.5609 44.5068 21.6535 44.591C21.7011 44.6346 21.7492 44.6767 21.7976 44.7192C21.8369 44.7533 21.8764 44.7871 21.9161 44.8206C23.527 46.1826 25.5585 46.95 27.6694 46.9937C29.7805 47.0375 31.8422 46.3551 33.5084 45.0609C35.2769 46.4367 37.4883 47.1202 39.7265 46.9826C41.9647 46.8451 44.0754 45.8959 45.6612 44.314L51.3124 38.6751C53.0335 36.9539 54 34.6217 54 32.1902C54 29.7587 53.0334 27.4266 51.3123 25.7054ZM33.5112 25.4149C34.8548 25.4141 36.1684 25.811 37.2858 26.5554C38.4033 27.2998 39.2741 28.3583 39.7884 29.5969C40.3027 30.8355 40.4372 32.1984 40.1748 33.5133C39.9125 34.8281 39.2651 36.0358 38.3146 36.9834L33.5112 41.7763L28.7076 36.9834C27.7571 36.0358 27.1097 34.8281 26.8474 33.5133C26.585 32.1984 26.7195 30.8354 27.2338 29.5968C27.7481 28.3582 28.6191 27.2998 29.7365 26.5554C30.854 25.8109 32.1676 25.414 33.5112 25.4149ZM21.0667 37.8293C21.0642 36.9387 21.2388 36.0566 21.5804 35.2339C21.9219 34.4111 22.4236 33.6642 23.0564 33.0362L24.3349 31.7605C24.273 33.0357 24.4792 34.3096 24.9403 35.5005C25.4014 36.6913 26.1072 37.7727 27.0122 38.6751L31.7174 43.3702C30.7025 44.0795 29.512 44.4973 28.2755 44.5778C27.0392 44.6583 25.8042 44.3987 24.7055 43.8271C23.6068 43.2554 22.6864 42.3939 22.0447 41.3361C21.403 40.2785 21.0646 39.0653 21.0664 37.8289L21.0667 37.8293ZM17.3828 36.9608C16.1804 35.7614 15.4726 34.1555 15.3991 32.4606C15.3257 30.7657 15.8919 29.1049 16.986 27.8063C18.08 26.5077 19.6224 25.6657 21.3084 25.4467C22.9943 25.2278 24.7013 25.6477 26.0921 26.6235L21.361 31.3444C20.5049 32.194 19.8262 33.2046 19.3641 34.3178C18.9021 35.4309 18.6659 36.6245 18.6692 37.8293C18.6692 37.9715 18.6725 38.1132 18.6792 38.2544L17.3828 36.9608ZM39.1627 44.6075C37.7747 44.6108 36.4197 44.1866 35.2823 43.3928L40.0107 38.6751C40.9158 37.7727 41.6214 36.6913 42.0825 35.5005C42.5436 34.3096 42.7498 33.0357 42.688 31.7605L43.9665 33.0362C44.9166 33.9842 45.5634 35.1921 45.8255 36.507C46.0877 37.8218 45.9531 39.1847 45.4388 40.4233C44.9246 41.6619 44.0539 42.7205 42.9368 43.4653C41.8196 44.2101 40.5062 44.6075 39.1627 44.6075ZM49.6172 36.9834L48.3433 38.2544C48.3498 38.1133 48.353 37.9717 48.3533 37.8293C48.3566 36.6245 48.1204 35.4309 47.6583 34.3178C47.1963 33.2046 46.5175 32.194 45.6613 31.3444L40.9335 26.6266C42.3268 25.6592 44.0326 25.2473 45.715 25.4721C47.3974 25.6968 48.9345 26.5419 50.0237 27.841C51.1128 29.14 51.6752 30.7989 51.5999 32.4909C51.5247 34.183 50.8174 35.7857 49.6172 36.9834Z" fill="white"/>
<path d="M64.576 44H61.92V25.984H68.96C70.944 25.984 72.48 26.4747 73.568 27.456C74.656 28.4373 75.2 29.9093 75.2 31.872C75.2 33.6427 74.6347 35.0187 73.504 36C72.3947 36.9813 70.88 37.472 68.96 37.472H64.576V44ZM68.64 28.192H64.576V35.456H68.64C69.92 35.456 70.9227 35.1573 71.648 34.56C72.3947 33.9627 72.768 33.056 72.768 31.84C72.768 30.5813 72.4053 29.664 71.68 29.088C70.9547 28.4907 69.9413 28.192 68.64 28.192ZM78.013 44V25.984H84.317C86.621 25.984 88.4023 26.368 89.661 27.136C90.941 27.8827 91.581 29.2373 91.581 31.2C91.581 32.5653 91.229 33.7067 90.525 34.624C89.8423 35.5413 88.8077 36 87.421 36C88.253 36 88.8717 36.1813 89.277 36.544C89.6823 36.9067 89.9597 37.3653 90.109 37.92C90.2583 38.4533 90.3543 39.008 90.397 39.584C90.4397 40.16 90.5037 40.6827 90.589 41.152C90.6743 41.6213 90.845 41.9627 91.101 42.176C91.357 42.368 91.7943 42.3467 92.413 42.112V43.712C92.1143 43.968 91.7197 44.1387 91.229 44.224C90.7597 44.3307 90.2903 44.2987 89.821 44.128C89.3517 43.9787 88.9463 43.6587 88.605 43.168C88.285 42.656 88.125 41.92 88.125 40.96C88.125 39.8293 88.061 38.944 87.933 38.304C87.805 37.664 87.5063 37.1947 87.037 36.896C86.5677 36.5973 85.8317 36.4267 84.829 36.384C83.8263 36.32 82.4503 36.32 80.701 36.384V44H78.013ZM80.701 34.4H84.413C85.501 34.4 86.397 34.336 87.101 34.208C87.805 34.0587 88.3277 33.7707 88.669 33.344C89.0317 32.9173 89.213 32.2667 89.213 31.392C89.213 30.3893 88.9997 29.664 88.573 29.216C88.1463 28.768 87.517 28.4907 86.685 28.384C85.8743 28.256 84.8823 28.192 83.709 28.192H80.701V34.4ZM102.908 41.696V44H95.388V41.696H97.852V28.288H95.388V25.984H102.908V28.288H100.476V41.696H102.908ZM113.767 44.384C112.466 44.384 111.218 44.1813 110.023 43.776C108.829 43.3493 107.847 42.688 107.079 41.792C106.333 40.8747 105.949 39.6907 105.927 38.24H108.615C108.615 38.3253 108.647 38.5707 108.711 38.976C108.797 39.36 108.999 39.7867 109.319 40.256C109.661 40.704 110.194 41.0987 110.919 41.44C111.645 41.7813 112.658 41.952 113.959 41.952C115.005 41.952 115.826 41.8027 116.423 41.504C117.042 41.2053 117.469 40.8533 117.703 40.448C117.959 40.0427 118.098 39.68 118.119 39.36C118.119 38.6987 117.906 38.1653 117.479 37.76C117.074 37.3547 116.519 37.0347 115.815 36.8C115.111 36.544 114.333 36.32 113.479 36.128C112.647 35.9147 111.815 35.6907 110.983 35.456C110.151 35.2 109.383 34.8693 108.679 34.464C107.997 34.0587 107.453 33.536 107.047 32.896C106.663 32.2347 106.503 31.392 106.567 30.368C106.631 28.896 107.325 27.744 108.647 26.912C109.991 26.08 111.719 25.664 113.831 25.664C115.069 25.664 116.221 25.888 117.287 26.336C118.354 26.784 119.207 27.456 119.847 28.352C120.487 29.248 120.807 30.368 120.807 31.712H118.215C118.215 30.9653 118.055 30.368 117.735 29.92C117.415 29.4507 117.01 29.088 116.519 28.832C116.029 28.576 115.517 28.4053 114.983 28.32C114.45 28.2133 113.97 28.16 113.543 28.16C112.327 28.16 111.325 28.384 110.535 28.832C109.767 29.28 109.383 29.888 109.383 30.656C109.362 31.3387 109.565 31.8827 109.991 32.288C110.418 32.6933 110.983 33.0133 111.687 33.248C112.391 33.4827 113.159 33.696 113.991 33.888C114.845 34.08 115.687 34.2933 116.519 34.528C117.373 34.7627 118.141 35.0827 118.823 35.488C119.527 35.872 120.071 36.4053 120.455 37.088C120.861 37.7493 121.042 38.592 120.999 39.616C120.935 40.6187 120.583 41.4827 119.943 42.208C119.325 42.912 118.482 43.456 117.415 43.84C116.349 44.2027 115.133 44.384 113.767 44.384ZM124.169 44V25.984H128.777L133.833 42.816H133.897L138.857 25.984H143.465V44H140.745L140.905 27.232H140.841L135.785 44H131.849L126.825 27.232H126.761L126.889 44H124.169Z" fill="white"/>
</svg>
