<svg width="39" height="39" viewBox="0 0 39 39" fill="none" xmlns="http://www.w3.org/2000/svg">
<circle cx="19.5" cy="19.5" r="19" stroke="white"/>
<path d="M24.9031 15.0344C23.5938 13.7219 21.85 13 19.9969 13C16.1719 13 13.0594 16.1125 13.0594 19.9375C13.0594 21.1594 13.3781 22.3531 13.9844 23.4062L13 27L16.6781 26.0344C17.6906 26.5875 18.8313 26.8781 19.9938 26.8781H19.9969C23.8188 26.8781 27 23.7656 27 19.9406C27 18.0875 26.2125 16.3469 24.9031 15.0344ZM19.9969 25.7094C18.9594 25.7094 17.9437 25.4312 17.0594 24.9062L16.85 24.7812L14.6688 25.3531L15.25 23.225L15.1125 23.0063C14.5344 22.0875 14.2313 21.0281 14.2313 19.9375C14.2313 16.7594 16.8187 14.1719 20 14.1719C21.5406 14.1719 22.9875 14.7719 24.075 15.8625C25.1625 16.9531 25.8313 18.4 25.8281 19.9406C25.8281 23.1219 23.175 25.7094 19.9969 25.7094ZM23.1594 21.3906C22.9875 21.3031 22.1344 20.8844 21.975 20.8281C21.8156 20.7688 21.7 20.7406 21.5844 20.9156C21.4688 21.0906 21.1375 21.4781 21.0344 21.5969C20.9344 21.7125 20.8313 21.7281 20.6594 21.6406C19.6406 21.1313 18.9719 20.7312 18.3 19.5781C18.1219 19.2719 18.4781 19.2937 18.8094 18.6312C18.8656 18.5156 18.8375 18.4156 18.7937 18.3281C18.75 18.2406 18.4031 17.3875 18.2594 17.0406C18.1188 16.7031 17.975 16.75 17.8688 16.7438C17.7688 16.7375 17.6531 16.7375 17.5375 16.7375C17.4219 16.7375 17.2344 16.7812 17.075 16.9531C16.9156 17.1281 16.4688 17.5469 16.4688 18.4C16.4688 19.2531 17.0906 20.0781 17.175 20.1938C17.2625 20.3094 18.3969 22.0594 20.1375 22.8125C21.2375 23.2875 21.6687 23.3281 22.2188 23.2469C22.5531 23.1969 23.2437 22.8281 23.3875 22.4219C23.5312 22.0156 23.5312 21.6687 23.4875 21.5969C23.4469 21.5188 23.3313 21.475 23.1594 21.3906Z" fill="white"/>
</svg>
